<svg version="1.1" xmlns="http://www.w3.org/2000/svg" viewBox="0 0 612.463829787234 575" width="1224.927659574468" height="1150">
  <!-- svg-source:excalidraw -->
  
  <defs>
    <style class="style-fonts">
      @font-face {
        font-family: "Virgil";
        src: url("https://excalidraw.com/Virgil.woff2");
      }
      @font-face {
        font-family: "Cascadia";
        src: url("https://excalidraw.com/Cascadia.woff2");
      }
      @font-face {
        font-family: "Assistant";
        src: url("https://excalidraw.com/Assistant-Regular.woff2");
      }
    </style>
    
  </defs>
  <g stroke-linecap="round" transform="translate(232.13786789291055 193.77997287147303) rotate(59.999999999999986 177 78.52146997001208)"><path d="M32 0 C142.64 4.23, 257.01 2.85, 322 0 C346.49 -3, 354.49 13.67, 354 32 C353.33 64.59, 355.86 105.11, 354 125.04 C351.77 148.83, 340.72 153.67, 322 157.04 C221.59 157.03, 120.61 154.08, 32 157.04 C13.37 154.9, 0.02 148.65, 0 125.04 C2.28 102.5, 0.9 84.41, 0 32 C-1.45 11.31, 9.72 -0.78, 32 0" stroke="none" stroke-width="0" fill="#a5d8ff"></path><path d="M32 0 C144.37 2.32, 256.49 0.18, 322 0 M32 0 C128.67 0.87, 226.32 0.73, 322 0 M322 0 C343.73 -1.35, 354.61 11.01, 354 32 M322 0 C345.23 -1.92, 356.13 11.09, 354 32 M354 32 C354.97 64.44, 354.59 96.85, 354 125.04 M354 32 C354.75 57.1, 353.72 80.49, 354 125.04 M354 125.04 C352.58 144.98, 344.18 155.79, 322 157.04 M354 125.04 C353.77 147.92, 341.29 157.88, 322 157.04 M322 157.04 C262.5 155.8, 200.73 155.97, 32 157.04 M322 157.04 C210.76 158.01, 101.2 157.88, 32 157.04 M32 157.04 C10.59 156.65, 0.78 147.37, 0 125.04 M32 157.04 C11.82 158.42, 2.07 145.35, 0 125.04 M0 125.04 C-0.58 88.68, -1.37 52.33, 0 32 M0 125.04 C-0.42 94.79, 0.04 64.44, 0 32 M0 32 C-0.98 9.49, 10.62 -1.67, 32 0 M0 32 C-0.31 12.05, 10.67 1.02, 32 0" stroke="transparent" stroke-width="2" fill="none"></path></g><g stroke-linecap="round" transform="translate(44.99075357588066 192.6639474676885) rotate(299.99999999999994 176.99999999999997 74.55736835487434)"><path d="M32 0 C107.39 3.76, 182.6 0.27, 322 0 C346.08 -1.24, 354.17 10.61, 354 32 C358.22 67.03, 358.56 97.32, 354 117.11 C355.02 137.58, 342.49 150.76, 322 149.11 C204.92 146.12, 94.12 144.46, 32 149.11 C7.72 147.29, -2.65 138.07, 0 117.11 C0.09 99.97, 1.52 75.7, 0 32 C3.28 11.5, 8.06 -2.87, 32 0" stroke="none" stroke-width="0" fill="#ffec99"></path><path d="M32 0 C143.29 2.35, 256.65 1.58, 322 0 M32 0 C145.07 0.35, 257.55 0.22, 322 0 M322 0 C342.13 -1.85, 354.21 11.37, 354 32 M322 0 C341.91 1.57, 352.33 8.51, 354 32 M354 32 C354.74 63.49, 354.76 90.95, 354 117.11 M354 32 C354.12 63, 352.64 96.7, 354 117.11 M354 117.11 C354.47 136.58, 343.04 147.85, 322 149.11 M354 117.11 C353.08 138.86, 342.73 148.62, 322 149.11 M322 149.11 C229.3 147.98, 138.71 148.63, 32 149.11 M322 149.11 C223.29 151.2, 124 151.24, 32 149.11 M32 149.11 C12.23 149.14, -1.09 140.17, 0 117.11 M32 149.11 C8.88 150.91, -1.01 139.19, 0 117.11 M0 117.11 C1.66 87.71, 0.21 56.1, 0 32 M0 117.11 C-0.48 94.21, 0.42 71.11, 0 32 M0 32 C1.92 10.42, 9.28 -0.32, 32 0 M0 32 C0.26 9.55, 8.54 1.72, 32 0" stroke="transparent" stroke-width="2" fill="none"></path></g><g stroke-linecap="round" transform="translate(129.46382978723398 362) rotate(0 177 71.5)"><path d="M32 0 C92.11 0.87, 147.16 0.27, 322 0 C340.36 -2.17, 353.59 10.2, 354 32 C356.24 59.54, 354.24 85.52, 354 111 C351.95 134.13, 341.4 146.02, 322 143 C250.48 147.47, 175.37 147.69, 32 143 C8.04 146.45, 1.79 128.75, 0 111 C-0.66 90.1, 3.16 76.21, 0 32 C2.4 13.86, 13.43 -1.46, 32 0" stroke="none" stroke-width="0" fill="#ffc9c9"></path><path d="M32 0 C106.45 1.73, 180.26 0.5, 322 0 M32 0 C134.31 1.31, 237.97 1.87, 322 0 M322 0 C344.25 0.3, 354.75 11.85, 354 32 M322 0 C342.9 2.26, 355.43 9.55, 354 32 M354 32 C354.17 49.65, 353.26 69.88, 354 111 M354 32 C354.93 59.95, 354.4 86.92, 354 111 M354 111 C353.24 133.12, 344.37 141.15, 322 143 M354 111 C354.98 132.86, 342 141.46, 322 143 M322 143 C258.09 144.24, 192.28 144.53, 32 143 M322 143 C259.52 144.09, 196.14 144.73, 32 143 M32 143 C10.2 141.83, -1.8 131.44, 0 111 M32 143 C11.46 142.49, 1.82 131.98, 0 111 M0 111 C2.01 84.46, 1.13 58.31, 0 32 M0 111 C-0.41 93.36, -0.24 77.17, 0 32 M0 32 C-1.48 10.16, 12.57 -0.83, 32 0 M0 32 C-0.32 8.88, 9.51 -0.7, 32 0" stroke="transparent" stroke-width="2" fill="none"></path></g><g stroke-linecap="round" transform="translate(172.10425531914882 10) rotate(0 137.29148936170213 137.29148936170213)"><path d="M85.08 10.88 C97.43 3.58, 114.71 1.56, 129.52 0.48 C144.33 -0.6, 159.82 0.57, 173.94 4.4 C188.05 8.23, 201.98 15.07, 214.19 23.46 C226.41 31.86, 238.17 42.85, 247.22 54.76 C256.28 66.67, 264.15 80.81, 268.54 94.92 C272.94 109.03, 273.85 124.56, 273.6 139.43 C273.36 154.3, 272.02 169.91, 267.05 184.13 C262.09 198.35, 253.32 213.04, 243.81 224.76 C234.29 236.47, 222.67 246.7, 209.95 254.42 C197.23 262.15, 181.99 268.01, 167.48 271.11 C152.97 274.21, 137.52 274.57, 122.89 273.01 C108.26 271.45, 93.04 267.68, 79.71 261.73 C66.39 255.78, 53.64 247.75, 42.96 237.32 C32.28 226.9, 22.58 212.61, 15.63 199.15 C8.68 185.7, 3.43 171.18, 1.25 156.59 C-0.93 141.99, -0.29 126.15, 2.57 111.57 C5.44 97, 11.07 82.09, 18.42 69.14 C25.77 56.18, 35.11 43.81, 46.68 33.85 C58.26 23.89, 80.6 13.23, 87.86 9.39 C95.13 5.54, 89.72 8.6, 90.27 10.76 M176.9 7.08 C190.61 9.06, 204.35 17.35, 216.36 26.13 C228.37 34.91, 240.13 47.58, 248.96 59.76 C257.79 71.93, 265.05 85.03, 269.35 99.19 C273.64 113.36, 275.68 130.15, 274.74 144.73 C273.8 159.31, 269.39 173.24, 263.7 186.69 C258.02 200.15, 249.89 213.99, 240.65 225.46 C231.4 236.93, 220.74 247.53, 208.25 255.5 C195.76 263.48, 180.61 270.36, 165.69 273.32 C150.77 276.29, 133.89 275.29, 118.73 273.3 C103.56 271.31, 87.73 268.16, 74.69 261.37 C61.65 254.58, 50.51 243.4, 40.48 232.56 C30.46 221.72, 21.3 209.46, 14.54 196.32 C7.78 183.18, 1.93 168.52, -0.08 153.72 C-2.08 138.92, -0.89 122.12, 2.51 107.51 C5.91 92.91, 12.73 78.61, 20.33 66.12 C27.93 53.64, 36.84 42.18, 48.11 32.61 C59.39 23.03, 73.78 14.32, 87.97 8.69 C102.16 3.06, 118.5 -0.63, 133.26 -1.17 C148.01 -1.71, 169.34 3.62, 176.5 5.47 C183.65 7.32, 176.61 7.62, 176.17 9.92" stroke="none" stroke-width="0" fill="#b2f2bb"></path><path d="M79.11 12.1 C91 3.93, 107.03 1.83, 121.85 0.51 C136.66 -0.8, 153.32 1.01, 167.99 4.21 C182.66 7.42, 197.4 12.12, 209.88 19.74 C222.36 27.35, 233.38 38.36, 242.86 49.9 C252.35 61.44, 261.37 74.95, 266.8 88.98 C272.23 103.01, 275.29 119.15, 275.44 134.08 C275.59 149.02, 272.15 164.33, 267.71 178.6 C263.27 192.87, 257.56 207.82, 248.79 219.71 C240.02 231.6, 227.39 241.79, 215.07 249.93 C202.75 258.07, 189.2 264.37, 174.88 268.57 C160.56 272.76, 143.98 275.8, 129.14 275.11 C114.3 274.42, 99.61 270.3, 85.85 264.43 C72.09 258.56, 57.73 249.59, 46.58 239.86 C35.43 230.14, 26.18 218.75, 18.95 206.08 C11.71 193.4, 6.21 178.41, 3.17 163.8 C0.13 149.18, -1.28 133.3, 0.71 118.4 C2.7 103.5, 8.41 87.81, 15.12 74.4 C21.84 61, 29.3 48.6, 41.01 37.96 C52.73 27.33, 76.91 15.07, 85.4 10.61 C93.9 6.14, 91.28 9.19, 92 11.15 M151.3 -0.71 C166 -1.31, 182.77 7.17, 196.47 13.9 C210.17 20.62, 223.13 29.41, 233.51 39.63 C243.89 49.84, 252.01 62.44, 258.72 75.19 C265.44 87.94, 271.48 101.53, 273.78 116.11 C276.09 130.69, 275.23 148.04, 272.57 162.66 C269.9 177.29, 265.3 190.89, 257.81 203.87 C250.31 216.85, 239.11 230.64, 227.59 240.54 C216.06 250.44, 202.32 257.47, 188.66 263.27 C175 269.07, 160.07 274.14, 145.62 275.34 C131.16 276.55, 116.04 274.8, 101.92 270.51 C87.79 266.23, 73.43 258.2, 60.89 249.63 C48.36 241.06, 35.96 230.67, 26.72 219.08 C17.47 207.49, 9.87 193.97, 5.41 180.08 C0.95 166.2, -0.56 150.91, -0.03 135.78 C0.51 120.65, 3.75 103.48, 8.63 89.31 C13.51 75.13, 20.04 62.27, 29.26 50.73 C38.49 39.19, 51.22 27.98, 64.01 20.07 C76.8 12.17, 91.62 6.39, 106 3.3 C120.39 0.2, 142.64 1.57, 150.32 1.51 C157.99 1.44, 152.05 0.52, 152.06 2.91" stroke="#2f9e44" stroke-width="2" fill="none"></path></g><g transform="translate(260.09725155399065 130.41174623484181) rotate(0 49.21875 16.80000000000001)"><text x="49.21875" y="27.0375" font-family="Cascadia, Segoe UI Emoji" font-size="28px" fill="#1e1e1e" text-anchor="middle" style="white-space: pre;" direction="ltr" dominant-baseline="alphabetic">Memory</text></g><g stroke-linecap="round" transform="translate(10 280.41702127659573) rotate(0 142.29148936170213 142.29148936170213)"><path d="M108.8 3.09 C121.87 -2.42, 139.35 -1.28, 153.89 -0.07 C168.43 1.14, 182.7 4.74, 196.05 10.35 C209.4 15.95, 222.71 23.93, 234.01 33.57 C245.32 43.22, 256.13 55.57, 263.87 68.23 C271.61 80.9, 276.99 95.48, 280.44 109.57 C283.89 123.65, 285.59 138.29, 284.55 152.75 C283.51 167.2, 279.69 182.83, 274.19 196.29 C268.69 209.74, 260.92 222.22, 251.55 233.46 C242.17 244.69, 230.43 255.94, 217.93 263.7 C205.43 271.46, 191 276.59, 176.52 280 C162.04 283.4, 145.74 285.16, 131.06 284.15 C116.38 283.14, 102.08 279.6, 88.46 273.93 C74.85 268.26, 60.66 259.54, 49.38 250.13 C38.1 240.73, 28.24 229.94, 20.78 217.48 C13.33 205.02, 8 189.52, 4.62 175.37 C1.25 161.22, -0.48 147.16, 0.52 132.58 C1.52 118, 4.94 101.55, 10.61 87.88 C16.28 74.22, 24.89 61.71, 34.53 50.59 C44.18 39.46, 55.27 29.14, 68.49 21.14 C81.71 13.14, 105.18 5.19, 113.86 2.58 C122.53 -0.02, 120.15 2.98, 120.55 5.5 M139.16 1.17 C153.4 -1.86, 170.39 0.29, 184.37 4.53 C198.35 8.77, 211.41 17.92, 223.06 26.6 C234.7 35.27, 245.47 45.29, 254.26 56.57 C263.06 67.86, 270.51 80.39, 275.8 94.32 C281.1 108.25, 285.4 125.08, 286.04 140.13 C286.68 155.18, 284.29 170.86, 279.63 184.61 C274.96 198.35, 266.64 210.85, 258.06 222.6 C249.47 234.36, 239.76 246.19, 228.11 255.12 C216.47 264.06, 202.12 271.43, 188.18 276.21 C174.24 280.98, 159.14 283.42, 144.46 283.76 C129.78 284.09, 113.79 282.48, 100.08 278.22 C86.37 273.96, 74.21 266.58, 62.2 258.18 C50.19 249.77, 37.23 239.3, 28.04 227.77 C18.85 216.25, 11.55 202.66, 7.06 189.05 C2.57 175.44, 1.33 160.91, 1.1 146.13 C0.88 131.35, 1.47 114.65, 5.7 100.36 C9.94 86.07, 18 72.4, 26.53 60.37 C35.07 48.34, 45.59 36.7, 56.93 28.18 C68.28 19.67, 80.69 14.17, 94.6 9.29 C108.52 4.4, 133.15 -0.24, 140.42 -1.13 C147.69 -2.03, 138.27 1.51, 138.22 3.93" stroke="none" stroke-width="0" fill="#ffd8a8"></path><path d="M90.37 9.46 C102.47 2.26, 118.05 0.61, 132.42 -0.1 C146.79 -0.81, 162.27 1.61, 176.58 5.18 C190.9 8.75, 205.71 13.57, 218.32 21.31 C230.93 29.06, 243.04 40.2, 252.25 51.65 C261.45 63.11, 268.38 76.64, 273.57 90.06 C278.75 103.48, 282.32 117.71, 283.37 132.16 C284.41 146.62, 283.17 162.26, 279.85 176.77 C276.52 191.28, 271.12 206.87, 263.41 219.22 C255.71 231.57, 245.19 241.67, 233.64 250.88 C222.08 260.09, 207.85 269.05, 194.08 274.48 C180.31 279.91, 165.35 282.34, 151.02 283.45 C136.69 284.57, 122.13 284.74, 108.1 281.17 C94.08 277.6, 79.32 270.15, 66.87 262.01 C54.43 253.86, 42.74 243.44, 33.42 232.32 C24.09 221.2, 16.42 208.73, 10.91 195.27 C5.4 181.81, 1.28 166.1, 0.34 151.56 C-0.6 137.02, 1.54 122.25, 5.27 108.04 C9 93.83, 14.9 78.77, 22.74 66.31 C30.58 53.85, 38.98 43.47, 52.31 33.29 C65.63 23.11, 91.71 10.09, 102.67 5.24 C113.64 0.39, 117.54 1.78, 118.11 4.18 M97.04 6.48 C109.71 0.39, 126.4 1.43, 141.13 1.26 C155.87 1.08, 171.31 1.37, 185.44 5.44 C199.56 9.52, 213.99 16.92, 225.9 25.71 C237.8 34.51, 248.51 46.46, 256.84 58.2 C265.18 69.95, 271.08 82.42, 275.9 96.21 C280.72 110.01, 285.42 126.08, 285.76 140.98 C286.09 155.88, 282.49 171.44, 277.89 185.6 C273.28 199.75, 266.59 214.1, 258.11 225.9 C249.64 237.7, 238.83 247.69, 227.04 256.41 C215.25 265.12, 201.53 273.31, 187.37 278.19 C173.21 283.06, 156.88 285.81, 142.09 285.68 C127.3 285.54, 112.15 282.09, 98.61 277.38 C85.07 272.67, 72.73 265.65, 60.84 257.41 C48.94 249.18, 36.22 239.6, 27.24 227.97 C18.27 216.34, 11.52 201.53, 7 187.62 C2.49 173.71, 0 159.19, 0.16 144.49 C0.33 129.8, 3.79 113.68, 7.98 99.44 C12.17 85.2, 17.1 70.99, 25.31 59.06 C33.52 47.12, 45.33 36.64, 57.21 27.83 C69.1 19.02, 89.8 9.03, 96.61 6.19 C103.43 3.34, 97.13 8.15, 98.1 10.74" stroke="#f08c00" stroke-width="2" fill="none"></path></g><g transform="translate(94.75433732890906 405.79323360550484) rotate(0 57.421875 16.80000000000001)"><text x="57.421875" y="27.0375" font-family="Cascadia, Segoe UI Emoji" font-size="28px" fill="#1e1e1e" text-anchor="middle" style="white-space: pre;" direction="ltr" dominant-baseline="alphabetic">Lexical</text></g><g stroke-linecap="round" transform="translate(317.8808510638297 280.29202127659573) rotate(0 142.29148936170213 142.29148936170213)"><path d="M125.82 0.43 C139.19 -3.26, 155.77 -0.31, 170.35 2.8 C184.94 5.9, 200.53 11.91, 213.33 19.07 C226.14 26.23, 237.3 35.09, 247.19 45.75 C257.08 56.4, 266.5 69.64, 272.68 83 C278.85 96.36, 282.82 111.1, 284.23 125.91 C285.65 140.71, 284.07 157.51, 281.17 171.84 C278.27 186.16, 274.1 199.13, 266.83 211.84 C259.56 224.55, 248.43 238.19, 237.53 248.11 C226.64 258.02, 214.82 265.33, 201.46 271.32 C188.09 277.3, 172.06 282.27, 157.34 284.02 C142.62 285.78, 127.26 284.75, 113.14 281.85 C99.03 278.95, 85.17 274.05, 72.64 266.63 C60.11 259.22, 48.04 248.3, 37.98 237.38 C27.93 226.46, 18.57 214.41, 12.3 201.12 C6.04 187.84, 1.86 172.15, 0.38 157.67 C-1.1 143.18, 0.5 128.5, 3.42 114.22 C6.34 99.93, 10.71 84.89, 17.92 71.97 C25.13 59.06, 35.68 46.48, 46.7 36.71 C57.72 26.94, 70.14 19.42, 84.04 13.37 C97.94 7.32, 122 2.24, 130.09 0.41 C138.19 -1.42, 132.63 0.02, 132.59 2.4 M151.85 -0.3 C165.73 -1.8, 182.08 3.87, 195.89 9.52 C209.7 15.16, 223.69 24.08, 234.71 33.58 C245.74 43.08, 254.54 53.97, 262.03 66.53 C269.52 79.08, 275.94 94.83, 279.66 108.92 C283.39 123.01, 285.07 136.57, 284.38 151.09 C283.69 165.61, 281.16 182.17, 275.52 196.03 C269.89 209.9, 260.07 222.99, 250.57 234.31 C241.07 245.64, 230.75 256.29, 218.52 263.99 C206.29 271.68, 191.55 277.09, 177.2 280.48 C162.84 283.88, 146.92 285.45, 132.39 284.37 C117.86 283.29, 103.55 279.72, 90 274.01 C76.45 268.3, 62.43 259.6, 51.09 250.13 C39.75 240.66, 29.93 229.6, 21.98 217.19 C14.03 204.79, 6.94 189.83, 3.38 175.69 C-0.18 161.54, -0.48 146.75, 0.61 132.32 C1.7 117.89, 4.69 102.75, 9.92 89.1 C15.15 75.46, 22.4 61.75, 31.99 50.44 C41.58 39.12, 55.02 28.79, 67.48 21.2 C79.95 13.6, 92.56 8.11, 106.78 4.87 C121.01 1.63, 145.22 2.05, 152.83 1.76 C160.43 1.47, 152.64 0.79, 152.41 3.15" stroke="none" stroke-width="0" fill="#d0bfff"></path><path d="M194.15 9.03 C207.97 12.11, 220.24 23.16, 231.45 32.49 C242.67 41.82, 253.36 52.72, 261.42 65.01 C269.49 77.29, 275.86 92.07, 279.84 106.2 C283.82 120.34, 286.21 135.33, 285.29 149.79 C284.36 164.25, 279.78 179.29, 274.31 192.96 C268.85 206.64, 261.66 220.52, 252.5 231.84 C243.34 243.16, 231.58 252.82, 219.34 260.88 C207.1 268.94, 193.07 276.2, 179.06 280.23 C165.05 284.25, 149.85 285.96, 135.27 285.02 C120.7 284.07, 105.44 279.83, 91.61 274.55 C77.77 269.27, 63.76 262.43, 52.27 253.34 C40.77 244.25, 30.7 232.21, 22.64 220 C14.58 207.78, 7.71 194.28, 3.89 180.05 C0.07 165.82, -1.15 149.46, -0.28 134.62 C0.6 119.77, 3.86 104.55, 9.16 90.99 C14.45 77.43, 22.12 64.62, 31.52 53.26 C40.91 41.91, 53.02 30.87, 65.51 22.86 C78 14.86, 92.44 8.95, 106.44 5.22 C120.44 1.48, 134.52 -0.6, 149.53 0.44 C164.53 1.48, 188.47 8.94, 196.49 11.45 C204.5 13.97, 198.48 13.38, 197.63 15.54 M104.78 5.08 C117.53 -0.95, 132.96 -1.65, 147.45 -0.87 C161.94 -0.1, 177.64 4.55, 191.72 9.73 C205.8 14.9, 220.36 20.88, 231.95 30.17 C243.55 39.45, 253.36 53.13, 261.28 65.42 C269.19 77.72, 275.39 89.94, 279.44 103.91 C283.49 117.89, 286 134.54, 285.59 149.27 C285.17 163.99, 282.31 178.69, 276.94 192.26 C271.56 205.83, 262.55 219.01, 253.35 230.69 C244.15 242.37, 234.06 253.98, 221.72 262.34 C209.37 270.69, 193.59 277.31, 179.26 280.81 C164.93 284.32, 150.03 284.24, 135.74 283.35 C121.44 282.46, 107.02 280.27, 93.5 275.48 C79.98 270.68, 66.55 263.77, 54.63 254.57 C42.71 245.37, 30.03 232.91, 21.98 220.27 C13.93 207.64, 9.9 192.99, 6.33 178.77 C2.77 164.56, 0.29 149.17, 0.58 134.99 C0.87 120.8, 2.83 107.09, 8.08 93.69 C13.33 80.28, 22.54 66.46, 32.08 54.56 C41.62 42.67, 53.38 30.62, 65.33 22.32 C77.28 14.02, 97.18 7.36, 103.77 4.77 C110.36 2.18, 104.19 4.61, 104.88 6.79" stroke="#9c36b5" stroke-width="2" fill="none"></path></g><g transform="translate(410.83831339273877 405.66823360550484) rotate(0 49.21875 16.80000000000001)"><text x="49.21875" y="27.0375" font-family="Cascadia, Segoe UI Emoji" font-size="28px" fill="#1e1e1e" text-anchor="middle" style="white-space: pre;" direction="ltr" dominant-baseline="alphabetic">Domain</text></g></svg>