<?xml version="1.0" encoding="UTF-8"?>
<svg width="3769px" height="1864px" viewBox="0 0 3769 1864" version="1.1" xmlns="http://www.w3.org/2000/svg" xmlns:xlink="http://www.w3.org/1999/xlink">
    <!-- Generator: Sketch 59.1 (86144) - https://sketch.com -->
    <title>graphrag</title>
    <desc>Created with Sketch.</desc>
    <g id="Page-1" stroke="none" stroke-width="1" fill="none" fill-rule="evenodd">
        <g id="graphrag">
            <rect id="Rectangle" fill="#FFFFFF" fill-rule="nonzero" x="0" y="0" width="3768.23823" height="1864"></rect>
            <g id="Group" transform="translate(18.000000, 51.333333)">
                <path d="M3.18,42.78 C16.68,26.86 32.7,11.14 38.6,2.02 M3.18,42.78 C17.64,27.96 27.74,13.14 38.6,2.02 M3.44,66.86 C14.68,51.58 33.56,36.4 59.86,1.96 M3.44,66.86 C16.02,52.84 26.62,37.28 59.86,1.96 M2.4,92.44 C34.34,59.54 61.94,24.9 79.82,3.4 M2.4,92.44 C21.6,73.66 38.68,51.18 79.82,3.4 M5.28,113.5 C38.96,72.42 72.2,34.76 101.08,3.32 M5.28,113.5 C38.48,78.4 69.24,38.78 101.08,3.32 M13.42,128.54 C34.94,105.36 59.96,78.44 122.34,3.26 M13.42,128.54 C55.1,84.62 94.58,36.32 122.34,3.26 M30.76,133 C57.9,105.28 87.42,67.92 143.6,3.18 M30.76,133 C64.28,95.08 99.52,55.58 143.6,3.18 M52.02,132.92 C92.48,82.76 138.4,36.82 164.86,3.12 M52.02,132.92 C84.8,95.66 115.56,57.7 164.86,3.12 M73.28,132.86 C97.94,103.9 127.98,69.54 186.12,3.04 M73.28,132.86 C98.94,104.5 120.2,76.48 186.12,3.04 M94.54,132.78 C133.88,82.9 176.74,35.98 207.38,2.98 M94.54,132.78 C124.2,99.46 155.62,62.78 207.38,2.98 M115.8,132.72 C156.78,88.84 197.16,35.4 228.64,2.9 M115.8,132.72 C143.24,97.3 172.72,64.02 228.64,2.9 M137.06,132.64 C163.56,103.56 191.86,65.94 249.9,2.84 M137.06,132.64 C169.82,94.02 204.16,53.64 249.9,2.84 M158.32,132.58 C190.96,89.36 228.9,53.32 269.84,4.28 M158.32,132.58 C186.48,100.64 214.36,69.16 269.84,4.28 M179.58,132.52 C204.86,98.82 231.12,67.94 291.1,4.22 M179.58,132.52 C217.36,91.32 252.66,48.14 291.1,4.22 M200.84,132.44 C234.92,94.02 267.74,56.14 312.36,4.14 M200.84,132.44 C237.42,88.54 278.98,42.94 312.36,4.14 M220.78,133.88 C258.32,86.96 299.28,46.58 333.62,4.08 M220.78,133.88 C264.34,80.9 308.12,34.36 333.62,4.08 M242.04,133.82 C263.38,103.52 291.7,73.94 354.88,4 M242.04,133.82 C279.3,91.36 319.9,45.94 354.88,4 M263.3,133.74 C292.1,102.08 318.34,69.98 376.14,3.94 M263.3,133.74 C292.4,96.64 325.22,61.3 376.14,3.94 M284.56,133.68 C321.5,90.36 349.38,54.54 397.4,3.86 M284.56,133.68 C323.28,89.72 361.2,44.86 397.4,3.86 M305.82,133.6 C330.94,102.98 353.46,82.26 418.66,3.8 M305.82,133.6 C340.68,96.54 374.98,54.88 418.66,3.8 M327.08,133.54 C367.32,85.9 412.94,32 438.62,5.24 M327.08,133.54 C359.04,97.94 390.36,61.96 438.62,5.24 M348.34,133.46 C375.86,108.98 396.18,79.22 455.94,9.7 M348.34,133.46 C382.66,95.86 416.22,56.12 455.94,9.7 M369.6,133.4 C396.62,99.52 428.06,68.06 464.08,24.72 M369.6,133.4 C391.34,106.56 416.1,79.84 464.08,24.72 M390.86,133.34 C407.24,115 429.88,92.66 465.66,47.3 M390.86,133.34 C413.84,110.32 433.8,85.88 465.66,47.3 M410.82,134.78 C430.62,118.86 443.4,93.48 465.92,71.38 M410.82,134.78 C428.96,113.12 446.28,92.92 465.92,71.38 M432.08,134.7 C446.18,117.66 460.56,108.4 464.88,96.96 M432.08,134.7 C443.58,123.26 452.54,110.46 464.88,96.96" id="Shape" stroke="#B2F2BB" stroke-width="2"></path>
                <path d="M35,2 C150.22,1.42 267.38,-0.1 433,2 M35,2 C149.82,2.88 269,2.32 433,2 M433,2 C458.3,-1.64 462.38,12.24 466,35 M433,2 C456.68,2.38 464.42,12.94 466,35 M466,35 C461.96,53.82 469.22,75.5 466,101 M466,35 C465.9,57.66 465.44,84.94 466,101 M466,101 C464.26,124.98 452.46,131.38 433,134 M466,101 C466.88,124.44 456.72,134.32 433,134 M433,134 C279.16,137.42 121.58,135.86 35,134 M433,134 C283.68,133.8 134.2,134.9 35,134 M35,134 C11.78,136.14 2.36,124.96 2,101 M35,134 C15.82,131.1 -2.46,126.6 2,101 M2,101 C-2.2,85.3 5.08,73.74 2,35 M2,101 C0.96,77.8 0.6,58.52 2,35 M2,35 C5.88,12.4 14.1,3.72 35,2 M2,35 C4.6,11.88 14.04,0.72 35,2" id="Shape" stroke="#1E1E1E" stroke-width="4"></path>
            </g>
            <g id="Group" transform="translate(106.250000, 75.133333)" fill="#1E1E1E" font-family="Helvetica" font-size="72" font-weight="normal">
                <text id="Question">
                    <tspan x="0.75" y="69.525">Question</tspan>
                </text>
            </g>
            <g id="Group" transform="translate(19.000000, 543.000000)">
                <path d="M10.06,32.72 C23.64,20.72 32.04,8.86 36.3,2.52 M10.06,32.72 C16.6,24.48 24.94,15.62 36.3,2.52 M9,58.3 C27.72,36.8 41.64,20.38 57.56,2.46 M9,58.3 C25.46,38.7 46.62,15.5 57.56,2.46 M9.28,82.4 C35.12,50.22 54.98,24.66 78.82,2.4 M9.28,82.4 C24.6,64.54 42.54,44.16 78.82,2.4 M5.6,111 C40.18,66.34 78.54,23.68 98.76,3.84 M5.6,111 C36.92,72.96 73.22,31.84 98.76,3.84 M12.42,127.54 C49.76,88.86 80.48,45.44 120.02,3.76 M12.42,127.54 C35,101.42 60.04,73.34 120.02,3.76 M25.82,136.52 C70.6,84.16 115.38,33.7 141.28,3.7 M25.82,136.52 C61.88,93.62 102.14,48.3 141.28,3.7 M47.08,136.46 C68.68,110.7 92.82,81.56 162.54,3.62 M47.08,136.46 C87.98,89 128.14,40 162.54,3.62 M68.34,136.38 C110.7,89.86 155.76,40.22 183.8,3.56 M68.34,136.38 C106.34,96.4 143.38,54.82 183.8,3.56 M89.6,136.32 C129.5,95.92 166.3,47.7 205.06,3.48 M89.6,136.32 C133.16,90.32 176.22,42.98 205.06,3.48 M110.86,136.24 C154.6,84.06 199.34,29.28 226.32,3.42 M110.86,136.24 C137.48,106.82 162.44,78.58 226.32,3.42 M130.8,137.68 C174.92,84.94 214.4,35.4 247.58,3.34 M130.8,137.68 C158.48,106.5 183.62,74.84 247.58,3.34 M152.06,137.62 C184.14,103.26 213.8,63.76 268.84,3.28 M152.06,137.62 C187.36,99.32 218.78,61.58 268.84,3.28 M173.32,137.54 C195.78,108.82 223.2,76.88 288.8,4.72 M173.32,137.54 C213.62,92.34 251.24,43.74 288.8,4.72 M194.58,137.48 C239.6,88.76 277.2,43.18 310.06,4.66 M194.58,137.48 C238.98,85.86 285.44,35.28 310.06,4.66 M215.84,137.42 C256.46,95.08 294.04,47.68 331.32,4.58 M215.84,137.42 C244.2,107.4 270.1,75.62 331.32,4.58 M237.1,137.34 C280.36,87.48 323.24,38.64 352.58,4.52 M237.1,137.34 C277.62,88.48 318.58,40.84 352.58,4.52 M258.36,137.28 C290.14,96 324.54,60.06 373.84,4.44 M258.36,137.28 C296.78,89.42 339.04,42.82 373.84,4.44 M279.62,137.2 C306.6,101.34 339.22,66.66 395.1,4.38 M279.62,137.2 C310.16,101.06 339.82,63.44 395.1,4.38 M300.88,137.14 C345.02,83.9 390.56,32.04 416.36,4.3 M300.88,137.14 C334.92,98.32 370.64,58.68 416.36,4.3 M320.84,138.58 C344.32,111.94 373.76,76.96 437.62,4.24 M320.84,138.58 C360.66,92.28 398.58,45.78 437.62,4.24 M342.1,138.5 C379.52,98.08 420.52,46.72 453.62,10.2 M342.1,138.5 C369.16,105.2 397.28,72.78 453.62,10.2 M363.36,138.44 C392.42,109.38 420.02,74.64 467.02,19.2 M363.36,138.44 C387.26,107.68 414.66,81.42 467.02,19.2 M384.62,138.36 C416.94,96.6 451.32,55.4 475.14,34.22 M384.62,138.36 C413.06,108.12 435.9,78.36 475.14,34.22 M405.88,138.3 C421.16,120.76 442.1,97.74 474.1,59.8 M405.88,138.3 C432.6,107.44 455.78,78.82 474.1,59.8 M427.14,138.24 C436.92,127.48 443.2,114.36 473.06,85.4 M427.14,138.24 C438.82,124.8 451.16,110.32 473.06,85.4" id="Shape" stroke="#D0BFFF" stroke-width="2"></path>
                <path d="M34,1 C155.42,4.1 282.16,4.96 432,1 M34,1 C134.18,3.84 234.66,2.66 432,1 M432,1 C450.48,1.34 468.16,12.6 465,34 M432,1 C450.9,3.22 469.54,13.6 465,34 M465,34 C466.96,54.6 466.76,68.14 465,100 M465,34 C464.48,58.58 465.3,85.18 465,100 M465,100 C468.7,124.46 454.28,131.48 432,133 M465,100 C469.4,124.92 456.28,131.24 432,133 M432,133 C305.28,131.46 177.48,136.36 34,133 M432,133 C324.68,137.6 218.7,136.42 34,133 M34,133 C10.22,132.78 1.04,122.3 1,100 M34,133 C12.02,130.6 -1.5,121.9 1,100 M1,100 C1.6,70.52 1.78,44.32 1,34 M1,100 C1.38,78.94 1.58,60.06 1,34 M1,34 C4.44,15.32 14.22,-0.36 34,1 M1,34 C-2.24,13.22 9.02,3.28 34,1" id="Shape" stroke="#1E1E1E" stroke-width="4"></path>
            </g>
            <g id="Group" transform="translate(116.343750, 565.800000)" fill="#1E1E1E" font-family="Helvetica" font-size="72" font-weight="normal">
                <text id="Encoder">
                    <tspan x="0.65625" y="69.525">Encoder</tspan>
                </text>
            </g>
            <g id="Group" transform="translate(241.000000, 206.000000)" stroke="#1E1E1E" stroke-width="9">
                <g transform="translate(12.443038, 0.333333)" id="Path" stroke-dasharray="16">
                    <path d="M0.24,0.58 C1.02,55.88 6.08,275.42 6.8,330.5"></path>
                </g>
                <g transform="translate(0.443038, 283.333333)" id="Path">
                    <path d="M0.82,0.84 C8.88,17.4 13.14,28.1 18.8,47.5"></path>
                </g>
                <g transform="translate(18.443038, 283.333333)" id="Path">
                    <path d="M17.02,0.2 C14.62,16.72 8.4,27.6 0.8,47.5"></path>
                </g>
            </g>
            <g id="Group" transform="translate(2570.666667, 18.000000)">
                <path d="M5.86,57.5 C19.5,40.68 31.28,34.16 51.8,4.66 M5.86,57.5 C16.22,43.56 29.46,32.62 51.8,4.66 M4.82,83.08 C16.92,65.62 38.46,50.82 75.68,1.58 M4.82,83.08 C22.46,59.08 42.14,37.76 75.68,1.58 M5.08,107.16 C39.02,74.52 66.3,37.58 96.94,1.5 M5.08,107.16 C37.2,67.48 71.28,30.54 96.94,1.5 M5.36,131.24 C35.2,94.3 61.24,64.86 118.2,1.44 M5.36,131.24 C43.28,87.22 81.1,41.8 118.2,1.44 M5.62,155.34 C47.38,107.3 85.52,63.76 138.14,2.88 M5.62,155.34 C35.98,118.78 66.44,83.84 138.14,2.88 M4.58,180.92 C47.08,139.84 84.42,89.96 159.4,2.82 M4.58,180.92 C68.5,112.24 129.54,39.46 159.4,2.82 M4.84,205 C54.1,150.86 101.7,93.26 180.66,2.74 M4.84,205 C48.28,156.4 89.68,107.48 180.66,2.74 M5.1,229.08 C53.92,174.88 91.38,123.4 201.92,2.68 M5.1,229.08 C47.18,179.94 88.36,132.56 201.92,2.68 M5.38,253.16 C68.98,172.5 136.96,103.52 223.18,2.6 M5.38,253.16 C56.62,193.46 110.6,134.94 223.18,2.6 M4.32,278.76 C67.02,214.44 123.76,138.36 244.44,2.54 M4.32,278.76 C95.76,172.1 184.2,68.52 244.44,2.54 M4.6,302.84 C63.24,240.6 115.94,172.26 265.7,2.46 M4.6,302.84 C68.92,230.06 133.1,154.42 265.7,2.46 M4.86,326.92 C95.78,225.36 193.14,120.04 286.96,2.4 M4.86,326.92 C65.48,253.08 127.38,183.22 286.96,2.4 M5.12,351 C95.48,245.58 189.78,134.24 308.22,2.32 M5.12,351 C114.56,225 220.46,102.94 308.22,2.32 M4.08,376.6 C108.92,261.06 205.48,144.54 329.48,2.26 M4.08,376.6 C99.68,262.62 197.02,152.48 329.48,2.26 M4.34,400.68 C118.28,266.22 237.78,137.08 350.74,2.18 M4.34,400.68 C89.74,304.22 175.28,203.56 350.74,2.18 M4.62,424.76 C79.1,338.94 155,250.7 372,2.12 M4.62,424.76 C113.5,302.48 221.12,179.42 372,2.12 M4.88,448.84 C104.28,336.58 206.08,225.32 393.26,2.06 M4.88,448.84 C119.06,312.36 235.72,177.72 393.26,2.06 M3.84,474.44 C111.64,353.88 217.64,234.08 413.22,3.5 M3.84,474.44 C135.72,326.98 267.12,177.78 413.22,3.5 M4.1,498.52 C142.44,339.28 279.82,177.84 431.86,6.44 M4.1,498.52 C111.28,374.78 215.36,254.02 431.86,6.44 M4.36,522.6 C119.28,390.34 231.7,264.3 445.24,15.42 M4.36,522.6 C103.88,412.44 199.38,299.38 445.24,15.42 M4.64,546.68 C100.82,441.3 191.42,335.06 457.32,25.92 M4.64,546.68 C140.5,388.66 280.36,227.92 457.32,25.92 M4.9,570.76 C112.74,445.66 222.68,321.64 464.14,42.46 M4.9,570.76 C131.3,428.04 259.52,281.7 464.14,42.46 M3.86,596.34 C107.46,471.04 215.84,348.36 468.34,62.02 M3.86,596.34 C134.36,441.78 268.48,287.72 468.34,62.02 M8.06,615.9 C182.22,412.3 362.32,209.04 467.3,87.6 M8.06,615.9 C136.04,462.82 267.84,311.52 467.3,87.6 M16.2,630.92 C169.92,452.16 326.36,273.68 467.56,111.68 M16.2,630.92 C139.9,492.56 259.5,352.16 467.56,111.68 M26.96,642.94 C171.12,480.28 311.74,313.14 467.84,135.76 M26.96,642.94 C149.76,497.72 274.3,355.14 467.84,135.76 M42.98,648.9 C203.82,460.64 372.32,263.38 466.78,161.36 M42.98,648.9 C172.32,495.96 303.68,347.86 466.78,161.36 M61.6,651.86 C152.76,544.78 246.96,439.4 467.06,185.44 M61.6,651.86 C157.88,540.98 254.14,433.82 467.06,185.44 M81.56,653.3 C163.88,563.5 237.94,473.6 467.32,209.52 M81.56,653.3 C217.18,498.12 349.38,343.66 467.32,209.52 M102.82,653.22 C221.06,522.68 332.52,385.98 467.58,233.6 M102.82,653.22 C222.26,515.94 340.48,379.44 467.58,233.6 M124.08,653.16 C230.06,535.62 329.3,414.48 467.86,257.68 M124.08,653.16 C231.58,531.66 337.28,410.04 467.86,257.68 M145.34,653.08 C257.1,522.66 368.32,391.8 466.8,283.28 M145.34,653.08 C235.44,547.94 327.08,441.18 466.8,283.28 M166.6,653.02 C225.86,578.48 295.6,507.58 467.08,307.36 M166.6,653.02 C285.68,520.76 403.34,386.74 467.08,307.36 M187.86,652.94 C280.98,547.8 373.7,433.16 467.34,331.44 M187.86,652.94 C260.28,567.3 336.54,482.02 467.34,331.44 M209.12,652.88 C300.06,544.42 389.44,439.8 467.6,355.52 M209.12,652.88 C302.94,539.82 399.14,431.34 467.6,355.52 M230.38,652.8 C280,589.92 340.44,524.9 467.86,379.6 M230.38,652.8 C312.72,556.02 395.44,461.02 467.86,379.6 M251.64,652.74 C328.4,568.42 400.9,481.32 466.82,405.2 M251.64,652.74 C317.76,578.16 381.96,502.76 466.82,405.2 M272.9,652.68 C321.54,606 359.66,553.82 467.08,429.28 M272.9,652.68 C318.94,598.7 367.76,543.02 467.08,429.28 M294.16,652.6 C339.54,601.22 393.4,542.16 467.36,453.36 M294.16,652.6 C336.82,604.84 381.08,554.5 467.36,453.36 M315.42,652.54 C357.44,603.98 400.68,559 467.62,477.44 M315.42,652.54 C374.68,584.48 432.52,517.14 467.62,477.44 M336.68,652.46 C372.08,609.32 412.7,569.3 467.88,501.52 M336.68,652.46 C376.84,605.58 417.16,562.72 467.88,501.52 M356.62,653.9 C398.18,606.02 435.36,560.96 466.84,527.12 M356.62,653.9 C384.08,621.1 413.28,590.1 466.84,527.12 M377.88,653.84 C411.98,621.08 435.54,583.92 467.1,551.2 M377.88,653.84 C411.74,614.44 444.04,577.96 467.1,551.2 M399.14,653.76 C412.48,637.82 428.4,615.4 467.38,575.28 M399.14,653.76 C417.24,631.7 435.3,613.28 467.38,575.28 M424.34,649.16 C433.38,638.8 441.84,623.8 466.32,600.86 M424.34,649.16 C436.14,638.08 445.32,624.66 466.32,600.86 M61.58,651 C44.46,641.38 35.26,624.28 5.74,602.46 M61.58,651 C40.52,634.94 23.2,617.48 5.74,602.46 M85.68,650.74 C61.68,629.38 36.36,604.1 4.16,579.88 M85.68,650.74 C55.12,625.4 25.08,600.64 4.16,579.88 M109.76,650.46 C91.66,634.82 69.56,611.66 4.1,558.62 M109.76,650.46 C69.54,611.7 27,577.86 4.1,558.62 M135.34,651.52 C97.94,618.98 60.68,585.88 4.02,537.36 M135.34,651.52 C103.94,626 71.88,596.9 4.02,537.36 M159.42,651.24 C105.7,607.66 51.78,558.84 3.96,516.1 M159.42,651.24 C102.68,597.74 40.92,547.08 3.96,516.1 M183.5,650.98 C137.72,613.36 84.82,565.26 3.88,494.84 M183.5,650.98 C123.82,600.86 66.62,550.6 3.88,494.84 M207.58,650.72 C148.26,592.56 81.14,543.74 3.82,473.58 M207.58,650.72 C153.1,602.4 96.96,554.14 3.82,473.58 M231.68,650.44 C175.34,594.08 115.98,543.04 3.74,452.32 M231.68,650.44 C169.28,599.88 108.76,544.36 3.74,452.32 M257.26,651.5 C185.24,590.26 118.8,532.34 3.68,431.06 M257.26,651.5 C178.48,582.08 95.96,514.52 3.68,431.06 M281.34,651.22 C177.6,554.82 73.5,465.32 3.62,409.8 M281.34,651.22 C200.58,583.1 122.48,518.58 3.62,409.8 M305.42,650.96 C231.56,589.22 157.4,521.14 3.54,388.54 M305.42,650.96 C187.56,550.58 72.7,448.54 3.54,388.54 M329.5,650.7 C242.22,579.68 157.08,503.6 3.48,367.28 M329.5,650.7 C204.2,545.66 77.8,436.5 3.48,367.28 M355.1,651.74 C246.24,552.38 135.14,462.5 3.4,346.02 M355.1,651.74 C283.48,591.22 210.1,524.76 3.4,346.02 M379.18,651.48 C270.9,552.18 162.7,453.88 3.34,324.76 M379.18,651.48 C245.66,534.8 113.74,418.9 3.34,324.76 M403.26,651.2 C293.74,558.68 181.28,467.46 4.78,304.8 M403.26,651.2 C272.76,536.1 140.02,419.12 4.78,304.8 M424.32,648.32 C268.1,512.2 112.2,374.66 4.7,283.54 M424.32,648.32 C329.9,562.28 231.38,476.96 4.7,283.54 M442.36,642.8 C283.5,508.56 121.3,366.28 4.64,262.28 M442.36,642.8 C271.4,494.46 98.62,342.7 4.64,262.28 M452.86,630.72 C297.56,495.46 144.48,358.08 4.56,241.02 M452.86,630.72 C283.58,481.62 112.14,333 4.56,241.02 M463.36,618.66 C306.82,479.32 149.48,341.98 4.5,219.76 M463.36,618.66 C360.12,524.5 253.4,431.16 4.5,219.76 M464.8,598.7 C297.06,452.14 126.54,302.14 4.44,198.5 M464.8,598.7 C362.6,507.32 260.16,418.44 4.44,198.5 M467.76,580.06 C370.74,495.16 270.36,409.14 4.36,177.24 M467.76,580.06 C299.1,432.4 132.42,287.58 4.36,177.24 M467.68,558.8 C306.06,422.48 145.22,280.42 4.3,155.98 M467.68,558.8 C314.76,429.86 167.22,301.24 4.3,155.98 M467.62,537.54 C334.16,423.34 199.28,303.6 4.22,134.72 M467.62,537.54 C319.32,409.52 170.4,281.5 4.22,134.72 M467.54,516.28 C331.88,404.76 201.04,289.68 4.16,113.46 M467.54,516.28 C336.72,403.12 205.28,288.86 4.16,113.46 M467.48,495.02 C320.2,364.5 169.92,233.9 4.08,92.2 M467.48,495.02 C322.44,368.06 177.66,242.08 4.08,92.2 M467.4,473.76 C294.92,326.22 123.92,173.9 4.02,70.94 M467.4,473.76 C347.46,366.94 228.36,262.74 4.02,70.94 M467.34,452.5 C283.16,295.52 94.56,137.56 3.94,49.68 M467.34,452.5 C297.42,305.94 125.3,158.24 3.94,49.68 M467.28,431.24 C354.88,327.98 236.7,233.1 9.92,33.68 M467.28,431.24 C353.72,329.58 238.44,227.6 9.92,33.68 M467.2,409.98 C362.54,320.22 261.6,232.62 18.9,20.28 M467.2,409.98 C296.54,265.84 128.66,115.74 18.9,20.28 M467.14,388.72 C301.54,249.18 146.18,110.42 32.42,10.84 M467.14,388.72 C379.72,313.38 289.4,234.92 32.42,10.84 M467.06,367.46 C361.56,279.42 258.12,185.06 48.96,4 M467.06,367.46 C358.98,273.48 249.9,178.02 48.96,4 M467,346.2 C367.98,264.2 268.9,176.12 70.02,1.12 M467,346.2 C344.56,238.94 223.38,131.44 70.02,1.12 M466.92,324.94 C342.08,217.76 216.26,108.3 95.6,2.16 M466.92,324.94 C388.04,254.98 312.18,185.82 95.6,2.16 M466.86,303.68 C332.64,187.94 201.38,74.76 119.68,1.9 M466.86,303.68 C364.16,214.4 260.04,123.84 119.68,1.9 M466.78,282.42 C370.26,201.48 281.48,116.64 143.78,1.64 M466.78,282.42 C394.96,220.2 322.22,155.82 143.78,1.64 M466.72,261.16 C366.22,173.32 257.34,80.76 167.86,1.36 M466.72,261.16 C363.58,175.3 259.08,83.92 167.86,1.36 M466.64,239.9 C369.7,158.5 273.62,73 191.94,1.1 M466.64,239.9 C361.26,145.76 256.64,52.6 191.94,1.1 M466.58,218.64 C392.16,154.4 316,86.1 217.52,2.14 M466.58,218.64 C367.98,135.04 271.46,50.56 217.52,2.14 M468.02,198.7 C407.84,152.82 348.06,96.86 241.6,1.88 M468.02,198.7 C380.18,121.1 289.02,44.48 241.6,1.88 M467.96,177.44 C412.4,125.28 346.7,68.54 265.68,1.62 M467.96,177.44 C389.42,107.06 308.3,37.98 265.68,1.62 M467.88,156.18 C425.94,128.52 388.78,89.68 289.78,1.34 M467.88,156.18 C431.22,125.08 389.78,88.82 289.78,1.34 M467.82,134.92 C420.16,87.54 368.9,42.36 313.86,1.08 M467.82,134.92 C425.1,96.76 385.36,61.08 313.86,1.08 M467.74,113.66 C429.66,81.54 387.44,39.38 339.44,2.12 M467.74,113.66 C439.48,87.38 409.48,61.62 339.44,2.12 M467.68,92.4 C439.2,61.5 405.36,39.32 363.52,1.86 M467.68,92.4 C427.94,56.72 386.16,20.46 363.52,1.86 M467.6,71.14 C441.08,42.5 409.98,23.5 387.6,1.6 M467.6,71.14 C440.3,48.2 414.86,26.54 387.6,1.6 M464.52,47.26 C449.48,32.22 435.54,24.4 414.7,3.96 M464.52,47.26 C452,34.54 439.38,26.16 414.7,3.96" id="Shape" stroke="#FFC9C9" stroke-width="2"></path>
                <path d="M67,2 C197.7,7.38 324.08,8.24 403,2 M67,2 C189.24,-1.14 306.58,0.48 403,2 M403,2 C441.68,0.32 463.44,19.86 467,66 M403,2 C449.74,4.5 468.28,20.86 467,66 M467,66 C466.24,223.34 466.48,385.58 467,588 M467,66 C466.54,177.24 466.54,288.42 467,588 M467,588 C468,628.08 448.34,651.46 403,652 M467,588 C466.28,630.26 442.02,654.42 403,652 M403,652 C319.84,647.4 239.34,649.24 67,652 M403,652 C271.7,654.36 138.12,655.78 67,652 M67,652 C26.54,650 4.16,633.62 3,588 M67,652 C28.94,653.62 1.82,626.66 3,588 M3,588 C2.78,412.2 -2.1,237.06 3,66 M3,588 C4.6,476.12 2.42,365.54 3,66 M3,66 C4.62,26.7 25.9,-0.3 67,2 M3,66 C0.22,19.54 21,1.92 67,1.99972894" id="Shape" stroke="#1E1E1E" stroke-width="4"></path>
            </g>
            <g id="Group" transform="translate(2734.385417, 300.800000)" fill="#1E1E1E" font-family="Helvetica" font-size="72" font-weight="normal">
                <text id="LLM">
                    <tspan x="0.28125" y="69.525">LLM</tspan>
                </text>
            </g>
            <g id="Group" transform="translate(1744.190204, 223.666667)">
                <path d="M2.36,51.88 C16.54,34.46 31.4,17.32 44.36,3.58 M2.36,51.88 C13.26,39.68 23.8,29.3 44.36,3.58 M1.32,77.48 C24.12,56.54 37.16,30.38 65.62,3.52 M1.32,77.48 C17.38,59.78 32.06,46.26 65.62,3.52 M1.58,101.56 C22.74,82.7 40.26,58.28 86.88,3.44 M1.58,101.56 C22.94,74.48 46.02,47.9 86.88,3.44 M1.86,125.64 C39.26,87.28 64.64,52.56 108.14,3.38 M1.86,125.64 C31.4,89.24 62.04,55.5 108.14,3.38 M2.12,149.72 C42.7,98.9 89.7,48.92 129.4,3.32 M2.12,149.72 C51.48,91.46 102.96,35.2 129.4,3.32 M6.32,169.28 C35.7,134.2 70.14,96.48 150.66,3.24 M6.32,169.28 C49.44,120.76 89.22,74.54 150.66,3.24 M13.14,185.82 C52.86,142.3 92.72,96.56 171.92,3.18 M13.14,185.82 C59.1,133.18 104.94,81.94 171.92,3.18 M27.84,193.3 C77.1,130.4 135.04,73.28 193.18,3.1 M27.84,193.3 C79.4,131.18 135.1,69.04 193.18,3.1 M45.18,197.76 C78.66,150.52 122.32,111.8 214.44,3.04 M45.18,197.76 C77.64,158.24 110.7,119.38 214.44,3.04 M66.44,197.68 C129.36,118.52 194.66,46.48 235.7,2.96 M66.44,197.68 C121.68,127.62 182.62,60.22 235.7,2.96 M87.7,197.62 C122.48,155.92 154.48,115.84 256.96,2.9 M87.7,197.62 C138.38,142.2 187.4,85.5 256.96,2.9 M108.96,197.54 C173.3,122.24 229.94,50.18 278.22,2.82 M108.96,197.54 C147.1,154.18 184.02,108.56 278.22,2.82 M130.22,197.48 C169.68,155.68 212.08,108.24 299.48,2.76 M130.22,197.48 C177.72,140.72 227.34,85.34 299.48,2.76 M151.48,197.4 C201.66,143.28 252.94,83.44 320.74,2.7 M151.48,197.4 C201.9,140.16 253.3,82.2 320.74,2.7 M172.74,197.34 C241.42,123.38 306.18,40.06 342,2.62 M172.74,197.34 C213.72,152.7 256.56,104.06 342,2.62 M194,197.26 C260.06,122.44 323.24,53.32 361.94,4.06 M194,197.26 C233.08,150.94 273.74,105.78 361.94,4.06 M215.26,197.2 C267.9,138.76 314.92,78.66 383.2,4 M215.26,197.2 C278.6,124.22 344.68,47.64 383.2,4 M236.52,197.12 C285.42,142.52 335.36,78.38 404.46,3.92 M236.52,197.12 C294.46,126.42 358.58,58.84 404.46,3.92 M257.78,197.06 C323.68,116.76 392.38,41.66 425.72,3.86 M257.78,197.06 C299.58,146.62 343.84,97.54 425.72,3.86 M277.72,198.5 C329.92,135.84 385.66,73.46 446.98,3.78 M277.72,198.5 C336.62,129.34 395.9,62.24 446.98,3.78 M298.98,198.44 C338.68,151.76 373.58,114.78 465.62,6.74 M298.98,198.44 C361.5,128.76 422.52,57.06 465.62,6.74 M320.24,198.36 C356.88,163.46 389.06,124.46 479,15.72 M320.24,198.36 C366.06,144.38 413.46,92.48 479,15.72 M341.5,198.3 C374.26,159.68 407.68,126.16 488.46,29.24 M341.5,198.3 C396.92,140.22 448.78,77.98 488.46,29.24 M362.76,198.22 C399.52,158.62 433.36,119.8 491.36,50.3 M362.76,198.22 C396.26,157.86 428.88,117.7 491.36,50.3 M384.02,198.16 C412.8,162.76 443.06,128 491.62,74.38 M384.02,198.16 C407.88,168.88 432.66,141.92 491.62,74.38 M405.28,198.08 C430.98,163.34 460.5,131.06 491.88,98.46 M405.28,198.08 C436,161.02 470.08,123.66 491.88,98.46 M426.54,198.02 C451.74,165.74 480.88,140.08 492.14,122.54 M426.54,198.02 C447.76,176.08 467.84,151 492.14,122.54 M450.42,194.94 C462.74,179.6 476.16,159.12 492.42,146.62 M450.42,194.94 C457.82,184.28 470.6,171.34 492.42,146.62" id="Shape" stroke="#A5D8FF" stroke-width="2"></path>
                <path d="M49.5,3 C207.3,-1.54 361.28,0.58 442.98,3 M49.5,3 C176.16,3.24 302.46,3.9 442.98,3 M442.98,3 C474.06,6.44 492.82,21.9 491.48,51.5 M442.98,3 C478.96,1.9 492.3,21.78 491.48,51.5 M491.48,51.5 C489.76,79.5 489.9,108.98 491.48,148.5 M491.48,51.5 C492.7,88.98 492.6,122.5 491.48,148.5 M491.48,148.5 C487.82,183.34 477.92,199.68 442.98,197 M491.48,148.5 C493.14,185.18 473.46,192.44 442.98,197 M442.98,197 C352.5,198 262.32,192.52 49.5,197 M442.98,197 C298,192.58 154.86,192.96 49.5,197 M49.5,197 C13.4,194.06 3.78,180.68 1,148.5 M49.5,197 C15.32,194.78 9.28424004e-14,179.58 1,148.5 M1,148.5 C-1.26,114.42 4.54,71.44 1,51.5 M1,148.5 C-1.48,111.66 2.14,76.46 1,51.5 M1,51.5 C-2.78,15.66 19.72,1.66 49.5,3 M1,51.5 C1.9,14.86 15.84,0.7 49.5,3" id="Shape" stroke="#1E1E1E" stroke-width="4"></path>
            </g>
            <g id="Group" transform="translate(1823.397186, 279.466667)" fill="#1E1E1E" font-family="Helvetica" font-size="72" font-weight="normal">
                <text id="Instruction">
                    <tspan x="0.03125" y="69.525">Instruction</tspan>
                </text>
            </g>
            <g id="Group" transform="translate(796.666667, 503.333333)">
                <path d="M2.36,50.88 C14.86,37.54 33.04,23.1 44.36,2.58 M2.36,50.88 C15.26,36.04 25.88,26.98 44.36,2.58 M1.32,76.48 C20.64,55.98 32.18,39.1 65.62,2.52 M1.32,76.48 C24.6,51.74 48.94,25.82 65.62,2.52 M1.58,100.56 C24.88,75.08 51.38,43.14 86.88,2.44 M1.58,100.56 C24.06,77.26 44.46,56.02 86.88,2.44 M1.86,124.64 C42.86,84.54 81.6,36.32 108.14,2.38 M1.86,124.64 C33.1,86.04 66.48,48.86 108.14,2.38 M2.12,148.72 C48.42,91.5 96.78,44.42 129.4,2.32 M2.12,148.72 C51.26,92.32 101.78,34.96 129.4,2.32 M6.32,168.28 C55.04,113.4 103.44,59.4 150.66,2.24 M6.32,168.28 C58.46,108.48 111.2,47.62 150.66,2.24 M13.14,184.82 C54.5,129.24 104.48,77.82 171.92,2.18 M13.14,184.82 C60.94,123.1 112.5,65.9 171.92,2.18 M27.84,192.3 C71.46,140.84 111.68,93.12 193.18,2.1 M27.84,192.3 C76.36,134.32 123.72,80.3 193.18,2.1 M45.18,196.76 C101.86,124.98 161.74,63.42 214.44,2.04 M45.18,196.76 C105.54,128 163.66,58.34 214.44,2.04 M66.44,196.68 C123.68,137.12 174.7,67.22 235.7,1.96 M66.44,196.68 C117.66,135.42 168.3,76.18 235.7,1.96 M87.7,196.62 C140.8,134.36 192.96,73.04 256.96,1.9 M87.7,196.62 C133.08,142.34 179.1,91.56 256.96,1.9 M108.96,196.54 C172.14,124.26 237.9,47.8 278.22,1.82 M108.96,196.54 C159.64,137.38 210.28,81.98 278.22,1.82 M130.22,196.48 C194.12,126.1 253.98,55.28 299.48,1.76 M130.22,196.48 C197.58,122.94 258.96,46.86 299.48,1.76 M151.48,196.4 C208.9,123.6 269.9,58 320.74,1.7 M151.48,196.4 C206.94,133.04 263.98,69.7 320.74,1.7 M172.74,196.34 C224.22,131.14 281.06,64.94 342,1.62 M172.74,196.34 C217.46,142.96 265.52,87.56 342,1.62 M194,196.26 C244.02,139.04 291,85.3 361.94,3.06 M194,196.26 C227.62,156.08 263.26,116.2 361.94,3.06 M215.26,196.2 C251.18,155.16 288.2,114.86 383.2,3 M215.26,196.2 C261.76,139.64 310.58,87.52 383.2,3 M236.52,196.12 C272.04,152.72 319.08,102.86 404.46,2.92 M236.52,196.12 C288.32,137.06 338.94,77.42 404.46,2.92 M257.78,196.06 C309.38,134.24 365.76,71.02 425.72,2.86 M257.78,196.06 C313.88,129.74 370.28,66.84 425.72,2.86 M277.72,197.5 C344.8,124.76 415.42,43.06 446.98,2.78 M277.72,197.5 C328.18,139.82 376,82.9 446.98,2.78 M298.98,197.44 C350.66,137.42 406.62,71.1 468.24,2.72 M298.98,197.44 C359.02,129.96 417.78,59.84 468.24,2.72 M320.24,197.36 C361.54,154.62 396.76,110.68 489.5,2.64 M320.24,197.36 C360.82,152.92 396.56,110.4 489.5,2.64 M341.5,197.3 C412.16,121.8 474.68,43.1 510.76,2.58 M341.5,197.3 C393.68,140.02 441.12,83.32 510.76,2.58 M362.76,197.22 C403.26,148.6 442.88,101.82 532.02,2.5 M362.76,197.22 C410.4,143.24 455.7,90.92 532.02,2.5 M384.02,197.16 C429.84,147.92 468.96,100.68 553.28,2.44 M384.02,197.16 C425.7,152.88 466.64,104.48 553.28,2.44 M405.28,197.08 C455.56,139.3 498.32,87.76 574.54,2.38 M405.28,197.08 C472.2,119.32 537.62,44.44 574.54,2.38 M426.54,197.02 C481.18,138.7 534.6,74 595.8,2.3 M426.54,197.02 C484.32,131.34 538.34,66.96 595.8,2.3 M447.8,196.94 C487.88,157.4 518.44,118.06 617.06,2.24 M447.8,196.94 C491.08,149.36 533.48,100.92 617.06,2.24 M469.06,196.88 C529.92,122.96 595.52,46.52 637.02,3.68 M469.06,196.88 C514.3,141.82 563.3,86.06 637.02,3.68 M490.32,196.82 C525.18,156.52 558.6,112.68 653.02,9.64 M490.32,196.82 C533.82,145.76 578.22,96.72 653.02,9.64 M511.58,196.74 C568.1,136.36 612.22,74.66 665.1,20.14 M511.58,196.74 C543.1,160.56 577.94,121.32 665.1,20.14 M532.84,196.68 C581.14,142.34 627.24,84.26 671.92,36.68 M532.84,196.68 C561.5,162.44 591.5,129.12 671.92,36.68 M554.1,196.6 C581.48,170.56 606.44,137.72 672.2,60.76 M554.1,196.6 C598.98,141.88 647.92,87.5 672.2,60.76 M575.36,196.54 C606.58,153.94 638.6,115.8 672.46,84.84 M575.36,196.54 C597.42,170.3 618.96,150.6 672.46,84.84 M596.62,196.46 C626.2,166.02 648.18,133.68 672.72,108.92 M596.62,196.46 C622.86,167.3 649.86,135.14 672.72,108.92 M617.88,196.4 C629.84,183.42 640.94,170.02 673,133 M617.88,196.4 C633.8,175.7 649.7,157.92 673,133 M641.78,193.3 C648.38,184.42 661.8,170.86 671.94,158.6 M641.78,193.3 C653.42,179.08 662.8,167.78 671.94,158.6" id="Shape" stroke="#FFD8A8" stroke-width="2"></path>
                <path d="M49.5,2 C190.88,-0.78 336.96,0.74 623.84,2 M49.5,2 C210.74,3.62 373.18,2.96 623.84,2 M623.84,2 C655.56,-0.62 674.76,17.74 672.34,50.5 M623.84,2 C653.82,4.82 675.92,20.28 672.34,50.5 M672.34,50.5 C670.9,84.5 672.8,113.94 672.34,147.5 M672.34,50.5 C673.76,79.78 673.66,108.1 672.34,147.5 M672.34,147.5 C674.5,181.44 652.96,193.82 623.84,196 M672.34,147.5 C669.22,176.12 652.14,198.26 623.84,196 M623.84,196 C438.72,200.74 246.54,201.56 49.5,196 M623.84,196 C450.78,190.34 279.46,192.84 49.5,196 M49.5,196 C15.08,192.56 2.62,177.58 1,147.5 M49.5,196 C17.84,199.94 1.94,181.52 1,147.5 M1,147.5 C-0.8,113.48 0.8,77.04 1,50.5 M1,147.5 C3.2,120.44 2.02,90.3 1,50.5 M1,50.5 C-1.06,17.06 17.82,5.38 49.5,2 M1,50.5 C4.78,19.04 19.8,1.78 49.5,2" id="Shape" stroke="#1E1E1E" stroke-width="4"></path>
            </g>
            <g id="Group" transform="translate(908.020833, 558.133333)" fill="#1E1E1E" font-family="Helvetica" font-size="72" font-weight="normal">
                <text id="Tool-Selection">
                    <tspan x="0.3125" y="69.525">Tool Selection</tspan>
                </text>
            </g>
            <g id="Group" transform="translate(1739.666667, 540.000000)">
                <path d="M11.06,33.72 C18.3,22.56 32.82,16.3 37.3,3.52 M11.06,33.72 C15.3,25.36 23.46,22.2 37.3,3.52 M10,59.3 C25.94,42.02 35.92,28.62 58.56,3.46 M10,59.3 C27.32,36.76 45.6,16.52 58.56,3.46 M10.28,83.4 C32.54,52.7 57.82,29.54 79.82,3.4 M10.28,83.4 C30.5,59.04 48.08,38.6 79.82,3.4 M6.6,112 C41.24,75.78 72.64,29.78 99.76,4.84 M6.6,112 C32.48,85.02 55.82,56.9 99.76,4.84 M13.42,128.54 C41,101.4 58.38,70.5 121.02,4.76 M13.42,128.54 C49.68,85.68 84.48,46.3 121.02,4.76 M26.82,137.52 C66.22,92.18 101.88,50.56 142.28,4.7 M26.82,137.52 C64,95.58 102.76,49.98 142.28,4.7 M48.08,137.46 C78.18,107.26 110.28,66.78 163.54,4.62 M48.08,137.46 C73.44,109.96 98.18,80.24 163.54,4.62 M69.34,137.38 C93.14,107.96 119.48,80.78 184.8,4.56 M69.34,137.38 C96.3,107.26 121.28,78.38 184.8,4.56 M90.6,137.32 C119.34,107.72 143.94,80.26 206.06,4.48 M90.6,137.32 C124.16,101.5 155.16,63.2 206.06,4.48 M111.86,137.24 C156.62,90.02 203.3,38.6 227.32,4.42 M111.86,137.24 C143.46,103.06 173.24,65.96 227.32,4.42 M131.8,138.68 C165.6,95.06 204.56,57.5 248.58,4.34 M131.8,138.68 C156.56,111.12 176.78,83.96 248.58,4.34 M153.06,138.62 C187.3,95.78 224.72,59.46 269.84,4.28 M153.06,138.62 C178.98,108.74 201.6,80.78 269.84,4.28 M174.32,138.54 C214.1,95.48 243.04,59.38 289.8,5.72 M174.32,138.54 C209.62,103.86 240.46,62.9 289.8,5.72 M195.58,138.48 C226.5,103.72 250.04,69.42 311.06,5.66 M195.58,138.48 C229.64,100.38 263.66,59.86 311.06,5.66 M216.84,138.42 C249.72,104.58 283.1,59.68 332.32,5.58 M216.84,138.42 C263.02,85.34 310.42,34.62 332.32,5.58 M238.1,138.34 C263.32,106.42 294.46,67.92 353.58,5.52 M238.1,138.34 C272.32,95.24 310.86,56.12 353.58,5.52 M259.36,138.28 C296.16,92.8 336.92,48.12 374.84,5.44 M259.36,138.28 C285.64,107.32 314.2,72.6 374.84,5.44 M280.62,138.2 C323.84,87.8 370.08,37.5 396.1,5.38 M280.62,138.2 C326.16,84.24 370.76,33.24 396.1,5.38 M301.88,138.14 C339.22,95.42 375.78,54.16 417.36,5.3 M301.88,138.14 C336.22,99.18 364.52,63.6 417.36,5.3 M321.84,139.58 C367.12,84.52 413.62,34.38 438.62,5.24 M321.84,139.58 C351.36,109.74 378.92,74.38 438.62,5.24 M343.1,139.5 C391.48,86.28 436.46,34.06 459.88,5.16 M343.1,139.5 C388.92,84.4 434.92,32.62 459.88,5.16 M364.36,139.44 C398.06,95.02 437.7,58.86 478.5,8.12 M364.36,139.44 C399.8,99.48 430.24,64.7 478.5,8.12 M385.62,139.36 C419.12,97.94 453.92,66.32 491.9,17.1 M385.62,139.36 C411.48,108.64 439.74,76.78 491.9,17.1 M406.88,139.3 C432.42,110.88 460.92,83.32 498.72,33.64 M406.88,139.3 C435.46,102.96 466.6,71.2 498.72,33.64 M428.14,139.24 C446.98,111.62 468.48,90.8 498.98,57.72 M428.14,139.24 C451.22,113.28 476.96,86.44 498.98,57.72 M449.4,139.16 C466.32,126.1 472.92,110.18 497.94,83.32 M449.4,139.16 C462.4,126.28 472.26,112.06 497.94,83.32 M468.04,142.12 C476.8,136.66 480.86,128.16 490.34,116.46 M468.04,142.12 C472.86,133.74 482.06,129.22 490.34,116.46" id="Shape" stroke="#A5D8FF" stroke-width="2"></path>
                <path d="M35,2 C127.28,0.38 219.66,0.54 459.48,2 M35,2 C169.28,1.84 305.14,2.82 459.48,2 M459.48,2 C479.44,4.46 495.58,14.84 492.48,35 M459.48,2 C482.26,4.48 496.6,10.76 492.48,35 M492.48,35 C492.2,61.44 488.88,87.58 492.48,101 M492.48,35 C493.9,58.28 491.22,78.86 492.48,101 M492.48,101 C489.78,119.76 477.96,135.96 459.48,134 M492.48,101 C493.7,126.92 486,137.62 459.48,134 M459.48,134 C325.24,136.56 187.68,132.38 35,134 M459.48,134 C372.46,135.02 287.98,135.54 35,134 M35,134 C13.6,137.44 2.82,124.46 2,101 M35,134 C15.54,129.42 0.92,119.84 2,101 M2,101 C1.88,77.24 -0.26,62.84 2,35 M2,101 C0.9,76.38 2.26,54.56 2,35 M2,35 C5.28,13.76 15.3,1.8 35,2 M2,35 C-2.34,17.06 10.82,5.14 35,2" id="Shape" stroke="#1E1E1E" stroke-width="4"></path>
            </g>
            <g id="Group" transform="translate(1861.248648, 563.800000)" fill="#1E1E1E" font-family="Helvetica" font-size="72" font-weight="normal">
                <text id="Context">
                    <tspan x="0.65625" y="69.525">Context</tspan>
                </text>
            </g>
            <g id="Group" transform="translate(491.000000, 580.000000)" stroke="#1E1E1E" stroke-width="9">
                <g transform="translate(0.425269, 17.239155)" id="Path" stroke-dasharray="16">
                    <path d="M0.44,4.32 C50.42,3.6 252.84,0.96 303.56,0.34"></path>
                </g>
                <g transform="translate(256.425269, 17.239155)" id="Path">
                    <path d="M0.8,18.04 C18.46,10.7 31.38,6.14 47.56,0.34"></path>
                </g>
                <g transform="translate(256.425269, 0.239155)" id="Path">
                    <path d="M0.36,0.84 C18.26,6.06 31.36,14.04 47.56,17.34"></path>
                </g>
            </g>
            <g id="Group" transform="translate(53.666667, 879.000000)">
                <path d="M8.2,46.36 C19.96,37.24 29.7,27.56 37.06,13.14 M8.2,46.36 C19.52,34.82 29.46,21.42 37.06,13.14 M7.14,71.94 C19.46,55.66 38.72,35.4 60.94,10.06 M7.14,71.94 C19.46,59.52 33.7,40.9 60.94,10.06 M7.42,96.02 C35.64,65.34 56.38,37.36 82.2,9.98 M7.42,96.02 C27.34,69.48 47.14,46.38 82.2,9.98 M7.68,120.1 C43.98,77.68 81.2,33.42 103.46,9.92 M7.68,120.1 C26.6,97.3 48.9,73.92 103.46,9.92 M7.94,144.18 C36.32,111.3 65.48,78.2 123.42,11.36 M7.94,144.18 C48.08,97.56 91.12,49.98 123.42,11.36 M5.58,171.28 C37.88,126.52 76.78,91.56 144.68,11.3 M5.58,171.28 C55.18,116.94 102.96,59.78 144.68,11.3 M11.1,189.34 C59.56,129.64 116.42,71.34 165.94,11.22 M11.1,189.34 C47.74,143.54 90.26,97.78 165.94,11.22 M21.86,201.34 C54.86,162.7 89.72,125.44 187.2,11.16 M21.86,201.34 C61.72,154.02 102.6,107.8 187.2,11.16 M36.56,208.82 C82.02,161.56 124.3,104.32 208.46,11.08 M36.56,208.82 C101.3,134.58 165.96,58.2 208.46,11.08 M56.52,210.26 C113.56,145.04 174.94,79.7 229.72,11.02 M56.52,210.26 C105.54,155.8 151.92,100.28 229.72,11.02 M77.78,210.18 C146.5,133.88 207.16,53.62 250.98,10.94 M77.78,210.18 C112.18,168.82 148.5,126.66 250.98,10.94 M99.04,210.12 C157.82,144.46 208.88,85.44 272.24,10.88 M99.04,210.12 C149.28,154.28 199.92,96.5 272.24,10.88 M120.3,210.06 C161.6,162.36 196.62,116.96 293.5,10.8 M120.3,210.06 C177.66,146.3 236.44,80.94 293.5,10.8 M141.56,209.98 C174.02,170.82 211.48,127.34 314.76,10.74 M141.56,209.98 C204.6,137.3 267.32,64.56 314.76,10.74 M162.82,209.92 C198.6,166.94 232.46,128.44 336.02,10.66 M162.82,209.92 C229.22,132.14 299.52,56.22 336.02,10.66 M184.08,209.84 C233.48,157.34 275.66,103.68 357.28,10.6 M184.08,209.84 C225.32,160.04 271.34,109.78 357.28,10.6 M205.34,209.78 C260.74,152.78 311.44,85.66 378.54,10.54 M205.34,209.78 C275.9,128.98 345.4,51.94 378.54,10.54 M226.6,209.7 C276,154.24 320.46,108.22 403.74,5.94 M226.6,209.7 C282.7,145.5 339.92,80.3 403.74,5.94 M247.86,209.64 C282.32,165.76 320.28,124 423.68,7.38 M247.86,209.64 C312.64,131.24 377.42,56.18 423.68,7.38 M269.12,209.56 C310.68,165.52 350.66,118.94 437.06,16.36 M269.12,209.56 C304.76,170.32 338.68,128.28 437.06,16.36 M290.38,209.5 C341.96,144.56 400.62,85.9 450.46,25.36 M290.38,209.5 C341.84,149.36 389.8,92.3 450.46,25.36 M311.64,209.44 C358.8,151.48 412.58,101.18 454.66,44.9 M311.64,209.44 C363.44,150.4 412.88,92.48 454.66,44.9 M332.9,209.36 C358.18,171.82 389.38,140.96 454.92,68.98 M332.9,209.36 C363.74,173.5 396.94,138.36 454.92,68.98 M354.16,209.3 C389.52,164.46 422.6,127.06 455.18,93.06 M354.16,209.3 C387.26,169.62 417.56,132.76 455.18,93.06 M374.1,210.74 C393.7,195.32 408.72,170.6 454.14,118.66 M374.1,210.74 C401.82,176.6 432.26,141.28 454.14,118.66 M395.36,210.66 C414.08,186.88 436.86,164.3 454.4,142.74 M395.36,210.66 C407.48,195.8 421.86,180.94 454.4,142.74 M412.68,215.12 C423.34,202.78 436.06,186.42 458.62,162.3 M412.68,215.12 C423.16,200.34 435.08,186.62 458.62,162.3" id="Shape" stroke="#FCC2D7" stroke-width="2"></path>
                <path d="M51.66,3 C161.94,-0.54 275.02,2.58 400.34,3 M51.66,3 C183.36,-0.5 318.86,-0.92 400.34,3 M400.34,3 C435.5,6 449.52,16.76 451,53.66 M400.34,3 C438.38,0.9 455.06,18.78 451,53.66 M451,53.66 C448.76,81.24 449.84,106.94 451,155 M451,53.66 C451.62,76.14 450.26,100.9 451,155 M451,155 C447.26,191.6 434.26,206.98 400.34,205.66 M451,155 C447.88,185 438.1,204.9 400.34,205.66 M400.34,205.66 C286.86,204.4 172.26,205.78 51.66,205.66 M400.34,205.66 C272.86,203.96 149.9,203.04 51.66,205.66 M51.66,205.66 C14.82,204.46 2.66,184.78 1,155 M51.66,205.66 C14.88,204.32 3.9,184.6 1,155 M1,155 C1.5,128.02 4.36,105.22 1,53.66 M1,155 C0.6,122.04 2.32,93.84 1,53.66 M1,53.66 C-2.1,18.5 20.42,1.52 51.66,3 M1,53.66 C1.7,23.16 15.1,3.18 51.66,3" id="Shape" stroke="#1E1E1E" stroke-width="4"></path>
            </g>
            <g id="Group" transform="translate(164.104167, 939.133333)" fill="#1E1E1E" font-family="Helvetica" font-size="72" font-weight="normal">
                <text id="Search">
                    <tspan x="0.5625" y="69.525">Search</tspan>
                </text>
            </g>
            <g id="Group" transform="translate(831.000000, 895.333333)">
                <path d="M2.36,50.88 C12.92,36.02 21.82,24.74 44.36,2.58 M2.36,50.88 C12.64,39.62 19,30.34 44.36,2.58 M1.32,76.48 C23.64,57.2 44.34,28.82 65.62,2.52 M1.32,76.48 C21.38,55.52 42.06,30.66 65.62,2.52 M1.58,100.56 C20.7,77.22 35.12,58.74 86.88,2.44 M1.58,100.56 C21.78,76.86 42.32,53.26 86.88,2.44 M1.86,124.64 C25.44,93.8 51.8,68.4 108.14,2.38 M1.86,124.64 C32.4,91.5 63.46,54.92 108.14,2.38 M2.12,148.72 C49.98,97.1 93.16,45.84 129.4,2.32 M2.12,148.72 C41.76,102.86 83.18,57.1 129.4,2.32 M6.32,168.28 C48.76,127.68 79.4,87.22 150.66,2.24 M6.32,168.28 C50.48,119.64 93.12,69.44 150.66,2.24 M13.14,184.82 C51.22,143.88 87.2,103.44 171.92,2.18 M13.14,184.82 C49.56,140.06 89.04,93.38 171.92,2.18 M27.84,192.3 C86.5,129.84 139.28,62.12 193.18,2.1 M27.84,192.3 C72.58,138.86 116.66,85.62 193.18,2.1 M45.18,196.76 C106.26,131.08 162.66,64.72 214.44,2.04 M45.18,196.76 C109.94,118.78 178.1,42.66 214.44,2.04 M66.44,196.68 C104.84,158.1 141.08,115.98 235.7,1.96 M66.44,196.68 C125.68,133.06 182.86,65.82 235.7,1.96 M87.7,196.62 C139.44,141 185.44,80.94 256.96,1.9 M87.7,196.62 C151.4,125.94 214.7,52.46 256.96,1.9 M108.96,196.54 C149.92,148.94 189.32,103.12 278.22,1.82 M108.96,196.54 C160.24,138.14 214.7,76.66 278.22,1.82 M130.22,196.48 C175.5,141.16 220.4,84 299.48,1.76 M130.22,196.48 C187.9,132.44 242.94,66.44 299.48,1.76 M151.48,196.4 C201.44,143.06 247.38,84.82 320.74,1.7 M151.48,196.4 C186.18,155.16 221.64,118.38 320.74,1.7 M172.74,196.34 C232.78,132.84 293.28,59.88 342,1.62 M172.74,196.34 C220.42,144.58 266.22,87.82 342,1.62 M194,196.26 C240.96,148.04 281.82,95.44 361.94,3.06 M194,196.26 C251,132 304.16,69.38 361.94,3.06 M215.26,196.2 C267.86,132.68 328.26,63.2 383.2,3 M215.26,196.2 C274.96,127.62 330.06,61.9 383.2,3 M236.52,196.12 C274.2,154.42 312.5,111.8 404.46,2.92 M236.52,196.12 C298.24,123.66 362.58,50.48 404.46,2.92 M257.78,196.06 C319.7,121.14 386.58,50.52 425.72,2.86 M257.78,196.06 C311.98,133.22 364.86,70.96 425.72,2.86 M277.72,197.5 C316.48,148.78 354.9,103.98 446.98,2.78 M277.72,197.5 C339.9,125.68 404.2,57.2 446.98,2.78 M298.98,197.44 C352.06,129.96 414.24,59.38 468.24,2.72 M298.98,197.44 C356.9,129.02 420.3,58.14 468.24,2.72 M320.24,197.36 C367.76,138.02 418.9,86.54 489.5,2.64 M320.24,197.36 C367.68,142.2 414.84,87.04 489.5,2.64 M341.5,197.3 C382.6,149.76 421.56,106.02 510.76,2.58 M341.5,197.3 C379.4,156.58 418.66,113.4 510.76,2.58 M362.76,197.22 C402.96,152.44 443.34,107.6 532.02,2.5 M362.76,197.22 C399.48,154.84 437.3,113.62 532.02,2.5 M384.02,197.16 C413.1,161.08 448.76,121.88 553.28,2.44 M384.02,197.16 C427.78,148.14 467.36,104.78 553.28,2.44 M405.28,197.08 C442.7,155.08 482.3,110.22 574.54,2.38 M405.28,197.08 C446.34,147.12 491.22,96.94 574.54,2.38 M426.54,197.02 C475.16,140.34 526.82,84.64 594.5,3.82 M426.54,197.02 C487.88,121.06 555.28,46.58 594.5,3.82 M447.8,196.94 C484.86,153.8 527.3,110.48 613.14,6.76 M447.8,196.94 C513.12,125.34 575.76,52.92 613.14,6.76 M469.06,196.88 C513.3,147.14 558.28,94.44 626.52,15.74 M469.06,196.88 C528.5,129.6 585.96,61.36 626.52,15.74 M490.32,196.82 C543.8,130.06 608.12,66 634.66,30.78 M490.32,196.82 C540.26,135.34 593,75.46 634.66,30.78 M511.58,196.74 C550.5,146.98 590.76,99.84 637.54,51.84 M511.58,196.74 C558.5,145.16 601.9,90.56 637.54,51.84 M532.84,196.68 C557.32,165.06 588.74,135.2 637.82,75.92 M532.84,196.68 C563.74,161.24 592.64,127.68 637.82,75.92 M554.1,196.6 C575.64,168.52 597.36,140.5 638.08,100 M554.1,196.6 C574.74,169.74 599.64,144.36 638.08,100 M575.36,196.54 C594.48,174.9 615.08,156.24 638.34,124.08 M575.36,196.54 C590.1,180.74 602.06,166.84 638.34,124.08 M596.62,196.46 C610.2,182.34 622.66,170.12 638.62,148.16 M596.62,196.46 C607.14,184.4 615.2,173.72 638.62,148.16" id="Shape" stroke="#FCC2D7" stroke-width="2"></path>
                <path d="M49.5,2 C166.36,-0.46 286.22,-0.34 589.16,2 M49.5,2 C261.94,6.5 476.42,6.1 589.16,2 M589.16,2 C618.7,1 639.22,17.34 637.66,50.5 M589.16,2 C626.06,1.6 636.82,13.94 637.66,50.5 M637.66,50.5 C637.64,69.4 638.92,95.26 637.66,147.5 M637.66,50.5 C635.96,86.04 637.68,122.76 637.66,147.5 M637.66,147.5 C640.12,179.26 618.76,192.18 589.16,196 M637.66,147.5 C640,179.82 622.48,197.02 589.16,196 M589.16,196 C423.58,196.98 263.14,197.34 49.5,196 M589.16,196 C388.08,196.88 185.26,196.34 49.5,196 M49.5,196 C18.26,196.34 3.64,181.36 1,147.5 M49.5,196 C15.62,200.26 0.82,179.52 1,147.5 M1,147.5 C-0.94,111.02 4.28,73.82 1,50.5 M1,147.5 C3.06,117.78 3.4,88.5 1,50.5 M1,50.5 C0.32,18.82 15.08,2 49.5,2 M1,50.5 C4.7,18.62 14.74,4.48 49.5,2" id="Shape" stroke="#1E1E1E" stroke-width="4"></path>
            </g>
            <g id="Group" transform="translate(925.114583, 906.933333)" fill="#1E1E1E" font-family="Helvetica" font-size="72" font-weight="normal">
                <text id="Search-+">
                    <tspan x="79.21875" y="69.525">Search +</tspan>
                </text>
                <text id="Pattern-Match">
                    <tspan x="0.21875" y="154.925">Pattern Match</tspan>
                </text>
            </g>
            <g id="Group" transform="translate(1794.333333, 896.000000)">
                <path d="M2.06,50.62 C15.38,41.28 24.98,22.06 42.74,3.82 M2.06,50.62 C14.34,39.56 23.46,26.26 42.74,3.82 M2.32,74.7 C24.52,48.96 41.86,26.08 65.3,2.24 M2.32,74.7 C21.56,51.08 44.66,24.5 65.3,2.24 M2.58,98.78 C34.2,62.14 58.02,30.1 86.56,2.18 M2.58,98.78 C21.44,77.92 40.58,56.62 86.56,2.18 M1.54,124.38 C39.98,78.62 81.38,32.7 107.82,2.12 M1.54,124.38 C40.84,77.24 82.54,32.42 107.82,2.12 M1.8,148.46 C43.38,99.56 81.12,53.28 129.08,2.04 M1.8,148.46 C30.98,112.72 60.14,78.86 129.08,2.04 M7.32,166.5 C58.04,104.18 114.74,49.92 150.34,1.98 M7.32,166.5 C53.46,109.42 104.58,51.08 150.34,1.98 M15.46,181.52 C66.78,120.56 128.12,54.1 171.6,1.9 M15.46,181.52 C60.48,127.76 107.16,77.72 171.6,1.9 M30.16,189 C74.34,137.74 118.46,85.18 191.56,3.34 M30.16,189 C68.06,144.32 105.5,101.78 191.56,3.34 M48.8,191.96 C85.6,153.42 125.36,111.64 212.82,3.28 M48.8,191.96 C88.16,148.12 127.22,103.98 212.82,3.28 M70.06,191.88 C106.44,149.58 144.08,110.86 234.08,3.2 M70.06,191.88 C100,155.6 133.8,117.64 234.08,3.2 M91.32,191.82 C134.82,142.26 171.82,103.98 255.34,3.14 M91.32,191.82 C127.86,150.3 165.22,107.66 255.34,3.14 M112.58,191.74 C151.22,143.02 196.18,94.2 276.6,3.06 M112.58,191.74 C160.28,137.48 208.62,83.72 276.6,3.06 M133.84,191.68 C191.8,116.1 260.08,43.7 297.86,3 M133.84,191.68 C170.76,148.38 211.12,104.68 297.86,3 M155.1,191.6 C221.9,121.02 283.76,49.16 319.12,2.92 M155.1,191.6 C202.42,138.06 249.8,83.06 319.12,2.92 M176.36,191.54 C239.2,122.36 297.42,51.1 340.38,2.86 M176.36,191.54 C238.92,115.14 307.76,40.92 340.38,2.86 M197.62,191.46 C252.94,121.12 312.76,53.9 361.64,2.8 M197.62,191.46 C250.22,127.84 303.64,65.96 361.64,2.8 M218.88,191.4 C281.34,125.62 335.74,53.68 382.9,2.72 M218.88,191.4 C260.1,141.42 305.1,92.8 382.9,2.72 M240.14,191.34 C289.22,135.48 333.94,83.4 404.16,2.66 M240.14,191.34 C282.62,139.3 326.52,87.26 404.16,2.66 M261.4,191.26 C300.92,139.62 348.9,90.9 422.8,5.6 M261.4,191.26 C308.94,134.62 358.68,79.92 422.8,5.6 M282.66,191.2 C317.98,152.82 347.8,118.22 437.5,13.08 M282.66,191.2 C324.84,141.24 367.42,93.3 437.5,13.08 M303.92,191.12 C338.56,151.56 368.48,114.32 445.62,28.1 M303.92,191.12 C337.88,153.48 368.54,117.76 445.62,28.1 M323.86,192.56 C364.16,150.94 399.2,111.54 451.14,46.16 M323.86,192.56 C356.06,155.8 392.32,114.1 451.14,46.16 M345.12,192.5 C388.86,151.64 424.88,99.48 451.42,70.24 M345.12,192.5 C376.6,158.02 405.34,120.78 451.42,70.24 M366.38,192.42 C391.1,163.78 415.12,137.56 451.68,94.32 M366.38,192.42 C389.72,166.82 412.24,140.22 451.68,94.32 M387.64,192.36 C414.46,164.76 436.3,135.28 451.94,118.4 M387.64,192.36 C407.5,166.04 427.66,142.3 451.94,118.4 M410.22,190.78 C422.36,177.64 428.28,161.74 452.2,142.48 M410.22,190.78 C423.04,175.2 436.04,161.38 452.2,142.48" id="Shape" stroke="#FCC2D7" stroke-width="2"></path>
                <path d="M48.34,2 C134.34,-0.96 224.16,3.18 403.66,2 M48.34,2 C145.96,2.28 247.38,4.06 403.66,2 M403.66,2 C435.92,5.72 451.52,20.6 451,49.34 M403.66,2 C435.32,6.34 452.14,19.3 451,49.34 M451,49.34 C450.74,67.34 449.32,91.48 451,144 M451,49.34 C452.98,81.88 451.42,111.02 451,144 M451,144 C453.2,178.52 436,193 403.66,191.34 M451,144 C450.84,176.86 435.98,193.74 403.66,191.34 M403.66,191.34 C278.48,193.34 144.28,194.6 48.34,191.34 M403.66,191.34 C286.7,189.16 171.4,190.6 48.34,191.34 M48.34,191.34 C13.82,191.26 -2.32,176.1 1,144 M48.34,191.34 C16.8,188.62 -3.14,179.4 1,144 M1,144 C1.46,120.16 -1.14,91.42 1,49.34 M1,144 C1.54,123.26 2.84,105.38 1,49.34 M1,49.34 C0.78,14.3 15.92,4.1 48.34,2 M1,49.34 C-0.64,22.22 17.1,5.06 48.34,2" id="Shape" stroke="#1E1E1E" stroke-width="4"></path>
            </g>
            <g id="Group" transform="translate(1920.864583, 948.466667)" fill="#1E1E1E" font-family="Helvetica" font-size="72" font-weight="normal">
                <text id="Query">
                    <tspan x="0.46875" y="69.525">Query</tspan>
                </text>
            </g>
            <g id="Group" transform="translate(283.000000, 710.000000)" stroke="#1E1E1E" stroke-width="9">
                <g transform="translate(0.780479, 0.000000)" id="Path" stroke-dasharray="16">
                    <path d="M0.56,168.88 C19.84,149.72 37.34,72.78 116.98,57.32 C196.62,41.86 391.9,85.56 478.42,76.06 C564.94,66.58 609.28,12.82 636.08,0.34"></path>
                </g>
                <g transform="translate(606.780479, 0.000000)" id="Path">
                    <path d="M0.84,40.9 C8.98,26 20.12,14 30.08,0.34"></path>
                </g>
                <g transform="translate(587.780479, 0.000000)" id="Path">
                    <path d="M0.62,12.6 C15.84,7.72 33.82,5.78 49.08,0.34"></path>
                </g>
            </g>
            <g id="Group" transform="translate(1331.000000, 719.000000)" stroke="#1E1E1E" stroke-width="9">
                <g transform="translate(0.961133, 0.527317)" id="Path" stroke-dasharray="16">
                    <path d="M615.76,176.52 C586.66,161.5 529.78,95.18 442.62,83.76 C355.46,72.34 166.54,121.84 92.8,108.02 C19.06,94.2 15.8,18.7 0.16,0.78"></path>
                </g>
                <g transform="translate(0.961133, 0.527317)" id="Path">
                    <path d="M35.22,36.44 C24.1,26.36 11.72,9.28 0.16,0.78"></path>
                </g>
                <g transform="translate(0.961133, 0.527317)" id="Path">
                    <path d="M4.1,50.64 C5.32,34.86 5.18,12.18 0.16,0.78"></path>
                </g>
            </g>
            <g id="Group" transform="translate(1118.000000, 707.000000)" stroke="#1E1E1E" stroke-width="9">
                <g transform="translate(16.620469, 0.275516)" id="Path" stroke-dasharray="16">
                    <path d="M1.9,185.34 C1.44,154.4 2.2,30.76 1.9,0.32"></path>
                </g>
                <g transform="translate(17.620469, 0.275516)" id="Path">
                    <path d="M18.06,47.28 C9.16,29.82 4.94,9.52 0.9,0.32"></path>
                </g>
                <g transform="translate(0.620469, 0.275516)" id="Path">
                    <path d="M0.84,47.32 C4.58,30 12.96,9.68 17.9,0.32"></path>
                </g>
            </g>
            <g id="Group" transform="translate(274.333333, 1680.000000)">
                <path d="M2.46,45.68 C13.16,33.98 26.44,19.22 40.52,1.9 M2.46,45.68 C12.28,36.06 19.32,26.12 40.52,1.9 M2.72,69.76 C15.14,53.44 28.68,36.72 61.78,1.82 M2.72,69.76 C17.86,52 36.7,33.4 61.78,1.82 M3,93.84 C23.04,68.42 47.64,43.08 83.04,1.76 M3,93.84 C29.52,62.54 54.54,35.24 83.04,1.76 M3.26,117.92 C20.16,95.3 44.14,69.06 104.3,1.7 M3.26,117.92 C35.28,82.7 64.92,46.32 104.3,1.7 M6.16,138.98 C49.74,93.8 91.3,39.34 125.56,1.62 M6.16,138.98 C35.94,106.94 61.64,74.26 125.56,1.62 M16.92,150.98 C50.04,109.58 86.92,74.2 146.82,1.56 M16.92,150.98 C58.08,103.26 97.58,57.72 146.82,1.56 M32.92,156.96 C80.26,103.98 128.34,43.94 168.08,1.48 M32.92,156.96 C75.38,105.6 120.22,56.22 168.08,1.48 M51.56,159.9 C106.96,97.1 156.3,38.26 188.02,2.92 M51.56,159.9 C93.46,109.58 137.34,60.98 188.02,2.92 M72.82,159.84 C121.72,99.42 176.3,36 209.28,2.86 M72.82,159.84 C122.48,99.62 173.28,41.86 209.28,2.86 M94.08,159.76 C134.1,113.48 169.18,71.7 230.54,2.78 M94.08,159.76 C136.42,108.58 181.22,60.76 230.54,2.78 M115.34,159.7 C149.08,125.36 177.76,86.62 251.8,2.72 M115.34,159.7 C152.86,111.84 196.56,68.08 251.8,2.72 M136.6,159.62 C166.02,119.9 200.56,87.76 273.06,2.64 M136.6,159.62 C169.72,124.98 201.76,86.76 273.06,2.64 M157.86,159.56 C209.08,97.8 256.92,47.14 294.32,2.58 M157.86,159.56 C189.32,121.62 224.9,87.88 294.32,2.58 M179.12,159.5 C206.4,125.42 237.22,95.3 315.58,2.52 M179.12,159.5 C218.98,110.44 263.12,63.24 315.58,2.52 M200.38,159.42 C225.98,128.56 257.1,88.9 336.84,2.44 M200.38,159.42 C235.68,118.9 275.22,73.42 336.84,2.44 M221.64,159.36 C272.94,97.16 324.64,36.64 358.1,2.38 M221.64,159.36 C263.18,110.84 302.84,63.46 358.1,2.38 M242.9,159.28 C275.12,125.78 301.3,85.4 379.36,2.3 M242.9,159.28 C284.3,111.36 324.7,66.3 379.36,2.3 M264.16,159.22 C296.18,119.9 327,88.3 400.62,2.24 M264.16,159.22 C312.56,104.32 360.48,46.28 400.62,2.24 M285.42,159.14 C310.58,122.32 344.04,87.7 421.88,2.16 M285.42,159.14 C332.3,104.46 380.02,46.52 421.88,2.16 M306.68,159.08 C333.38,121.46 365.02,95.64 443.14,2.1 M306.68,159.08 C342.3,118.48 379.88,75.32 443.14,2.1 M327.94,159 C354.2,120.98 386.9,92.24 464.4,2.02 M327.94,159 C368.48,113.36 407.2,67.58 464.4,2.02 M349.2,158.94 C389.9,116.06 424.62,67.66 485.66,1.96 M349.2,158.94 C378,127.88 406.08,94.6 485.66,1.96 M370.46,158.86 C402.64,123.1 441,84.62 506.92,1.9 M370.46,158.86 C409.68,110.12 452.4,61.08 506.92,1.9 M391.72,158.8 C418.08,122.62 444.76,96.16 528.18,1.82 M391.72,158.8 C429.2,114.42 466.7,71.26 528.18,1.82 M412.98,158.74 C454.32,113.26 494.86,65 548.14,3.26 M412.98,158.74 C444.76,123.04 473.92,90.32 548.14,3.26 M434.24,158.66 C459.64,123.16 489.98,93.98 564.14,9.24 M434.24,158.66 C475.3,110.3 517.98,64.82 564.14,9.24 M455.5,158.6 C483.2,124.88 509.32,99.28 573.6,22.74 M455.5,158.6 C503.08,106.04 547.84,53.02 573.6,22.74 M475.46,160.04 C516.22,113.38 552.24,73.28 579.12,40.8 M475.46,160.04 C499.54,131.54 526.36,102.6 579.12,40.8 M496.72,159.96 C516,140.92 531.84,119.48 579.38,64.88 M496.72,159.96 C530.9,123.74 563.18,88.44 579.38,64.88 M517.98,159.9 C526.94,140.66 542.66,130.84 579.64,88.96 M517.98,159.9 C541.34,134.74 564.94,107.46 579.64,88.96 M540.54,158.32 C551.1,149.12 555.46,133.8 579.92,113.04 M540.54,158.32 C554.1,142.44 565.8,127.86 579.92,113.04" id="Shape" stroke="#E9ECEF" stroke-width="2"></path>
                <path d="M40,2 C142.2,-1.16 247.2,-0.08 540,2 M40,2 C212.18,1.4 382.66,3.18 540,2 M540,2 C566.46,-0.16 580.68,15.1 579,41 M540,2 C561.98,5.84 580.9,18.42 579,41 M579,41 C579.9,64.02 578.72,80.58 579,119 M579,41 C578.88,65.14 579.4,90.94 579,119 M579,119 C581.26,141.98 562.32,160.08 540,158 M579,119 C577.26,143.42 568.92,160.84 540,158 M540,158 C429.98,160.22 316.28,158.06 40,158 M540,158 C383.28,155.04 226.78,153.62 40,158 M40,158 C11.7,155 -2.84,144.76 1,119 M40,158 C9.52,154.22 -2.46,142.3 1,119 M1,119 C5.68,90.82 5.28,62.86 1,41 M1,119 C0.18,93.96 1.86,70.46 1,41 M1,41 C3.42,16.94 16.68,2.42 40,2 M1,41 C0.42,14.28 12.48,6.32 40,2" id="Shape" stroke="#1E1E1E" stroke-width="4"></path>
            </g>
            <g id="Group" transform="translate(421.677083, 1724.400000)" fill="#1E1E1E" font-family="Helvetica" font-size="56" font-weight="normal">
                <text id="Documents">
                    <tspan x="0.65625" y="54.075">Documents</tspan>
                </text>
            </g>
            <g id="Group" transform="translate(1396.333333, 1686.000000)">
                <path d="M2.46,45.68 C14.22,31.52 20.04,20.16 40.52,1.9 M2.46,45.68 C19.6,28.72 34.62,9.4 40.52,1.9 M2.72,69.76 C19.88,56.4 34.5,35.44 61.78,1.82 M2.72,69.76 C23.6,44.98 43.84,20.3 61.78,1.82 M3,93.84 C26.88,60.1 60.28,29.02 83.04,1.76 M3,93.84 C30.04,61.72 58.04,31.88 83.04,1.76 M3.26,117.92 C37.12,79.96 68.28,45.02 104.3,1.7 M3.26,117.92 C31.48,84 62.66,49 104.3,1.7 M6.16,138.98 C33.38,103.68 66.96,71.58 125.56,1.62 M6.16,138.98 C37.3,103.26 71.38,62.72 125.56,1.62 M16.92,150.98 C62.28,95.8 116.06,41.96 146.82,1.56 M16.92,150.98 C53.04,109.34 88.44,70.48 146.82,1.56 M32.92,156.96 C68.38,112.2 110.32,68.46 168.08,1.48 M32.92,156.96 C63.8,122.54 94.64,84.76 168.08,1.48 M51.56,159.9 C88.56,117.84 123.36,78.32 188.02,2.92 M51.56,159.9 C83.02,125.44 115.14,86.68 188.02,2.92 M72.82,159.84 C117.98,102.38 173.32,48.98 209.28,2.86 M72.82,159.84 C119.26,108.56 163.68,52.7 209.28,2.86 M94.08,159.76 C143.42,100.16 187.26,47.9 230.54,2.78 M94.08,159.76 C120.38,126.86 148.26,94.86 230.54,2.78 M115.34,159.7 C164.98,95.78 219.32,33.66 251.8,2.72 M115.34,159.7 C157.38,111.36 201.88,63.34 251.8,2.72 M136.6,159.62 C172,112.76 213.34,68.52 273.06,2.64 M136.6,159.62 C178.16,110.78 223.6,62.34 273.06,2.64 M157.86,159.56 C197.28,113.04 232.06,74.76 294.32,2.58 M157.86,159.56 C205.96,101.22 255.74,43.02 294.32,2.58 M179.12,159.5 C223.56,107.24 261.98,61.38 315.58,2.52 M179.12,159.5 C207.2,129.14 235.84,95.56 315.58,2.52 M200.38,159.42 C232.44,119.02 267.46,79.4 336.84,2.44 M200.38,159.42 C242.04,112.1 286.58,60.58 336.84,2.44 M221.64,159.36 C268.08,112.32 308.5,61.14 358.1,2.38 M221.64,159.36 C274.12,97.42 323.86,38.88 358.1,2.38 M242.9,159.28 C289.32,104.32 341.58,49.18 379.36,2.3 M242.9,159.28 C278.62,120.02 312.94,79.54 379.36,2.3 M264.16,159.22 C290.5,122.58 322.52,89.46 400.62,2.24 M264.16,159.22 C302.54,116.44 340.62,70.48 400.62,2.24 M285.42,159.14 C316.06,126.64 341.56,96.62 421.88,2.16 M285.42,159.14 C331.1,112.52 372.12,62.76 421.88,2.16 M306.68,159.08 C358.28,105.56 403.5,43.7 443.14,2.1 M306.68,159.08 C356.12,100.48 410.7,40.96 443.14,2.1 M327.94,159 C357.2,123.04 386.14,93.34 464.4,2.02 M327.94,159 C364.96,117.56 398.9,76.26 464.4,2.02 M349.2,158.94 C393.78,106.94 440,62.1 485.66,1.96 M349.2,158.94 C390.74,109.56 435.32,63.82 485.66,1.96 M370.46,158.86 C415.44,103.08 470.1,43.34 506.92,1.9 M370.46,158.86 C409.78,114.42 451.14,66.4 506.92,1.9 M391.72,158.8 C432.34,108.56 476.2,58.36 528.18,1.82 M391.72,158.8 C439.72,104.08 490.16,46.66 528.18,1.82 M412.98,158.74 C438.38,125.62 472.2,92.32 548.14,3.26 M412.98,158.74 C451.98,112.48 494.54,60.88 548.14,3.26 M434.24,158.66 C483.42,108.3 528.02,49.58 564.14,9.24 M434.24,158.66 C479.12,106.2 526.38,51.82 564.14,9.24 M455.5,158.6 C485.88,125.18 512.8,89.96 573.6,22.74 M455.5,158.6 C501.98,106.34 549.04,51.24 573.6,22.74 M475.46,160.04 C509.38,121.46 543.9,77.34 579.12,40.8 M475.46,160.04 C511.1,119.6 549.44,78.16 579.12,40.8 M496.72,159.96 C520.48,133.8 542.26,103.38 579.38,64.88 M496.72,159.96 C518.84,132.28 544.52,102.14 579.38,64.88 M517.98,159.9 C537.5,132.52 557.34,111.78 579.64,88.96 M517.98,159.9 C539.08,134.34 560.42,109.04 579.64,88.96 M540.54,158.32 C549.72,140.56 567.46,130.54 579.92,113.04 M540.54,158.32 C550.52,149.54 556.48,140.06 579.92,113.04" id="Shape" stroke="#E9ECEF" stroke-width="2"></path>
                <path d="M40,2 C145.92,-1.78 254.86,2.5 540,2 M40,2 C153.76,2.78 269.88,2.38 540,2 M540,2 C563.74,4.84 581.64,12.26 579,41 M540,2 C570,4.86 581.34,14.4 579,41 M579,41 C578.88,65.8 581.02,86.92 579,119 M579,41 C577.28,65.86 580,89.6 579,119 M579,119 C582.7,141 565.62,157.96 540,158 M579,119 C574.66,144.22 563.92,155.22 540,158 M540,158 C424.32,156.52 306.24,153.5 40,158 M540,158 C389.86,160.82 240.84,160.92 40,158 M40,158 C12.98,154.46 -2.32,147.9 1,119 M40,158 C12,154.2 -2.86,145.6 1,119 M1,119 C4.14,101.52 4,85.22 1,41 M1,119 C2.3,99.06 -0.22,81.04 1,41 M1,41 C4.8,13.32 10.66,5.5 40,2 M1,41 C-1.06,17.5 17.38,-1.56 40,2" id="Shape" stroke="#1E1E1E" stroke-width="4"></path>
            </g>
            <g id="Group" transform="translate(1625.708333, 1730.400000)" fill="#1E1E1E" font-family="Helvetica" font-size="56" font-weight="normal">
                <text id="Data">
                    <tspan x="0.625" y="54.075">Data</tspan>
                </text>
            </g>
            <g id="Group" transform="translate(397.000000, 1094.000000)" stroke="#1E1E1E" stroke-width="9">
                <g transform="translate(0.903436, 0.993768)" id="Path" stroke-dasharray="16">
                    <path d="M150.12,177.1 C135.66,160.9 90.5,107.64 65.6,78.24 C40.72,48.86 11,13.68 0.82,0.76"></path>
                </g>
                <g transform="translate(0.903436, 0.993768)" id="Path">
                    <path d="M43.78,26.34 C30.46,14.28 17.58,6.88 0.82,0.76"></path>
                </g>
                <g transform="translate(0.903436, 0.993768)" id="Path">
                    <path d="M17.28,47.96 C12.52,29.24 8.08,14.98 0.82,0.76"></path>
                </g>
            </g>
            <g id="Group" transform="translate(1271.000000, 1114.000000)" stroke="#1E1E1E" stroke-width="9">
                <g transform="translate(14.235650, 0.125367)" id="Path" stroke-dasharray="16">
                    <path d="M204.78,174.94 C173.4,160.62 49.98,114.12 17.3,85 C-15.38,55.88 10.24,14.78 8.72,0.24"></path>
                </g>
                <g transform="translate(22.235650, 0.125367)" id="Path">
                    <path d="M7.72,43.24 C9.36,32.74 4.82,21.6 0.72,0.24"></path>
                </g>
                <g transform="translate(0.235650, 0.125367)" id="Path">
                    <path d="M0.44,37.68 C10.28,28.88 13.98,19.3 22.72,0.24"></path>
                </g>
            </g>
            <g id="Group" transform="translate(1696.000000, 1102.000000)" stroke="#1E1E1E" stroke-width="9">
                <g transform="translate(0.415614, 0.125367)" id="Path" stroke-dasharray="16">
                    <path d="M0.84,168.24 C23,153.08 96.4,102.32 134.8,74.36 C173.22,46.38 215.9,13 231.34,0.44"></path>
                </g>
                <g transform="translate(205.415614, 0.125367)" id="Path">
                    <path d="M0.22,43.06 C11.32,25.96 20.16,17.3 26.34,0.44"></path>
                </g>
                <g transform="translate(183.415614, 0.125367)" id="Path">
                    <path d="M0.92,16.3 C18.96,8.16 34.92,8.46 48.34,0.44"></path>
                </g>
            </g>
            <g id="Group" transform="translate(715.000000, 1102.000000)" stroke="#1E1E1E" stroke-width="9">
                <g transform="translate(0.003314, 0.386862)" id="Path" stroke-dasharray="16">
                    <path d="M0.92,171.44 C39.32,158.46 182.44,121.86 228.58,93.34 C274.72,64.82 269.96,15.68 277.74,0.3"></path>
                </g>
                <g transform="translate(277.003314, 0.386862)" id="Path">
                    <path d="M6.02,50.02 C5.54,38.2 3.08,29.86 0.74,0.3"></path>
                </g>
                <g transform="translate(249.003314, 0.386862)" id="Path">
                    <path d="M0.84,41.78 C7.76,31.68 12.72,25.18 28.74,0.3"></path>
                </g>
            </g>
            <g id="Group" transform="translate(2259.000000, 313.000000)" stroke="#1E1E1E" stroke-width="9">
                <g transform="translate(0.981011, 10.397988)" id="Path" stroke-dasharray="16">
                    <path d="M0.66,0.8 C47.2,2.36 234.92,7.98 281.58,9.5"></path>
                </g>
                <g transform="translate(234.981011, 19.397988)" id="Path">
                    <path d="M0.08,16.14 C21.9,9.7 39.66,1.76 47.58,0.5"></path>
                </g>
                <g transform="translate(235.981011, 0.397988)" id="Path">
                    <path d="M0.14,0.96 C21.72,8.12 39.06,13.76 46.58,19.5"></path>
                </g>
            </g>
            <g id="Group" transform="translate(2259.000000, 575.000000)" stroke="#1E1E1E" stroke-width="9">
                <g transform="translate(0.356752, 16.769268)" id="Path" stroke-dasharray="16">
                    <path d="M0.4,1.1 C47.76,1.16 236.98,2.02 283.64,1.44"></path>
                </g>
                <g transform="translate(236.356752, 17.769268)" id="Path">
                    <path d="M0.7,17.66 C14.34,15.76 34.56,4.74 47.64,0.44"></path>
                </g>
                <g transform="translate(236.356752, 0.769268)" id="Path">
                    <path d="M0.62,0.46 C14.16,9.54 34.4,9.5 47.64,17.44"></path>
                </g>
            </g>
            <g id="Group" transform="translate(500.000000, 86.000000)" stroke="#1E1E1E" stroke-width="9">
                <g transform="translate(0.880290, 17.838707)" id="Path" stroke-dasharray="16">
                    <path d="M0.2,10.5 C336.26,8.58 1680.82,1.96 2017.58,0.76"></path>
                </g>
                <g transform="translate(1970.880290, 17.838707)" id="Path">
                    <path d="M0.68,18.06 C15.84,10.04 26.78,10.08 47.58,0.76"></path>
                </g>
                <g transform="translate(1970.880290, 0.838707)" id="Path">
                    <path d="M0.54,0.86 C16.08,3.4 27.06,14 47.58,17.76"></path>
                </g>
            </g>
            <g id="Group" transform="translate(52.000000, 1216.031254)">
                <path d="M15.36,47.42 C23.86,34.4 37.06,25.18 44.24,14.22 M15.36,47.42 C22.26,39.42 30.26,29.84 44.24,14.22 M11.7,76.02 C37.54,51.28 57.72,25.02 70.74,8.1 M11.7,76.02 C22.2,60.94 34.62,46.68 70.74,8.1 M11.96,100.12 C40.64,66.7 74.9,26.98 92,8.04 M11.96,100.12 C36.94,73.38 61.14,42.86 92,8.04 M12.22,124.2 C40.84,89.54 74.34,60.26 113.26,7.96 M12.22,124.2 C39.88,92.7 68.18,59.88 113.26,7.96 M11.18,149.78 C42.78,119.62 66.06,80.82 134.52,7.9 M11.18,149.78 C45.1,111.3 76.8,70.1 134.52,7.9 M11.44,173.86 C49.88,123.2 96.58,75 155.78,7.82 M11.44,173.86 C53.1,124.56 95.92,78.62 155.78,7.82 M11.72,197.94 C49.48,149.08 93.08,107.12 177.04,7.76 M11.72,197.94 C75.98,125.78 143.88,49.58 177.04,7.76 M11.98,222.02 C64.74,160.6 119.22,92.76 198.3,7.7 M11.98,222.02 C64.38,163.18 115.44,102.3 198.3,7.7 M12.24,246.12 C58.74,197.58 100.54,150.68 219.56,7.62 M12.24,246.12 C92,153.84 172.68,59.26 219.56,7.62 M12.52,270.2 C69.52,204.74 121.5,149.34 240.82,7.56 M12.52,270.2 C58.26,212.08 107.02,159.74 240.82,7.56 M12.78,294.28 C77.96,220.66 143.24,149.28 262.08,7.48 M12.78,294.28 C109.2,183.7 208.52,71.06 262.08,7.48 M11.74,319.86 C89.4,226.3 175.2,123.92 282.04,8.92 M11.74,319.86 C85.18,234.28 161.28,145.96 282.04,8.92 M5.44,351.5 C106.14,235.66 206.74,119.6 303.3,8.86 M5.44,351.5 C63.82,282.96 123.34,215.66 303.3,8.86 M10.96,369.54 C107.1,265.18 196.26,156.18 324.56,8.78 M10.96,369.54 C86.76,283.34 159.5,198.7 324.56,8.78 M19.1,384.56 C125.26,260.4 231.66,136.88 345.82,8.72 M19.1,384.56 C103.32,294.58 182.36,198.7 345.82,8.72 M33.8,392.04 C118.52,299.28 202.68,201.14 367.08,8.64 M33.8,392.04 C129.1,280.1 223.72,167.34 367.08,8.64 M45.86,402.54 C163.6,269.32 279.28,131.82 388.34,8.58 M45.86,402.54 C127.36,307.66 209.9,212.2 388.34,8.58 M63.2,407 C135.52,318.28 213.44,233.16 409.6,8.52 M63.2,407 C194.42,257.98 328.58,103.52 409.6,8.52 M83.14,408.44 C159.02,321.04 238.76,227.26 430.86,8.44 M83.14,408.44 C180.76,300.86 277.14,189.52 430.86,8.44 M104.4,408.36 C214.52,278.02 327.4,154.48 452.12,8.38 M104.4,408.36 C208.32,289.24 314.38,165.98 452.12,8.38 M125.66,408.3 C214.18,307.96 299.16,209.66 473.38,8.3 M125.66,408.3 C250.78,266.28 375.2,124.52 473.38,8.3 M146.92,408.24 C232.06,312.94 318.46,218.74 494.64,8.24 M146.92,408.24 C280.02,251.72 417.1,96.9 494.64,8.24 M168.18,408.16 C235.24,329.02 307.36,248.6 515.9,8.16 M168.18,408.16 C267.88,297.66 364.68,187.64 515.9,8.16 M189.44,408.1 C318.8,257.12 453.24,105.5 537.16,8.1 M189.44,408.1 C262.88,318.78 337.2,234.3 537.16,8.1 M210.7,408.02 C323.94,272.06 439.12,140.72 558.42,8.02 M210.7,408.02 C326.44,271.34 441.72,140.8 558.42,8.02 M231.96,407.96 C325.96,300.84 419.18,193.12 579.68,7.96 M231.96,407.96 C337.76,283.62 444.24,160.96 579.68,7.96 M253.22,407.88 C385.24,251.74 520.98,99.16 600.94,7.88 M253.22,407.88 C325.14,327.42 397.34,247.6 600.94,7.88 M274.48,407.82 C396.44,260.92 524.9,117.3 622.2,7.82 M274.48,407.82 C362.56,311.08 444.16,215.46 622.2,7.82 M295.74,407.74 C421.36,261.1 548.7,118.8 643.46,7.76 M295.74,407.74 C388.88,301.36 481.88,194.4 643.46,7.76 M317,407.68 C411.56,296.74 511.8,185.94 664.72,7.68 M317,407.68 C433.28,277.78 547.34,146.16 664.72,7.68 M338.26,407.6 C464.9,262.32 597.78,113.96 684.66,9.12 M338.26,407.6 C446.54,282.66 555.54,160 684.66,9.12 M359.52,407.54 C468.06,290.34 577.28,166.14 705.92,9.06 M359.52,407.54 C474.34,276.52 590.52,142.32 705.92,9.06 M380.78,407.48 C508.14,261.44 637.68,117.18 727.18,8.98 M380.78,407.48 C452.24,330.8 520.18,249.52 727.18,8.98 M402.04,407.4 C516.14,274.9 631.96,144.48 748.44,8.92 M402.04,407.4 C526.26,260.92 651.8,113.58 748.44,8.92 M423.3,407.34 C503.34,313.86 583.24,222.5 769.7,8.84 M423.3,407.34 C494.7,326.02 564.56,247.68 769.7,8.84 M444.56,407.26 C543.62,289.8 649.22,172.04 790.96,8.78 M444.56,407.26 C570.92,261.28 696.54,112 790.96,8.78 M465.82,407.2 C556.84,303.34 651.12,194.88 812.22,8.7 M465.82,407.2 C560.92,297.46 655.56,186.12 812.22,8.7 M485.78,408.64 C604.94,269.56 724.08,136.74 833.48,8.64 M485.78,408.64 C568.64,308.78 654.26,210.6 833.48,8.64 M507.04,408.56 C615.9,280.82 722.08,154.92 854.74,8.58 M507.04,408.56 C640.52,254.1 771.8,99.02 854.74,8.58 M528.3,408.5 C631.72,292.92 727.6,176.22 876,8.5 M528.3,408.5 C643.02,270.22 762.4,134.38 876,8.5 M549.56,408.42 C639.1,307.98 720.94,212.62 897.26,8.44 M549.56,408.42 C680.1,258.96 811.92,107.74 897.26,8.44 M570.82,408.36 C683.3,272.72 802.6,142.36 918.52,8.36 M570.82,408.36 C688.56,274.32 803.98,139.24 918.52,8.36 M592.08,408.3 C682.54,306.76 765.22,206.66 939.78,8.3 M592.08,408.3 C696.52,286.68 802.04,164.98 939.78,8.3 M613.34,408.22 C732.26,269.08 853.94,132.82 961.04,8.22 M613.34,408.22 C742.34,262.2 872.44,115.06 961.04,8.22 M634.6,408.16 C761.52,268 889.44,121.06 982.3,8.16 M634.6,408.16 C741.02,282.3 848.92,161.76 982.3,8.16 M655.86,408.08 C786.76,259.38 914.56,111.14 1003.56,8.08 M655.86,408.08 C769.82,280.44 879.58,151.96 1003.56,8.08 M677.12,408.02 C795.74,273.98 911.64,141.02 1024.82,8.02 M677.12,408.02 C792.44,278.98 903.78,148.66 1024.82,8.02 M698.38,407.94 C824.24,264.86 949.58,115.5 1046.08,7.96 M698.38,407.94 C802.3,284.6 911.34,159.64 1046.08,7.96 M719.64,407.88 C846.4,266.22 964.5,128 1067.34,7.88 M719.64,407.88 C853.52,249.88 991.64,93.3 1067.34,7.88 M740.9,407.8 C819.48,316.9 893.54,229.62 1087.3,9.32 M740.9,407.8 C815,328.18 884.22,243.92 1087.3,9.32 M762.16,407.74 C878.66,268 994.98,135.46 1108.56,9.26 M762.16,407.74 C879.52,270.94 996.94,134.9 1108.56,9.26 M783.42,407.68 C906.86,267.38 1025.56,128.5 1129.82,9.18 M783.42,407.68 C893.84,279.54 1007.06,149.04 1129.82,9.18 M804.68,407.6 C886.94,312.2 964.16,220.74 1151.08,9.12 M804.68,407.6 C904.76,288.32 1007.12,172.02 1151.08,9.12 M825.94,407.54 C933.66,280.2 1044.06,154.7 1172.34,9.04 M825.94,407.54 C939.08,278.46 1056.76,145.72 1172.34,9.04 M847.2,407.46 C957.78,281.36 1061.86,156.46 1193.6,8.98 M847.2,407.46 C974.82,257.34 1102.56,112 1193.6,8.98 M868.46,407.4 C1000.44,255.48 1128.82,110.8 1214.86,8.9 M868.46,407.4 C982.94,280.54 1094.56,151.36 1214.86,8.9 M888.4,408.84 C990.86,292.46 1086.26,177.46 1236.12,8.84 M888.4,408.84 C1023.54,254.52 1154.46,102.96 1236.12,8.84 M909.66,408.76 C1034.42,269 1158.58,124.58 1257.38,8.76 M909.66,408.76 C1035.86,264.54 1161.18,120.64 1257.38,8.76 M930.92,408.7 C1064.32,255.02 1201.36,102.82 1278.64,8.7 M930.92,408.7 C1056.58,272.58 1175.96,132.28 1278.64,8.7 M952.18,408.62 C1079.68,259.78 1210.14,110.48 1299.9,8.64 M952.18,408.62 C1066.16,279.14 1178.84,150.16 1299.9,8.64 M973.44,408.56 C1066.5,300.56 1163.76,189.12 1321.16,8.56 M973.44,408.56 C1104.42,258.74 1234.14,110.8 1321.16,8.56 M994.7,408.48 C1106.06,283.94 1215.8,156.24 1342.42,8.5 M994.7,408.48 C1088,301.88 1180.84,195.48 1342.42,8.5 M1015.96,408.42 C1138.74,268.36 1260.14,123.54 1363.68,8.42 M1015.96,408.42 C1135.4,269.48 1256.78,130.56 1363.68,8.42 M1037.22,408.36 C1167.22,260.7 1293.16,115.68 1384.94,8.36 M1037.22,408.36 C1128.52,301.42 1223.26,191.24 1384.94,8.36 M1058.48,408.28 C1140.36,312.46 1219.36,217.74 1406.2,8.28 M1058.48,408.28 C1157.68,295.02 1254.82,181.74 1406.2,8.28 M1079.74,408.22 C1169.1,304.48 1264.36,201.18 1427.46,8.22 M1079.74,408.22 C1209.64,263.2 1338.74,113.06 1427.46,8.22 M1101,408.14 C1195.4,298.94 1299.86,179.76 1448.72,8.14 M1101,408.14 C1227.06,264.56 1352.48,120.9 1448.72,8.14 M1122.26,408.08 C1208.16,314.6 1288.3,219.72 1469.98,8.08 M1122.26,408.08 C1210.5,311.5 1294.56,213.34 1469.98,8.08 M1143.52,408 C1240.38,297.38 1340.58,189.36 1489.92,9.52 M1143.52,408 C1236.48,299.76 1332.84,192.1 1489.92,9.52 M1164.78,407.94 C1276.92,280.64 1379.38,158.78 1511.18,9.46 M1164.78,407.94 C1270.08,285.18 1377.44,163.8 1511.18,9.46 M1186.04,407.86 C1306.86,277.52 1421.3,144.16 1532.44,9.38 M1186.04,407.86 C1288.82,289.76 1391.46,173.26 1532.44,9.38 M1207.3,407.8 C1332.04,258.54 1461.1,114.14 1553.7,9.32 M1207.3,407.8 C1291.1,314.08 1371.18,223.5 1553.7,9.32 M1228.56,407.74 C1364.64,254.82 1498.24,96.46 1574.96,9.24 M1228.56,407.74 C1304.62,322.96 1378.58,237.22 1574.96,9.24 M1249.82,407.66 C1345.86,295.98 1444.2,184.14 1596.22,9.18 M1249.82,407.66 C1330.7,315.22 1412.38,221.52 1596.22,9.18 M1271.08,407.6 C1389.62,280.22 1501.88,144.14 1617.48,9.1 M1271.08,407.6 C1343.68,324 1415.72,243.7 1617.48,9.1 M1291.04,409.04 C1429.62,253.08 1562.68,95.34 1638.74,9.04 M1291.04,409.04 C1419.96,261.66 1546.9,115.56 1638.74,9.04 M1312.3,408.96 C1396.74,309.82 1479.92,212.68 1660,8.96 M1312.3,408.96 C1429.06,278.64 1542.96,147.62 1660,8.96 M1333.56,408.9 C1417.26,315.16 1504.78,217.3 1681.26,8.9 M1333.56,408.9 C1413.7,314 1495.56,220.5 1681.26,8.9 M1354.82,408.82 C1485.34,263.32 1607.12,122.8 1702.52,8.84 M1354.82,408.82 C1438.52,311.12 1523.9,214.02 1702.52,8.84 M1376.08,408.76 C1463.04,314.02 1540,221.02 1723.78,8.76 M1376.08,408.76 C1476.18,292.04 1577.92,176.68 1723.78,8.76 M1397.34,408.68 C1520.54,270.68 1637.96,127.66 1745.04,8.7 M1397.34,408.68 C1507.8,276.16 1620.22,145.9 1745.04,8.7 M1418.6,408.62 C1542.84,268.42 1668.32,121.84 1766.3,8.62 M1418.6,408.62 C1533.48,277.46 1645.02,147.88 1766.3,8.62 M1439.86,408.56 C1513.02,323.36 1585.14,237.34 1787.56,8.56 M1439.86,408.56 C1552.62,280.1 1663.94,151.88 1787.56,8.56 M1461.12,408.48 C1563.86,297.3 1657.5,184.1 1808.82,8.48 M1461.12,408.48 C1593.34,257.82 1725.14,107.9 1808.82,8.48 M1482.38,408.42 C1602.34,265.68 1725.32,125.52 1830.08,8.42 M1482.38,408.42 C1579.08,297.9 1674.56,187.18 1830.08,8.42 M1503.64,408.34 C1588.96,306 1681.52,202.8 1851.34,8.34 M1503.64,408.34 C1582.4,313.62 1665.02,218.3 1851.34,8.34 M1524.9,408.28 C1636.46,281.4 1752.1,148.7 1872.6,8.28 M1524.9,408.28 C1606.22,315.8 1686.82,222.54 1872.6,8.28 M1546.16,408.2 C1618.46,324.86 1687.98,247.04 1892.56,9.72 M1546.16,408.2 C1657.08,276.34 1769.16,149 1892.56,9.72 M1567.42,408.14 C1674,284.98 1780.36,163.26 1913.82,9.64 M1567.42,408.14 C1686.08,269.24 1805.14,136.34 1913.82,9.64 M1588.68,408.06 C1669.96,306.88 1754.06,212.04 1935.08,9.58 M1588.68,408.06 C1669.68,317.46 1749.22,227.2 1935.08,9.58 M1609.94,408 C1685.66,317.12 1761.78,234.64 1956.34,9.52 M1609.94,408 C1723.74,277.52 1838.9,143.98 1956.34,9.52 M1631.2,407.92 C1754.9,272.74 1874.86,136.7 1977.6,9.44 M1631.2,407.92 C1757.76,265.38 1882.36,122.42 1977.6,9.44 M1652.46,407.86 C1788.22,251.48 1921.16,93 1998.86,9.38 M1652.46,407.86 C1735.54,315.1 1817.32,220.72 1998.86,9.38 M1673.72,407.8 C1775.42,291.18 1877.68,177.94 2020.12,9.3 M1673.72,407.8 C1776.92,292.36 1875.12,177.96 2020.12,9.3 M1694.98,407.72 C1802.06,284.18 1903.28,164.28 2041.38,9.24 M1694.98,407.72 C1795.02,293.92 1892.4,181.34 2041.38,9.24 M1714.92,409.16 C1822.7,277.7 1937.48,149.4 2062.64,9.16 M1714.92,409.16 C1795.3,322.56 1871.22,230.76 2062.64,9.16 M1736.18,409.1 C1819.8,313.8 1905,215.7 2083.9,9.1 M1736.18,409.1 C1876.04,253.94 2012.2,98.18 2083.9,9.1 M1757.44,409.02 C1849.7,301.26 1942.52,195.14 2105.16,9.02 M1757.44,409.02 C1869.54,279.08 1984,148.02 2105.16,9.02 M1778.7,408.96 C1867.12,308.36 1953.64,213.42 2126.42,8.96 M1778.7,408.96 C1876.22,295.94 1973.54,183.92 2126.42,8.96 M1799.96,408.88 C1876.52,319.24 1957.26,230.14 2146.36,10.4 M1799.96,408.88 C1938.58,252.88 2074.4,95.84 2146.36,10.4 M1821.22,408.82 C1947.38,263.44 2073.78,117.58 2161.06,17.88 M1821.22,408.82 C1945.48,271.2 2066.58,131.06 2161.06,17.88 M1842.48,408.74 C1936.76,296.26 2033.82,185.18 2171.82,29.88 M1842.48,408.74 C1966.96,266.16 2090.86,121.74 2171.82,29.88 M1863.74,408.68 C1923.34,337.9 1988.8,261.6 2177.34,47.92 M1863.74,408.68 C1934.76,324.22 2009.46,240 2177.34,47.92 M1885,408.62 C1954.3,326.48 2023.86,245.56 2188.1,59.94 M1885,408.62 C1966.02,316.64 2048.52,225.04 2188.1,59.94 M1906.26,408.54 C2006.54,290.44 2106.5,179.12 2187.06,85.52 M1906.26,408.54 C1966.64,336.26 2025.62,267.9 2187.06,85.52 M1927.52,408.48 C2022.46,294.96 2117.9,185.44 2187.32,109.6 M1927.52,408.48 C1977.02,349.86 2030.8,288.18 2187.32,109.6 M1948.78,408.4 C2040.04,303.5 2137.22,194.86 2187.6,133.68 M1948.78,408.4 C2042.94,300.86 2134.88,190.3 2187.6,133.68 M1970.04,408.34 C2047.98,314.56 2128.18,221.94 2187.86,157.78 M1970.04,408.34 C2047.22,315.28 2129.26,223.4 2187.86,157.78 M1991.3,408.26 C2043.26,349.02 2103.06,283.78 2188.12,181.86 M1991.3,408.26 C2065.72,325.7 2135.98,241.36 2188.12,181.86 M2012.56,408.2 C2083.1,331.58 2153.76,247.54 2187.08,207.44 M2012.56,408.2 C2061.78,350.58 2110.64,291.52 2187.08,207.44 M2033.82,408.12 C2079.14,353.96 2134.96,296.96 2187.34,231.52 M2033.82,408.12 C2083.74,352.28 2132.46,294.8 2187.34,231.52 M2055.08,408.06 C2104.04,350.66 2148.26,293.96 2187.62,255.6 M2055.08,408.06 C2099.32,358.74 2145.44,306.62 2187.62,255.6 M2076.34,408 C2103.7,372.44 2132.64,345.64 2187.88,279.68 M2076.34,408 C2114.12,364.72 2151.12,322.46 2187.88,279.68 M2097.6,407.92 C2121.64,371.58 2156.16,342.68 2188.14,303.78 M2097.6,407.92 C2120.42,382.56 2139.42,360 2188.14,303.78 M2122.8,403.32 C2144.64,381.54 2167.8,351.92 2187.1,329.36 M2122.8,403.32 C2142.28,380.5 2160.6,356.58 2187.1,329.36 M2148,398.72 C2156.98,388.16 2162.3,386.1 2178.18,364.02 M2148,398.72 C2157.9,384.66 2168.04,374.3 2178.18,364.02" id="Shape" stroke="#FFD8A8" stroke-width="2"></path>
                <path d="M66,4 C766.14,10.46 1465.98,10.18 2116,4 M66,4 C635.12,-0.34 1204.12,-0.6 2116,4 M2116,4 C2157.74,6.58 2181.28,26.22 2180,68 M2116,4 C2154.24,5.06 2176.94,24.78 2180,68 M2180,68 C2182.4,138.98 2184.88,203.08 2180,334.6 M2180,68 C2182.8,167.02 2179.9,269.3 2180,334.6 M2180,334.6 C2177.1,380.86 2155.72,401.54 2116,398.6 M2180,334.6 C2175.82,381.72 2155.3,398.98 2116,398.6 M2116,398.6 C1454.54,401.42 790.84,402.54 66,398.6 M2116,398.6 C1308.28,393.52 501.88,393.42 66,398.6 M66,398.600336 C20.62,398.7 -0.28,376.46 2,334.6 M66,398.6 C27,397.02 -0.96,379.58 2,334.6 M2,334.6 C2.6,283.44 0.04,223.48 2,68 M2,334.6 C-0.32,276 0.1,216.52 2,68 M2,68 C1.2,23.52 22.32,5.54 66,4 M2,68 C6.08,27.26 23.04,0.04 66,4" id="Shape" stroke="#1E1E1E" stroke-width="4"></path>
            </g>
            <g id="Group" transform="translate(905.499146, 1527.250006)" fill="#1E1E1E" font-family="Helvetica" font-size="64.4878393" font-weight="normal">
                <text id="Graph-Database">
                    <tspan x="0.500854492" y="63.2710698">Graph Database</tspan>
                </text>
            </g>
            <g id="Group" transform="translate(253.372929, 1279.286805)">
                <path d="M45.92,6 C152.62,-4.36 255.44,4.08 474.3,6 C498.82,-1.06 518.12,23.28 519.2,50.92 C513.62,75.74 516.42,107.42 519.2,140.74 C515.96,173.14 500.68,183.96 474.3,185.64 C378.12,177.16 286.26,182.34 45.92,185.64 C15.32,190.82 -4.66,167.32 1,140.74 C4.14,120.84 -1.78,98.54 1,50.92 C4.2,22.14 12.78,-0.96 45.92,6" id="Path" fill="#FFD8A8" fill-rule="nonzero"></path>
                <path d="M45.92,6 C193.5,2.44 341.88,5.54 474.3,6 M45.92,6 C193.96,5.78 344.18,5.7 474.3,6 M474.3,6 C503.12,8.88 519.28,19.62 519.200296,50.92 M474.3,6 C506.64,7.72 519.3,18.92 519.2,50.92 M519.2,50.92 C522.54,79.54 519.42,106.22 519.2,140.74 M519.2,50.92 C518.5,76.34 520,104.78 519.2,140.74 M519.2,140.74 C518,168.18 506.68,187 474.3,185.64 M519.2,140.74 C515.7,171.4 507.94,190.06 474.3,185.64 M474.3,185.64 C367.24,181.84 262.54,186.26 45.92,185.64 M474.3,185.64 C311.58,187.8 147.94,187.14 45.92,185.64 M45.92,185.64 C14.86,184.28 -3,171.62 1,140.74 M45.92,185.64 C11.48,181.92 4.66,171.72 1,140.74 M1,140.74 C-0.08,120.46 5.16,100.2 1,50.92 M1,140.74 C0.32,112.96 -0.44,88.18 1,50.92 M1,50.92 C2.62,23.68 13.72,9.24 45.92,6 M1,50.92 C-1.12,20.98 15.26,9.12 45.92,6" id="Shape" stroke="#1E1E1E" stroke-width="4"></path>
            </g>
            <g id="Group" transform="translate(313.867914, 1336.416449)" fill="#1E1E1E" font-family="Helvetica" font-size="64.4878393" font-weight="normal">
                <text id="Lexical-Graph">
                    <tspan x="0.607940674" y="63.2710698">Lexical Graph</tspan>
                </text>
            </g>
            <g id="Group" transform="translate(1396.264364, 1284.125367)">
                <path d="M46.92,5 C165.52,8.08 286.08,6.18 475.3,5 C505.9,0.82 519.82,14.46 520.2,49.92 C519.66,83.04 521,116.54 520.2,139.74 C520.58,166.62 499.4,184.42 475.3,184.64 C304.22,181.78 135.62,191 46.92,184.64 C10.96,184.4 5.3,169.64 2,139.74 C5.86,116.42 -3.48,88.28 2,49.92 C4.88,21.78 10.02,2.92 46.92,5" id="Path" fill="#FFD8A8" fill-rule="nonzero"></path>
                <path d="M46.92,5 C212.34,-1.84 384.52,1.12 475.3,5 M46.92,5 C148.82,7.74 247.32,8.36 475.3,5 M475.3,5 C501.36,2.96 521.14,16.72 520.2,49.92 M475.3,5 C501.8,3.04 523.52,16.8 520.2,49.92 M520.2,49.92 C518.5,74.78 520.96,94.68 520.2,139.74 M520.2,49.92 C518.46,76.74 521.46,102.22 520.2,139.74 M520.2,139.74 C522.7,168.88 505.62,181.04 475.3,184.64 M520.2,139.74 C518.92,172.56 506.5,185.74 475.3,184.64 M475.3,184.64 C361.04,187.24 245.98,186.92 46.92,184.64 M475.3,184.64 C336.64,183.04 199.76,182.64 46.92,184.64 M46.92,184.64 C13.96,182.72 -0.76,169.18 2,139.74 M46.92,184.64 C13.64,180.12 3.98,165.84 2,139.74 M2,139.74 C-0.82,122.54 2.26,103.38 2,49.92 M2,139.74 C3.24,119 3.08,100.26 2,49.92 M2,49.92 C0.3,19.34 17.54,7.34 46.92,5 M2,49.92 C4.68,17.3 17.02,0.82 46.92,5" id="Shape" stroke="#1E1E1E" stroke-width="4"></path>
            </g>
            <g id="Group" transform="translate(1446.652263, 1340.255011)" fill="#1E1E1E" font-family="Helvetica" font-size="64.4878393" font-weight="normal">
                <text id="Domain-Graph">
                    <tspan x="0.715026855" y="63.2710698">Domain Graph</tspan>
                </text>
            </g>
            <g id="Group" transform="translate(798.000000, 1358.000000)" stroke="#F08C00" stroke-width="9">
                <g transform="translate(0.912114, 16.835081)" id="Path" stroke-dasharray="16">
                    <path d="M0.74,8.6 C97.08,7.7 483.76,2.28 579.78,0.52"></path>
                </g>
                <g transform="translate(0.912114, 6.835081)" id="Path">
                    <path d="M47.48,0.88 C34.92,9.2 21.04,9.4 0.74,18.6"></path>
                </g>
                <g transform="translate(0.912114, 24.835081)" id="Path">
                    <path d="M47.94,17.06 C35.54,15.58 21.52,6 0.74,0.6"></path>
                </g>
                <g transform="translate(533.912114, 16.835081)" id="Path">
                    <path d="M0.08,18.36 C14.6,16.98 27.5,7 46.78,0.52"></path>
                </g>
                <g transform="translate(532.912114, 0.835081)" id="Path">
                    <path d="M0.54,0.16 C14.92,8.6 27.96,8.4 47.78,16.52"></path>
                </g>
            </g>
            <g id="Group" transform="translate(512.000000, 1481.000000)" stroke="#1E1E1E" stroke-width="9">
                <g transform="translate(16.937151, 0.275516)" id="Path" stroke-dasharray="16">
                    <path d="M4.18,183.18 C3.48,152.26 1.52,32.06 0.7,0.92"></path>
                </g>
                <g transform="translate(16.937151, 0.275516)" id="Path">
                    <path d="M18.76,47.54 C9.38,35.48 10.18,17.36 0.7,0.92"></path>
                </g>
                <g transform="translate(0.937151, 0.275516)" id="Path">
                    <path d="M0.58,48.24 C2.7,35.92 15.02,17.56 16.7,0.92"></path>
                </g>
            </g>
            <g id="Group" transform="translate(1647.000000, 1495.000000)" stroke="#1E1E1E" stroke-width="9">
                <g transform="translate(16.763972, 0.418736)" id="Path" stroke-dasharray="16">
                    <path d="M2.98,169.36 C1.96,141.08 1.14,28.18 0.96,0.12"></path>
                </g>
                <g transform="translate(16.763972, 0.418736)" id="Path">
                    <path d="M18.4,46.98 C13.6,30.94 6.86,14.52 0.96,0.12"></path>
                </g>
                <g transform="translate(0.763972, 0.418736)" id="Path">
                    <path d="M0.2,47.24 C8.58,31.38 15.04,14.86 16.96,0.12"></path>
                </g>
            </g>
            <g id="Group" transform="translate(1487.000000, 588.000000)" stroke="#1E1E1E" stroke-width="9">
                <g transform="translate(0.670489, 12.883000)" id="Path" stroke-dasharray="16">
                    <path d="M0.56,0.78 C38.14,1.76 190.7,5.5 228.22,7.02"></path>
                </g>
                <g transform="translate(180.670489, 19.883000)" id="Path">
                    <path d="M0.72,15.64 C14.4,11.84 30.72,2.48 48.22,0.02"></path>
                </g>
                <g transform="translate(181.670489, 0.883000)" id="Path">
                    <path d="M0.8,0.46 C13.98,7.92 29.96,9.84 47.22,19.02"></path>
                </g>
            </g>
            <g id="Group" transform="translate(3256.761769, 234.000000)">
                <path d="M7.62,45.86 C16.92,33.18 31.36,26.08 36.48,12.64 M7.62,45.86 C18.9,34.18 28.28,20.86 36.48,12.64 M7.88,69.94 C19.74,56.54 31.58,44.56 59.06,11.06 M7.88,69.94 C19.62,52.7 35.06,39.48 59.06,11.06 M8.14,94.02 C30.96,67.48 48.32,47.84 80.32,11 M8.14,94.02 C36.34,62.5 65.38,28.3 80.32,11 M8.42,118.1 C27.58,97.5 45.18,74.74 101.58,10.92 M8.42,118.1 C43.74,74.9 81.6,32.78 101.58,10.92 M7.36,143.68 C43.54,100.44 75.9,60.38 122.84,10.86 M7.36,143.68 C37.38,108.68 68.16,71.6 122.84,10.86 M8.94,166.26 C54.58,119.76 98.3,65.42 144.1,10.78 M8.94,166.26 C52.96,114.8 100.2,64.34 144.1,10.78 M13.14,185.82 C50.7,140.54 90.9,95.72 165.36,10.72 M13.14,185.82 C59.94,130.22 108.02,73.32 165.36,10.72 M27.84,193.3 C62.16,145.84 105.24,101.94 186.62,10.66 M27.84,193.3 C74.02,139.9 119.8,89.7 186.62,10.66 M39.92,203.78 C102.92,126.76 170.74,53.76 207.88,10.58 M39.92,203.78 C99.58,138.9 152.68,72.24 207.88,10.58 M59.88,205.22 C120.54,134.5 176.88,72.66 229.14,10.52 M59.88,205.22 C119.54,140.6 173.18,75.6 229.14,10.52 M81.14,205.16 C110.42,164.82 151.16,129.06 249.08,11.96 M81.14,205.16 C122.02,161.88 160.72,116.16 249.08,11.96 M102.4,205.1 C151.06,149.22 194.96,98.32 270.34,11.88 M102.4,205.1 C164.98,136.5 227.28,68.14 270.34,11.88 M123.66,205.02 C157.32,168.76 196.96,126.16 291.6,11.82 M123.66,205.02 C187.18,131.74 250.86,60.12 291.6,11.82 M144.92,204.96 C200.98,141.26 256.42,73.88 312.86,11.74 M144.92,204.96 C201.26,138.72 259.76,71 312.86,11.74 M164.86,206.4 C222.08,140.94 281.52,71.9 334.12,11.68 M164.86,206.4 C210.42,152.14 258.12,99.7 334.12,11.68 M186.12,206.32 C240.78,141.98 296.8,79.58 355.38,11.6 M186.12,206.32 C228.34,157.7 269.52,111.72 355.38,11.6 M207.38,206.26 C246.98,163.18 276.72,122.2 376.64,11.54 M207.38,206.26 C254.56,150.84 302.84,91.56 376.64,11.54 M228.64,206.18 C289.78,141.16 344.2,72.68 397.9,11.48 M228.64,206.18 C284.6,140.46 340.06,76.82 397.9,11.48 M249.9,206.12 C317.08,130.7 377.82,56.64 419.16,11.4 M249.9,206.12 C303.82,144.82 356.46,87.16 419.16,11.4 M271.16,206.04 C327.28,137.58 391.94,71.44 445.68,5.3 M271.16,206.04 C317.64,150.66 365.46,99.1 445.68,5.3 M292.42,205.98 C347.76,138.42 411.98,65.38 465.62,6.74 M292.42,205.98 C341.56,148.16 394.86,88.46 465.62,6.74 M313.68,205.92 C373.1,142.84 427.96,73.54 479,15.72 M313.68,205.92 C346.52,165.26 381.22,127.08 479,15.72 M334.94,205.84 C384.98,150.16 433.06,92.96 491.08,26.22 M334.94,205.84 C387.22,150.3 434.9,89.62 491.08,26.22 M356.2,205.78 C399.24,154.44 441.88,109.66 496.6,44.26 M356.2,205.78 C400.86,158.42 440.62,107 496.6,44.26 M377.46,205.7 C410.84,175.28 436.2,138.42 496.86,68.34 M377.46,205.7 C419.1,159.88 457.98,113.1 496.86,68.34 M398.72,205.64 C439.1,162.56 473.46,121.76 495.82,93.94 M398.72,205.64 C437.4,159.16 477.08,115.36 495.82,93.94 M419.98,205.56 C449.42,167.74 476.62,136.7 496.08,118.02 M419.98,205.56 C435.28,187.76 454.02,169.8 496.08,118.02 M446.5,199.46 C461.44,178.88 478.96,163.6 496.36,142.1 M446.5,199.46 C464.32,181.7 482.6,162.66 496.36,142.1" id="Shape" stroke="#B2F2BB" stroke-width="2"></path>
                <path d="M49.5,3 C152.94,8.32 258.66,5.78 442.98,3 M49.5,3 C183.82,0.2 315.44,-0.16 442.98,3 M442.98,3 C478.46,-0.22 493.26,22.7 491.48,51.5 M442.98,3 C473.76,2.3 493.3,19.58 491.48,51.5 M491.48,51.5 C488.88,78.44 492.4,115.16 491.48,148.5 M491.48,51.5 C491.7,80.16 490.98,112 491.48,148.5 M491.48,148.5 C494.2,179.94 479.18,195.88 442.98,197 M491.48,148.5 C492.06,182.58 478.7,196.96 442.98,197 M442.98,197 C285.8,192.74 133.56,197.46 49.5,197 M442.98,197 C312.04,197.34 184.06,193.52 49.5,197 M49.5,197 C13.32,196.46 0.56,181.6 1,148.5 M49.5,197 C19.5,197.18 -1.56,181.02 1,148.5 M1,148.5 C-0.88,119.62 0.74,93.5 1,51.5 M1,148.5 C1.9,116.78 0.48,88.3 1,51.5 M1,51.5 C0.8,19.16 15.64,0.98 49.5,3 M1,51.5 C-2.14,16.48 16.74,2.7 49.5,3" id="Shape" stroke="#1E1E1E" stroke-width="4"></path>
            </g>
            <g id="Group" transform="translate(3381.437500, 289.800000)" fill="#1E1E1E" font-family="Helvetica" font-size="72" font-weight="normal">
                <text id="Answer">
                    <tspan x="0.5625" y="69.525">Answer</tspan>
                </text>
            </g>
            <g id="Group" transform="translate(3061.000000, 318.000000)" stroke="#1E1E1E" stroke-width="9">
                <g transform="translate(0.880290, 14.174903)" id="Path" stroke-dasharray="16">
                    <path d="M0.04,0.24 C28.48,1.3 141.48,3.82 170.06,4.88"></path>
                </g>
                <g transform="translate(122.880290, 18.174903)" id="Path">
                    <path d="M0.6,16.62 C15.78,9.66 26.48,7.62 48.06,0.88"></path>
                </g>
                <g transform="translate(123.880290, 0.174903)" id="Path">
                    <path d="M0.58,0.42 C15.42,2.88 25.86,10.26 47.06,18.88"></path>
                </g>
            </g>
        </g>
    </g>
</svg>