<?xml version="1.0" encoding="UTF-8"?>
<svg width="1460px" height="1336px" viewBox="0 0 1460 1336" version="1.1" xmlns="http://www.w3.org/2000/svg" xmlns:xlink="http://www.w3.org/1999/xlink">
    <!-- Generator: Sketch 59.1 (86144) - https://sketch.com -->
    <title>GraphRAG Triangle</title>
    <desc>Created with Sketch.</desc>
    <g id="Page-1" stroke="none" stroke-width="1" fill="none" fill-rule="evenodd">
        <g id="Artboard" transform="translate(-90.000000, -619.000000)">
            <g id="GraphRAG-Triangle" transform="translate(0.000000, 579.851681)">
                <g id="graphrag-logo" transform="translate(91.000000, 40.000000)">
                    <g id="logo">
                        <path d="M51.6369059,1224.55831 C100.232947,1290.71055 178.58093,1333.64832 266.957566,1333.64832 L266.957566,1333.64832 L285.685463,1333.6565 C234.497272,1337.20579 181.73646,1326.066 133.957566,1298.48084 C100.754492,1279.31103 73.2264015,1254.08666 51.9627101,1225.00745 Z M862.957566,35.8157996 C990.661696,109.545814 1034.41636,272.840452 960.686348,400.544582 L730.262783,799.648 L266.957566,799.648319 C175.342021,799.648319 94.5036784,845.791003 46.4147826,916.104126 L498.228783,133.544582 C571.958797,5.84045193 735.253435,-37.9142145 862.957566,35.8157996 Z" id="Combined-Shape" fill="#F8E71C"></path>
                        <path d="M728.650566,799.648 L960.228783,1200.75206 C1006.37364,1280.67729 1087.60131,1327.71919 1173.22967,1333.6565 L267.957566,1333.64832 C120.497537,1333.64832 0.957565621,1214.10835 0.957565621,1066.64832 C0.957565621,919.188291 120.497537,799.648319 267.957566,799.648319 L728.650566,799.648 Z M1458.95757,1066.64832 C1458.95757,1125.74693 1439.75678,1180.36096 1407.25311,1224.59248 C1467.50457,1141.86351 1477.1556,1028.09556 1422.68635,933.752055 L1422.68635,933.752055 L1412.5058,916.112094 C1441.81518,958.970091 1458.95757,1010.8073 1458.95757,1066.64832 Z" id="Combined-Shape" fill="#E3122B"></path>
                        <path d="M970.798295,152.779293 L1421.68635,933.752055 C1495.41636,1061.45619 1451.6617,1224.75082 1323.95757,1298.48084 C1196.25344,1372.21085 1032.9588,1328.45619 959.228783,1200.75206 L728.956779,801.91 L960.686348,400.544582 C1006.20459,321.70468 1006.94495,229.299883 970.798295,152.779293 Z M728.957561,0.00105254131 L725.275662,0.0368042615 C634.566752,1.54351671 546.890592,49.2598563 498.228783,133.544582 L498.228783,133.544582 L487.117779,152.777296 C509.521217,105.351392 546.094023,64.0271792 594.957566,35.8157996 C637.237075,11.4057134 683.417659,-0.126882506 728.957561,0.00105254131 Z" id="Combined-Shape" fill="#4A90E2"></path>
                        <circle id="Oval" stroke="#7ED321" fill="#7ED321" cx="728.957566" cy="266.648319" r="266.5"></circle>
                        <circle id="Oval-Copy-2" stroke="#ED9A12" fill="#ED9A12" cx="266.5" cy="1067.64832" r="266.5"></circle>
                        <circle id="Oval" fill="#6E29AA" cx="1191.41513" cy="1067.64832" r="266.5"></circle>
                        <circle id="Oval-Copy-5" fill="#4A90E2" cx="728.457566" cy="267.148319" r="89"></circle>
                        <circle id="Oval-Copy-6" fill="#E3122B" cx="1191.45757" cy="1068.14832" r="89"></circle>
                        <circle id="Oval-Copy-7" fill="#F8E71C" cx="266.457566" cy="1068.14832" r="89"></circle>
                    </g>
                </g>
            </g>
        </g>
    </g>
</svg>