<svg version="1.1" xmlns="http://www.w3.org/2000/svg" viewBox="0 0 788.0913096441723 330.04624710739756" width="788.0913096441723" height="330.04624710739756">
  <!-- svg-source:excalidraw -->
  
  <defs>
    <style class="style-fonts">
      @font-face {
        font-family: "Virgil";
        src: url("https://excalidraw.com/Virgil.woff2");
      }
      @font-face {
        font-family: "Cascadia";
        src: url("https://excalidraw.com/Cascadia.woff2");
      }
      @font-face {
        font-family: "Assistant";
        src: url("https://excalidraw.com/Assistant-Regular.woff2");
      }
    </style>
    
  </defs>
  <g stroke-linecap="round" transform="translate(121.15658225730454 35.463268383993295) rotate(0 142.29148936170213 142.29148936170213)"><path d="M203.51 14.08 C217.11 17.99, 229.96 28.88, 240.62 39.16 C251.28 49.43, 260.4 62.85, 267.48 75.72 C274.55 88.6, 280.42 102.21, 283.09 116.39 C285.76 130.56, 285.52 146.01, 283.5 160.75 C281.47 175.5, 277.38 191.55, 270.93 204.85 C264.48 218.15, 255.2 230.2, 244.82 240.56 C234.44 250.91, 221.66 260.1, 208.65 266.99 C195.64 273.88, 181.04 279.24, 166.76 281.87 C152.47 284.51, 137.22 284.72, 122.94 282.79 C108.66 280.86, 94.29 276.61, 81.09 270.32 C67.9 264.03, 54.49 255.36, 43.77 245.04 C33.05 234.73, 23.77 221.34, 16.77 208.44 C9.77 195.53, 4.39 182.02, 1.79 167.61 C-0.81 153.2, -0.99 136.6, 1.17 121.97 C3.33 107.34, 8.47 92.99, 14.75 79.82 C21.04 66.65, 28.75 53.39, 38.88 42.94 C49 32.5, 62.4 23.82, 75.49 17.17 C88.57 10.52, 103.04 5.81, 117.4 3.04 C131.76 0.28, 144.18 -2.93, 161.63 0.57 C179.08 4.07, 209.85 17.78, 222.11 24.03 C234.37 30.28, 236.71 35.96, 235.17 38.08 M109.14 5.44 C121.77 0.22, 137.18 -0.4, 151.81 0.63 C166.45 1.66, 183.25 6.06, 196.96 11.63 C210.67 17.19, 222.79 24.89, 234.07 34.01 C245.35 43.14, 256.98 53.88, 264.64 66.39 C272.29 78.9, 276.76 94.48, 280.02 109.07 C283.28 123.65, 285.13 139.55, 284.22 153.91 C283.31 168.27, 279.89 181.77, 274.54 195.23 C269.2 208.69, 261.66 223.52, 252.14 234.69 C242.62 245.86, 229.9 254.87, 217.42 262.25 C204.95 269.64, 191.64 275.39, 177.31 279.01 C162.97 282.63, 146.27 285.02, 131.42 283.98 C116.57 282.94, 101.61 278.26, 88.2 272.79 C74.79 267.32, 62 260.23, 50.97 251.16 C39.94 242.09, 29.89 230.65, 22.02 218.37 C14.15 206.09, 7.43 192.12, 3.74 177.49 C0.05 162.85, -1.31 145.36, -0.15 130.57 C1.02 115.78, 4.89 102.29, 10.73 88.76 C16.57 75.23, 25.42 60.68, 34.89 49.38 C44.36 38.08, 55.3 28.62, 67.55 20.98 C79.8 13.34, 101.7 5.68, 108.38 3.52 C115.06 1.36, 107.17 5.62, 107.62 8.01" stroke="none" stroke-width="0" fill="#ffd8a8"></path><path d="M79.23 15.2 C90.36 7.13, 105.79 4.35, 120.27 2.24 C134.74 0.13, 151.33 0.2, 166.07 2.56 C180.81 4.91, 195.66 9.76, 208.71 16.38 C221.76 22.99, 234.36 31.95, 244.35 42.24 C254.33 52.54, 262.01 65.05, 268.61 78.13 C275.2 91.21, 281.56 106.29, 283.93 120.73 C286.29 135.17, 285.31 150.15, 282.81 164.76 C280.32 179.38, 275.72 195.42, 268.96 208.42 C262.2 221.42, 252.81 232.65, 242.26 242.77 C231.71 252.89, 218.71 262.52, 205.64 269.15 C192.58 275.78, 178.45 280.27, 163.85 282.55 C149.26 284.83, 132.63 285.27, 118.08 282.82 C103.53 280.36, 89.38 274.55, 76.56 267.81 C63.74 261.08, 51.26 252.82, 41.16 242.4 C31.05 231.98, 22.49 218.39, 15.94 205.3 C9.38 192.21, 4.26 178.29, 1.84 163.85 C-0.57 149.41, -0.89 133.27, 1.44 118.66 C3.77 104.05, 8.79 89.08, 15.8 76.19 C22.81 63.3, 31.43 52.34, 43.48 41.33 C55.53 30.32, 79.17 15.23, 88.09 10.14 C97.01 5.04, 96.33 8.25, 97.01 10.74 M130.78 -0.23 C144.51 -3.48, 161.98 1.4, 176.35 5.18 C190.71 8.96, 204.42 14.85, 216.97 22.44 C229.51 30.02, 242.2 39.56, 251.63 50.67 C261.06 61.79, 268.16 75.42, 273.53 89.12 C278.91 102.82, 282.54 118.6, 283.89 132.89 C285.24 147.18, 285.28 160.91, 281.66 174.85 C278.04 188.79, 270.18 203.66, 262.15 216.52 C254.12 229.38, 244.36 242.61, 233.48 252.01 C222.61 261.41, 210.14 267.39, 196.9 272.91 C183.66 278.42, 168.86 283.84, 154.04 285.11 C139.23 286.38, 122.45 284.27, 108.04 280.54 C93.63 276.81, 80.09 270.61, 67.61 262.74 C55.12 254.88, 42.77 244.41, 33.13 233.36 C23.49 222.31, 15.35 209.71, 9.76 196.44 C4.16 183.17, 0.72 168.34, -0.41 153.71 C-1.55 139.08, -0.42 123, 2.94 108.66 C6.3 94.32, 11.73 79.93, 19.76 67.66 C27.8 55.39, 39.61 44.45, 51.16 35.02 C62.71 25.59, 75.93 17.02, 89.07 11.1 C102.21 5.18, 122.71 0.58, 130 -0.51 C137.29 -1.61, 132.32 1.95, 132.81 4.53" stroke="#f08c00" stroke-width="4" fill="none"></path></g><g stroke-linecap="round" transform="translate(208.72621731437107 106.75475774569543) rotate(0 58.36092715231791 8.293210428971975)"><path d="M-0.01 2.64 C-0.01 2.64, -0.01 2.64, -0.01 2.64 M-0.01 2.64 C-0.01 2.64, -0.01 2.64, -0.01 2.64 M0.78 13.93 C3.07 10.55, 5.02 7.5, 12.59 0.34 M0.78 13.93 C5.1 8.31, 9.6 4.83, 12.59 0.34 M8.79 16.91 C11.52 10.98, 16.3 7.51, 23.22 0.31 M8.79 16.91 C12.38 12.84, 15.92 7.5, 23.22 0.31 M19.42 16.88 C21.33 13.66, 25.95 6.76, 33.85 0.27 M19.42 16.88 C22.76 13.93, 25.71 8.64, 33.85 0.27 M30.05 16.84 C34.01 9.53, 41.5 4.49, 44.48 0.24 M30.05 16.84 C36.58 9.85, 41.31 4.76, 44.48 0.24 M40.68 16.81 C47.89 9.34, 50.76 5.36, 55.11 0.21 M40.68 16.81 C44.32 12.55, 49.6 6.88, 55.11 0.21 M51.31 16.77 C54.01 12.75, 57.55 7.52, 65.74 0.17 M51.31 16.77 C56.91 10.87, 61.88 5.15, 65.74 0.17 M61.94 16.74 C66.71 11.74, 68.43 9.06, 76.37 0.14 M61.94 16.74 C67.08 11.48, 70.61 7.49, 76.37 0.14 M72.57 16.71 C78.26 10.4, 81.42 7.41, 87 0.1 M72.57 16.71 C76.9 9.7, 83.81 5.33, 87 0.1 M82.54 17.43 C90.39 12.2, 93.99 5.38, 97.63 0.07 M82.54 17.43 C88.72 11, 94.23 4.56, 97.63 0.07 M93.17 17.39 C99.19 11.8, 105.53 5.76, 108.26 0.03 M93.17 17.39 C97.54 11.44, 103.89 4.77, 108.26 0.03 M103.8 17.36 C107.02 13.75, 110.56 7.93, 116.92 2.26 M103.8 17.36 C108.65 12.48, 113.19 6.74, 116.92 2.26" stroke="#1e1e1e" stroke-width="1" fill="none"></path><path d="M4.15 0 C29.35 0.34, 51.55 1.44, 112.58 0 M4.15 0 C27.42 0.38, 49.79 0.22, 112.58 0 M112.58 0 C114.83 -1.98, 115.53 3.22, 116.72 4.15 M112.58 0 C114.3 0.38, 114.58 2.34, 116.72 4.15 M116.72 4.15 C116.56 6.68, 117.11 9.57, 116.72 12.44 M116.72 4.15 C116.43 6.09, 116.87 8.18, 116.72 12.44 M116.72 12.44 C115.61 15.74, 116.23 15.59, 112.58 16.59 M116.72 12.44 C116.2 14.65, 114.25 18.84, 112.58 16.59 M112.58 16.59 C75.54 16, 36.32 17.27, 4.15 16.59 M112.58 16.59 C81.26 16.74, 51.19 17.96, 4.15 16.59 M4.15 16.59 C1.47 18.33, 1.25 15.95, 0 12.44 M4.15 16.59 C0.87 18.11, -0.43 17.44, 0 12.44 M0 12.44 C-0.16 8.81, 0.78 6.51, 0 4.15 M0 12.44 C-0.25 10.47, -0.07 8.33, 0 4.15 M0 4.15 C-1.02 -0.1, 0.11 -0.02, 4.15 0 M0 4.15 C-1.27 2.25, -0.25 -0.17, 4.15 0" stroke="#1e1e1e" stroke-width="2" fill="none"></path></g><g stroke-linecap="round" transform="translate(207.94807161900712 143.4818325025716) rotate(0 58.36092715231791 8.293210428971975)"><path d="M-0.01 2.64 C-0.01 2.64, -0.01 2.64, -0.01 2.64 M-0.01 2.64 C-0.01 2.64, -0.01 2.64, -0.01 2.64 M1.44 13.17 C2.52 10.89, 5.53 10.14, 9.31 4.12 M1.44 13.17 C3.47 11.6, 4.76 9.15, 9.31 4.12 M6.82 19.18 C8.91 16.06, 11.9 14.2, 19.94 4.08 M6.82 19.18 C10.66 13.69, 14.18 10.43, 19.94 4.08 M17.45 19.14 C20.47 13.17, 23.49 11.14, 30.57 4.05 M17.45 19.14 C21.7 13.23, 26.64 8.78, 30.57 4.05 M28.08 19.11 C33.11 14.25, 36.7 9.26, 41.2 4.01 M28.08 19.11 C32.7 14.48, 37.83 8.56, 41.2 4.01 M38.71 19.07 C42.21 15.15, 47.12 10.88, 51.83 3.98 M38.71 19.07 C43.54 14.04, 46.92 9.6, 51.83 3.98 M49.34 19.04 C51.53 14.61, 55.1 13.56, 61.8 4.7 M49.34 19.04 C54.36 13.77, 57.05 9.26, 61.8 4.7 M59.97 19 C64.07 14.08, 67.76 9.22, 72.43 4.66 M59.97 19 C62.38 16.64, 64.8 13.73, 72.43 4.66 M70.6 18.97 C74.67 15.18, 78.78 11.82, 83.06 4.63 M70.6 18.97 C76.43 14.2, 81.49 7.87, 83.06 4.63 M81.23 18.93 C85.53 14.95, 92.29 7.36, 93.69 4.6 M81.23 18.93 C86.14 13.81, 91.26 7.95, 93.69 4.6 M91.86 18.9 C96.59 15.81, 100.57 9.37, 104.32 4.56 M91.86 18.9 C95.51 14.48, 98.08 11.36, 104.32 4.56 M102.49 18.87 C105.6 13.52, 109.75 11.66, 116.92 2.26 M102.49 18.87 C107.65 13.05, 112.5 7.33, 116.92 2.26" stroke="#1e1e1e" stroke-width="1" fill="none"></path><path d="M4.15 0 C27.63 0.79, 47.3 1.69, 112.58 0 M4.15 0 C41.04 -0.23, 77 -1.85, 112.58 0 M112.58 0 C114.15 1.83, 115.82 1.72, 116.72 4.15 M112.58 0 C113.19 0.96, 117.87 1.79, 116.72 4.15 M116.72 4.15 C117.08 5.46, 116.04 7.68, 116.72 12.44 M116.72 4.15 C116.79 6.95, 116.43 9.07, 116.72 12.44 M116.72 12.44 C117.62 14.21, 114.89 16.11, 112.58 16.59 M116.72 12.44 C115.63 17.45, 116.42 18.76, 112.58 16.59 M112.58 16.59 C89.69 18.59, 68.56 17.45, 4.15 16.59 M112.58 16.59 C74.54 16.9, 35.82 16.99, 4.15 16.59 M4.15 16.59 C2.63 17.33, -0.45 16.53, 0 12.44 M4.15 16.59 C0.96 18.82, 1.66 13.73, 0 12.44 M0 12.44 C0.75 10.92, -0.51 9.4, 0 4.15 M0 12.44 C0.02 9.23, -0.17 6.11, 0 4.15 M0 4.15 C-1.28 1.36, 0.28 0.75, 4.15 0 M0 4.15 C-1.63 1.21, -0.71 -0.03, 4.15 0" stroke="#1e1e1e" stroke-width="2" fill="none"></path></g><g stroke-linecap="round" transform="translate(207.94807161900712 179.02416291245152) rotate(0 58.36092715231791 8.293210428971975)"><path d="M-0.01 2.64 C-0.01 2.64, -0.01 2.64, -0.01 2.64 M-0.01 2.64 C-0.01 2.64, -0.01 2.64, -0.01 2.64 M1.44 13.17 C4.3 11.59, 4.79 8.53, 9.31 4.12 M1.44 13.17 C2.92 11.12, 4.1 9.02, 9.31 4.12 M6.82 19.18 C9.12 17.25, 13.15 12.04, 19.94 4.08 M6.82 19.18 C10.52 14.81, 14.91 8.93, 19.94 4.08 M17.45 19.14 C20.59 14.58, 27.4 8.99, 30.57 4.05 M17.45 19.14 C22.92 13.31, 27.13 7.2, 30.57 4.05 M28.08 19.11 C32.4 13.94, 34.67 14.4, 41.2 4.01 M28.08 19.11 C31.87 15.39, 34.52 12.8, 41.2 4.01 M38.71 19.07 C41.88 16.99, 45.64 10.73, 51.83 3.98 M38.71 19.07 C42.98 14.07, 47.64 7.31, 51.83 3.98 M49.34 19.04 C53.63 15.32, 57.35 12.39, 61.8 4.7 M49.34 19.04 C51.86 15.23, 56.28 11.95, 61.8 4.7 M59.97 19 C62.8 14.99, 63.87 13.87, 72.43 4.66 M59.97 19 C63.04 15.76, 66.22 12.37, 72.43 4.66 M70.6 18.97 C74.52 16.69, 77.88 11.03, 83.06 4.63 M70.6 18.97 C74.1 15.89, 76.77 13.53, 83.06 4.63 M81.23 18.93 C87.55 13.01, 92.37 8.6, 93.69 4.6 M81.23 18.93 C85.95 14.08, 89.35 9.8, 93.69 4.6 M91.86 18.9 C97.02 13.37, 99.8 7.08, 104.32 4.56 M91.86 18.9 C95.13 14.65, 98.44 10.4, 104.32 4.56 M102.49 18.87 C107.85 13.96, 112.17 9.35, 116.92 2.26 M102.49 18.87 C107.68 12.94, 111.59 7.25, 116.92 2.26" stroke="#1e1e1e" stroke-width="1" fill="none"></path><path d="M4.15 0 C31.26 1.1, 62.76 1, 112.58 0 M4.15 0 C44.96 -1.67, 85.68 0.24, 112.58 0 M112.58 0 C114.44 0.33, 114.86 2.22, 116.72 4.15 M112.58 0 C116.49 0.4, 114.52 0.9, 116.72 4.15 M116.72 4.15 C116.09 6.41, 116.68 7.78, 116.72 12.44 M116.72 4.15 C116.52 6.99, 116.93 9.41, 116.72 12.44 M116.72 12.44 C116.27 14.72, 114.39 18.54, 112.58 16.59 M116.72 12.44 C117.8 17.38, 113.08 17.25, 112.58 16.59 M112.58 16.59 C77.13 18.13, 43.38 16.66, 4.15 16.59 M112.58 16.59 C84.75 18.31, 57.46 17.81, 4.15 16.59 M4.15 16.59 C0.93 17.91, -0.37 17.14, 0 12.44 M4.15 16.59 C3.04 15.12, -1.99 14.62, 0 12.44 M0 12.44 C-0.6 10.99, 0.45 8.15, 0 4.15 M0 12.44 C-0.21 9.67, -0.26 7.5, 0 4.15 M0 4.15 C-1.11 2.13, -0.04 -0.15, 4.15 0 M0 4.15 C-2.1 1.35, 2.99 1.73, 4.15 0" stroke="#1e1e1e" stroke-width="2" fill="none"></path></g><g stroke-linecap="round" transform="translate(214.1732371819205 221.67495940430751) rotate(0 41.241721854304615 8.293210428971975)"><path d="M1.1 0.96 C1.1 0.96, 1.1 0.96, 1.1 0.96 M1.1 0.96 C1.1 0.96, 1.1 0.96, 1.1 0.96 M0.58 13.76 C2.2 10.42, 5.15 7.35, 12.39 0.17 M0.58 13.76 C4.05 8.34, 8.34 3.83, 12.39 0.17 M8.59 16.74 C13.08 11.61, 17.89 6.23, 23.02 0.14 M8.59 16.74 C11.42 12.46, 15.02 9.56, 23.02 0.14 M19.22 16.7 C23.19 13.37, 27.3 9.17, 33.65 0.1 M19.22 16.7 C22.03 12.5, 24.78 10.04, 33.65 0.1 M29.19 17.43 C33.85 15, 35.39 9.16, 44.28 0.07 M29.19 17.43 C34.71 12.16, 39.21 4.72, 44.28 0.07 M39.82 17.39 C45.72 10.13, 51.82 6, 54.91 0.03 M39.82 17.39 C43.67 11.58, 49.23 6.23, 54.91 0.03 M50.45 17.36 C54.45 15.23, 56.2 11.83, 64.88 0.75 M50.45 17.36 C54.59 13.78, 57.53 8.69, 64.88 0.75 M61.08 17.32 C63.14 14.33, 68.19 8.17, 75.51 0.72 M61.08 17.32 C66.04 12.21, 70.5 5.87, 75.51 0.72 M71.71 17.29 C76.71 11.84, 77.14 10.68, 82.86 4.46 M71.71 17.29 C76.65 13.15, 80.91 7.22, 82.86 4.46" stroke="#1e1e1e" stroke-width="1" fill="none"></path><path d="M4.15 0 C28.75 0.74, 53.44 0.19, 78.34 0 M4.15 0 C30.43 1.65, 57.46 0.9, 78.34 0 M78.34 0 C79.24 0.84, 83.48 1.73, 82.48 4.15 M78.34 0 C78.9 -0.49, 81.45 2.42, 82.48 4.15 M82.48 4.15 C82.34 5.65, 82.66 8.62, 82.48 12.44 M82.48 4.15 C82.62 7.22, 82.34 10.6, 82.48 12.44 M82.48 12.44 C81.54 17.16, 82.04 18.47, 78.34 16.59 M82.48 12.44 C80.22 15.87, 81.65 15.4, 78.34 16.59 M78.34 16.59 C50.68 15.93, 20 17.53, 4.15 16.59 M78.34 16.59 C50.9 17.6, 21.99 17.9, 4.15 16.59 M4.15 16.59 C1.01 18.53, 1.44 13.92, 0 12.44 M4.15 16.59 C-0.61 16, -1.51 17.22, 0 12.44 M0 12.44 C0.57 9.3, 0.03 6.93, 0 4.15 M0 12.44 C-0.22 10.34, -0.19 8.4, 0 4.15 M0 4.15 C-1.42 1.23, -0.44 -0.03, 4.15 0 M0 4.15 C1.6 3.11, 2.82 0.59, 4.15 0" stroke="#1e1e1e" stroke-width="2" fill="none"></path></g><g stroke-linecap="round" transform="translate(10 10) rotate(0 131.5 33.50000000000006)"><path d="M16.75 0 C68.39 2.14, 125.31 0.02, 246.25 0 C255.83 -2.99, 264.49 7.28, 263 16.75 C264.4 27.5, 262.2 30.39, 263 50.25 C263.15 62.89, 254.06 64.03, 246.25 67 C180.95 67.31, 121.17 66.86, 16.75 67 C5 68.44, -1.67 64.83, 0 50.25 C-1.63 45.96, -0.56 37.91, 0 16.75 C0.17 3.01, 7.36 2.29, 16.75 0" stroke="none" stroke-width="0" fill="#ffd8a8"></path><path d="M16.75 0 C104.23 0.56, 192.02 1.04, 246.25 0 M16.75 0 C94.97 0.76, 174.9 0.16, 246.25 0 M246.25 0 C256.64 -0.22, 261.42 5.36, 263 16.75 M246.25 0 C257.68 -0.12, 261.1 6.57, 263 16.75 M263 16.75 C263.81 27.85, 262.67 38.21, 263 50.25 M263 16.75 C263.38 26.14, 262.14 33.33, 263 50.25 M263 50.25 C261.76 62.37, 255.85 68.94, 246.25 67 M263 50.25 C260.92 62.6, 257.76 66.3, 246.25 67 M246.25 67 C193.22 66.84, 137.72 68.41, 16.75 67 M246.25 67 C197.22 66.98, 147.4 66.79, 16.75 67 M16.75 67 C7.36 65.44, -0.85 61.73, 0 50.25 M16.75 67 C3.61 68.28, 0.01 61.89, 0 50.25 M0 50.25 C1.55 40.37, 0.97 32.32, 0 16.75 M0 50.25 C-0.1 42.59, 0.18 35.24, 0 16.75 M0 16.75 C-1.76 5.53, 4.22 -0.42, 16.75 0 M0 16.75 C0.75 5.28, 7.49 0.51, 16.75 0" stroke="#f08c00" stroke-width="2" fill="none"></path></g><g transform="translate(100.484375 26.700000000000045) rotate(0 41.015625 16.80000000000001)"><text x="41.015625" y="27.0375" font-family="Cascadia, Segoe UI Emoji" font-size="28px" fill="#1e1e1e" text-anchor="middle" style="white-space: pre;" direction="ltr" dominant-baseline="alphabetic">:Text</text></g><g stroke-linecap="round" transform="translate(366.3767192240398 102.79585133768217) rotate(0 205.85729521006624 83.34982876711922)"><path d="M3.77 0.87 L407.9 3.37 L409.57 164.09 L2.57 166.68" stroke="none" stroke-width="0" fill="#f8f1ee"></path><path d="M1.25 1.78 C148.05 0.54, 298.1 3.4, 411.2 1.63 M0.92 0.97 C91.88 -0.35, 184.05 -0.95, 411.14 -0.84 M412.21 2.9 C410.14 64.89, 414.76 123.28, 415.13 166.63 M413.58 -1.1 C414.35 41.68, 414.36 85.34, 412.61 166.92 M409.63 167.65 C255.67 168.61, 101.72 166.33, -0.09 168.63 M412.16 165.97 C279.15 171.34, 149.35 171.54, 0.07 165.91 M1.04 170.35 C-3.15 107.51, 1.45 37.88, 1.65 2.02 M-1.24 165.26 C-0.98 117.6, -4.24 64.74, -0.88 -0.26" stroke="#1e1e1e" stroke-width="1" fill="none"></path></g><g transform="translate(371.3767192240398 107.79585133768217) rotate(0 180.46875 33.60000000000002)"><text x="0" y="27.0375" font-family="Cascadia, Segoe UI Emoji" font-size="28px" fill="#1e1e1e" text-anchor="start" style="white-space: pre;" direction="ltr" dominant-baseline="alphabetic">text: string</text><text x="0" y="60.6375" font-family="Cascadia, Segoe UI Emoji" font-size="28px" fill="#1e1e1e" text-anchor="start" style="white-space: pre;" direction="ltr" dominant-baseline="alphabetic">textEmbedding: float[]</text></g></svg>