<svg version="1.1" xmlns="http://www.w3.org/2000/svg" viewBox="0 0 1212.5829787234043 309.58297872340427" width="2425.1659574468085" height="619.1659574468085">
  <!-- svg-source:excalidraw -->
  
  <defs>
    <style class="style-fonts">
      @font-face {
        font-family: "Virgil";
        src: url("https://excalidraw.com/Virgil.woff2");
      }
      @font-face {
        font-family: "Cascadia";
        src: url("https://excalidraw.com/Cascadia.woff2");
      }
      @font-face {
        font-family: "Assistant";
        src: url("https://excalidraw.com/Assistant-Regular.woff2");
      }
    </style>
    
  </defs>
  <g stroke-linecap="round" transform="translate(10 10) rotate(0 142.29148936170213 142.29148936170213)"><path d="M154.87 -0.32 C168.74 -1.22, 183.4 5.65, 196.7 11.59 C210 17.53, 223.43 25.96, 234.67 35.32 C245.9 44.67, 256.54 55.4, 264.12 67.73 C271.69 80.06, 276.68 95.02, 280.12 109.32 C283.55 123.62, 285.72 138.73, 284.74 153.53 C283.76 168.34, 280.02 184.62, 274.24 198.15 C268.46 211.69, 259.81 223.77, 250.06 234.75 C240.32 245.73, 228.48 256.29, 215.77 264.06 C203.06 271.84, 188.07 278.09, 173.79 281.39 C159.51 284.68, 144.58 285.15, 130.09 283.84 C115.59 282.52, 100.36 279.06, 86.81 273.51 C73.26 267.96, 59.9 260.13, 48.81 250.53 C37.72 240.93, 27.85 228.6, 20.27 215.91 C12.69 203.22, 6.57 188.53, 3.31 174.38 C0.06 160.23, -0.52 145.43, 0.75 131.01 C2.01 116.58, 5.26 101.6, 10.9 87.84 C16.54 74.08, 25.03 59.67, 34.57 48.46 C44.11 37.25, 55.77 27.88, 68.16 20.59 C80.54 13.3, 92.68 7.77, 108.87 4.7 C125.05 1.63, 154.26 1.8, 165.27 2.16 C176.29 2.53, 175.15 4.49, 174.96 6.88 M96.26 8.68 C108.47 1.48, 124.44 -0.88, 138.65 -1.22 C152.87 -1.55, 167.66 2.14, 181.55 6.68 C195.44 11.21, 209.69 17.96, 222 25.98 C234.32 33.99, 246.18 43.38, 255.44 54.76 C264.7 66.14, 272.95 80.27, 277.56 94.24 C282.17 108.22, 282.77 123.84, 283.11 138.59 C283.46 153.34, 283.65 168.45, 279.63 182.77 C275.61 197.08, 267.45 212.59, 258.98 224.48 C250.51 236.37, 240.34 245.25, 228.83 254.09 C217.33 262.92, 203.69 272.35, 189.96 277.49 C176.23 282.63, 161.31 284.56, 146.45 284.93 C131.59 285.3, 115.04 284.07, 100.81 279.71 C86.59 275.35, 72.91 267.2, 61.1 258.76 C49.28 250.33, 38.67 240.87, 29.93 229.09 C21.19 217.3, 13.39 201.97, 8.66 188.07 C3.93 174.17, 2.14 160.09, 1.53 145.69 C0.91 131.28, 1.22 115.69, 4.98 101.64 C8.73 87.6, 15.56 73.64, 24.07 61.44 C32.58 49.24, 44.23 37.35, 56.05 28.45 C67.88 19.55, 88.21 11.04, 95.02 8.04 C101.83 5.04, 96.02 8.45, 96.9 10.47" stroke="none" stroke-width="0" fill="#ffd8a8"></path><path d="M191.39 7.72 C205.13 10.14, 217.14 20.16, 228.76 29.46 C240.38 38.76, 252.68 51.42, 261.1 63.53 C269.51 75.63, 275.43 88.15, 279.26 102.1 C283.1 116.05, 284.72 132.55, 284.11 147.24 C283.51 161.94, 280.65 176.62, 275.64 190.3 C270.63 203.98, 262.88 217.62, 254.05 229.31 C245.22 241, 234.89 252.1, 222.68 260.44 C210.47 268.78, 194.85 275.35, 180.77 279.35 C166.69 283.36, 152.65 285.01, 138.19 284.49 C123.73 283.98, 107.86 281.33, 94.01 276.26 C80.17 271.2, 66.66 263.25, 55.11 254.1 C43.57 244.96, 33.07 233.37, 24.76 221.38 C16.44 209.39, 9.25 196.08, 5.2 182.19 C1.14 168.3, -0.21 152.67, 0.41 138.06 C1.03 123.45, 3.87 108.25, 8.92 94.53 C13.97 80.82, 21.8 67.35, 30.7 55.78 C39.6 44.22, 50.42 33.49, 62.32 25.16 C74.22 16.84, 87.91 10.12, 102.09 5.85 C116.28 1.58, 132.2 -1.23, 147.42 -0.46 C162.64 0.32, 185.24 8.09, 193.42 10.51 C201.6 12.93, 197.25 12.11, 196.51 14.05 M104.39 6.52 C117.1 0.71, 131.82 0.16, 146.51 0.78 C161.21 1.4, 178.49 5.47, 192.56 10.26 C206.63 15.04, 219.61 20.62, 230.92 29.51 C242.23 38.4, 252.21 51.39, 260.43 63.59 C268.65 75.8, 276.05 88.65, 280.25 102.76 C284.46 116.86, 286.42 133.67, 285.68 148.25 C284.93 162.82, 280.89 176.49, 275.78 190.22 C270.66 203.95, 263.86 218.81, 254.98 230.64 C246.1 242.47, 235.06 252.94, 222.48 261.21 C209.91 269.47, 193.84 276.2, 179.52 280.24 C165.21 284.28, 150.92 286.22, 136.59 285.45 C122.26 284.68, 107.03 280.67, 93.54 275.62 C80.04 270.58, 67.44 264.35, 55.63 255.18 C43.81 246, 31.08 233.17, 22.65 220.58 C14.22 207.99, 8.64 193.45, 5.04 179.63 C1.44 165.81, 0.21 152.15, 1.07 137.65 C1.93 123.14, 5.13 106.51, 10.21 92.59 C15.28 78.67, 22.83 65.61, 31.51 54.14 C40.18 42.66, 50.4 31.97, 62.26 23.75 C74.12 15.53, 95.51 7.3, 102.66 4.82 C109.82 2.34, 104.52 6.64, 105.19 8.87" stroke="#f08c00" stroke-width="2" fill="none"></path></g><g stroke-linecap="round" transform="translate(97.56963505706631 81.29148936170213) rotate(0 58.36092715231791 8.293210428972031)"><path d="M-0.01 2.64 C-0.01 2.64, -0.01 2.64, -0.01 2.64 M-0.01 2.64 C-0.01 2.64, -0.01 2.64, -0.01 2.64 M0.78 13.93 C3.69 9.06, 6.4 7.54, 12.59 0.34 M0.78 13.93 C4.19 10.02, 9.07 3.75, 12.59 0.34 M8.79 16.91 C9.95 15.23, 16.65 8.09, 23.22 0.31 M8.79 16.91 C14.76 10.09, 20.07 3.82, 23.22 0.31 M19.42 16.88 C21.58 13.38, 27.13 7.43, 33.85 0.27 M19.42 16.88 C23.89 12.11, 28.07 7.68, 33.85 0.27 M30.05 16.84 C34.55 11.87, 38.22 6.75, 44.48 0.24 M30.05 16.84 C33.43 12.97, 35.16 10.95, 44.48 0.24 M40.68 16.81 C46.23 13.02, 48.61 8.26, 55.11 0.21 M40.68 16.81 C45.86 11.21, 49.84 7.35, 55.11 0.21 M51.31 16.77 C56.18 11.5, 61.01 8.12, 65.74 0.17 M51.31 16.77 C56.96 10.63, 62.34 4.12, 65.74 0.17 M61.94 16.74 C67.48 13.39, 72.27 7.81, 76.37 0.14 M61.94 16.74 C64.01 13.56, 67.18 10.3, 76.37 0.14 M72.57 16.71 C78.18 13.32, 81.18 6.25, 87 0.1 M72.57 16.71 C77.05 11.01, 82.51 7.22, 87 0.1 M82.54 17.43 C84.92 13.71, 90.72 8.57, 97.63 0.07 M82.54 17.43 C87.63 11.42, 93.45 5.94, 97.63 0.07 M93.17 17.39 C99.4 13.02, 104.43 5.93, 108.26 0.03 M93.17 17.39 C96.51 12.01, 100.7 7.39, 108.26 0.03 M103.8 17.36 C108.58 9.73, 112.35 7.3, 116.92 2.26 M103.8 17.36 C106.55 14.52, 111.02 10.65, 116.92 2.26" stroke="#1e1e1e" stroke-width="1" fill="none"></path><path d="M4.15 0 C32.4 -1.19, 59.04 1.06, 112.58 0 M4.15 0 C29.91 -1.36, 54.65 -1.58, 112.58 0 M112.58 0 C113.86 1.82, 118.21 2.11, 116.72 4.15 M112.58 0 C114.85 1.72, 119.01 2.93, 116.72 4.15 M116.72 4.15 C116.53 6.65, 116.3 8.73, 116.72 12.44 M116.72 4.15 C116.44 6.05, 116.42 8.66, 116.72 12.44 M116.72 12.44 C118.06 16.15, 114.28 16, 112.58 16.59 M116.72 12.44 C116.32 14.33, 116.75 14.36, 112.58 16.59 M112.58 16.59 C75.84 15.8, 34.08 14.18, 4.15 16.59 M112.58 16.59 C89.89 15.6, 66.52 15.67, 4.15 16.59 M4.15 16.59 C2.4 15.82, -2 16.89, 0 12.44 M4.15 16.59 C-0.62 16.34, -2.16 17.07, 0 12.44 M0 12.44 C0.55 10.05, -0.83 8.24, 0 4.15 M0 12.44 C-0.14 10.22, -0.18 7.88, 0 4.15 M0 4.15 C-1.96 3.3, 0.6 1.7, 4.15 0 M0 4.15 C-2.27 1.66, 0.63 -2.22, 4.15 0" stroke="#1e1e1e" stroke-width="2" fill="none"></path></g><g stroke-linecap="round" transform="translate(96.79148936170213 118.0185641185783) rotate(0 58.36092715231791 8.293210428972031)"><path d="M-0.01 2.64 C-0.01 2.64, -0.01 2.64, -0.01 2.64 M-0.01 2.64 C-0.01 2.64, -0.01 2.64, -0.01 2.64 M0.78 13.93 C3.46 11.36, 5.55 7.11, 12.59 0.34 M0.78 13.93 C4.37 11.21, 7.01 6.39, 12.59 0.34 M8.79 16.91 C14.51 9.89, 20.02 4.86, 23.22 0.31 M8.79 16.91 C12.57 13.31, 14.52 9.96, 23.22 0.31 M19.42 16.88 C22.95 13.67, 30.19 5.08, 33.85 0.27 M19.42 16.88 C22.61 13.92, 25.17 10.25, 33.85 0.27 M30.05 16.84 C34.65 12.51, 40.16 7.67, 44.48 0.24 M30.05 16.84 C35.1 12.44, 38.74 6.62, 44.48 0.24 M40.68 16.81 C45.25 8.88, 51.26 6.26, 55.11 0.21 M40.68 16.81 C45.12 9.88, 52.21 3.83, 55.11 0.21 M51.31 16.77 C58.53 12.4, 63.61 3.48, 65.74 0.17 M51.31 16.77 C55.87 10.33, 61.48 5.02, 65.74 0.17 M61.94 16.74 C68.17 9.87, 73.05 4.81, 76.37 0.14 M61.94 16.74 C66.57 10.34, 73.54 4.07, 76.37 0.14 M72.57 16.71 C75.68 11.26, 81.86 8.72, 87 0.1 M72.57 16.71 C76.8 11.38, 80.75 7.63, 87 0.1 M82.54 17.43 C86.93 12.59, 93.66 5.74, 97.63 0.07 M82.54 17.43 C86.89 12.25, 92.41 6.47, 97.63 0.07 M93.17 17.39 C99.37 9.98, 103.76 3.92, 108.26 0.03 M93.17 17.39 C96.26 12.53, 101.29 8.73, 108.26 0.03 M103.8 17.36 C106.3 15.04, 109.35 12.07, 116.92 2.26 M103.8 17.36 C107.13 14.3, 110.25 9.13, 116.92 2.26" stroke="#1e1e1e" stroke-width="1" fill="none"></path><path d="M4.15 0 C34.82 0.28, 63.35 -0.91, 112.58 0 M4.15 0 C37.87 0.55, 72.59 1.15, 112.58 0 M112.58 0 C113.92 -1.87, 115.3 -0.07, 116.72 4.15 M112.58 0 C116.28 -1.67, 114.8 1.98, 116.72 4.15 M116.72 4.15 C116.04 6.49, 116.61 9.06, 116.72 12.44 M116.72 4.15 C116.96 6.09, 116.62 7.16, 116.72 12.44 M116.72 12.44 C118.64 15.25, 114.02 14.77, 112.58 16.59 M116.72 12.44 C118.57 13.42, 113.36 18.51, 112.58 16.59 M112.58 16.59 C70.33 17.26, 27.42 16.39, 4.15 16.59 M112.58 16.59 C75.54 15.83, 38.01 16.61, 4.15 16.59 M4.15 16.59 C1.45 15.84, -0.35 14.42, 0 12.44 M4.15 16.59 C0.81 17.35, -0.26 16.21, 0 12.44 M0 12.44 C0.49 9.73, 0.17 6.72, 0 4.15 M0 12.44 C-0.28 9.81, -0.13 6.5, 0 4.15 M0 4.15 C1.97 0.94, 1.87 0.38, 4.15 0 M0 4.15 C1.81 2.37, 1.32 0.82, 4.15 0" stroke="#1e1e1e" stroke-width="2" fill="none"></path></g><g stroke-linecap="round" transform="translate(96.79148936170213 153.56089452845833) rotate(0 58.36092715231791 8.293210428972031)"><path d="M-0.01 2.64 C-0.01 2.64, -0.01 2.64, -0.01 2.64 M-0.01 2.64 C-0.01 2.64, -0.01 2.64, -0.01 2.64 M1.44 13.17 C3.83 10.87, 7.89 6.82, 9.31 4.12 M1.44 13.17 C3.59 11.02, 5.99 7.99, 9.31 4.12 M6.82 19.18 C12.09 13.85, 15 10.95, 19.94 4.08 M6.82 19.18 C10.81 13.95, 15.06 8.19, 19.94 4.08 M17.45 19.14 C21.59 15.38, 21.66 11.79, 30.57 4.05 M17.45 19.14 C20.88 15.66, 23.95 11.81, 30.57 4.05 M28.08 19.11 C30.13 15.02, 32.11 13.54, 41.2 4.01 M28.08 19.11 C31.51 15.23, 35.41 10.52, 41.2 4.01 M38.71 19.07 C44.13 13.3, 47.58 8.82, 51.83 3.98 M38.71 19.07 C42.24 16.47, 43.7 12.32, 51.83 3.98 M49.34 19.04 C52.34 16.41, 54.71 13.3, 61.8 4.7 M49.34 19.04 C54.22 13.94, 57.65 10.09, 61.8 4.7 M59.97 19 C62.38 16.83, 65.08 10.36, 72.43 4.66 M59.97 19 C62.01 15.9, 64.74 12.37, 72.43 4.66 M70.6 18.97 C75.26 14.68, 80.96 9.14, 83.06 4.63 M70.6 18.97 C75.63 13.49, 79.55 7.34, 83.06 4.63 M81.23 18.93 C84.21 15.47, 84.91 14.28, 93.69 4.6 M81.23 18.93 C84.22 14.29, 89.63 9.47, 93.69 4.6 M91.86 18.9 C96.6 13.77, 99.19 11.02, 104.32 4.56 M91.86 18.9 C94.81 14.16, 98.82 10.04, 104.32 4.56 M102.49 18.87 C108.39 14.34, 114.51 5.05, 116.92 2.26 M102.49 18.87 C106.51 14.14, 110.52 10.27, 116.92 2.26" stroke="#1e1e1e" stroke-width="1" fill="none"></path><path d="M4.15 0 C40.96 1.39, 81.09 1.76, 112.58 0 M4.15 0 C45.18 1.36, 84.18 1.3, 112.58 0 M112.58 0 C114.25 0.79, 116.63 -0.42, 116.72 4.15 M112.58 0 C115.49 1.38, 118.48 1.31, 116.72 4.15 M116.72 4.15 C117.38 6.39, 116.38 9.42, 116.72 12.44 M116.72 4.15 C117.01 7.17, 116.74 10.94, 116.72 12.44 M116.72 12.44 C115.92 16.26, 115.22 18.43, 112.58 16.59 M116.72 12.44 C116.17 15.8, 115.93 18.63, 112.58 16.59 M112.58 16.59 C78.29 17.1, 42.79 15.7, 4.15 16.59 M112.58 16.59 C80.92 17, 49.99 17.32, 4.15 16.59 M4.15 16.59 C3.08 18.08, 1.23 15.05, 0 12.44 M4.15 16.59 C-0.61 14.93, 1.88 13.95, 0 12.44 M0 12.44 C0.74 10.08, 0.61 5.85, 0 4.15 M0 12.44 C-0.15 9.26, 0.12 6.58, 0 4.15 M0 4.15 C1.87 1.82, 1.74 0.59, 4.15 0 M0 4.15 C-0.35 1.13, 2.73 2.11, 4.15 0" stroke="#1e1e1e" stroke-width="2" fill="none"></path></g><g stroke-linecap="round" transform="translate(103.01665492461598 196.21169102031445) rotate(0 41.241721854304615 8.293210428972031)"><path d="M1.1 0.96 C1.1 0.96, 1.1 0.96, 1.1 0.96 M1.1 0.96 C1.1 0.96, 1.1 0.96, 1.1 0.96 M0.58 13.76 C3.26 10.98, 6.67 6.43, 12.39 0.17 M0.58 13.76 C4 11.41, 6.53 7.18, 12.39 0.17 M8.59 16.74 C14.6 11.37, 18.83 5.34, 23.02 0.14 M8.59 16.74 C14.51 11.16, 19.38 4.06, 23.02 0.14 M19.22 16.7 C24.89 10.45, 30.41 4.49, 33.65 0.1 M19.22 16.7 C22.15 12.26, 25.86 8.54, 33.65 0.1 M29.19 17.43 C34.29 13.41, 37.29 10.48, 44.28 0.07 M29.19 17.43 C33.75 11.5, 39.7 4.41, 44.28 0.07 M39.82 17.39 C44.28 13.72, 46.63 7.64, 54.91 0.03 M39.82 17.39 C45.11 10.08, 50.69 5.31, 54.91 0.03 M50.45 17.36 C53.78 14.29, 56.55 8.96, 64.88 0.75 M50.45 17.36 C55.68 10.39, 60.65 4.53, 64.88 0.75 M61.08 17.32 C66.4 13.38, 70.53 9.64, 75.51 0.72 M61.08 17.32 C64.34 13.86, 67.29 10.39, 75.51 0.72 M71.71 17.29 C75.34 14.31, 76.67 11.6, 82.86 4.46 M71.71 17.29 C74.55 13.87, 78.94 8.39, 82.86 4.46" stroke="#1e1e1e" stroke-width="1" fill="none"></path><path d="M4.15 0 C25.56 1.52, 44.81 -0.14, 78.34 0 M4.15 0 C19.42 0.14, 36.7 -0.97, 78.34 0 M78.34 0 C83.08 1.79, 84.13 0.47, 82.48 4.15 M78.34 0 C82.1 -1.63, 81.71 0.21, 82.48 4.15 M82.48 4.15 C83.27 6.16, 82.64 8.05, 82.48 12.44 M82.48 4.15 C82.86 6.79, 82.53 8.49, 82.48 12.44 M82.48 12.44 C82.74 16.02, 81.81 16.38, 78.34 16.59 M82.48 12.44 C82.7 16.29, 79.9 15.93, 78.34 16.59 M78.34 16.59 C52.07 17.4, 26.74 15.66, 4.15 16.59 M78.34 16.59 C57.88 17.09, 36.95 18.15, 4.15 16.59 M4.15 16.59 C0.83 18.3, -0.08 15.48, 0 12.44 M4.15 16.59 C0.33 16.38, -0.26 17.42, 0 12.44 M0 12.44 C0.24 10.78, -0.42 8.39, 0 4.15 M0 12.44 C-0.27 9.8, -0.25 8.03, 0 4.15 M0 4.15 C-0.47 -0.42, 0.72 -0.79, 4.15 0 M0 4.15 C-0.36 2.3, 1.37 1.15, 4.15 0" stroke="#1e1e1e" stroke-width="2" fill="none"></path></g><g stroke-linecap="round" transform="translate(464 12) rotate(0 142.29148936170213 142.29148936170213)"><path d="M206.28 15.74 C219.66 20.05, 232.33 31.06, 242.85 41.29 C253.36 51.53, 262.78 64.15, 269.35 77.15 C275.92 90.16, 279.99 104.85, 282.24 119.33 C284.49 133.82, 285.14 149.42, 282.85 164.06 C280.56 178.71, 275.05 193.94, 268.5 207.21 C261.94 220.48, 253.91 233.41, 243.52 243.69 C233.12 253.98, 219.18 262.52, 206.11 268.91 C193.04 275.3, 179.35 279.64, 165.09 282.05 C150.83 284.46, 134.99 285.49, 120.56 283.37 C106.12 281.25, 91.69 275.96, 78.48 269.32 C65.26 262.68, 51.61 253.81, 41.25 243.54 C30.89 233.27, 23.05 220.92, 16.31 207.72 C9.57 194.52, 3.13 179.07, 0.79 164.36 C-1.54 149.64, -0.2 134, 2.28 119.43 C4.75 104.86, 9 89.92, 15.63 76.94 C22.26 63.96, 31.63 51.85, 42.06 41.54 C52.48 31.24, 65.31 21.8, 78.19 15.11 C91.06 8.42, 104.89 3.45, 119.34 1.39 C133.79 -0.66, 149.41 0.08, 164.88 2.77 C180.36 5.46, 203.87 14.34, 212.19 17.55 C220.52 20.77, 215.99 19.92, 214.83 22.07 M125.88 1.74 C139.01 -2.02, 153.77 0.44, 167.89 3.18 C182.01 5.93, 197.49 11.08, 210.61 18.22 C223.74 25.35, 236.66 35.29, 246.63 45.99 C256.6 56.7, 264.33 69.27, 270.44 82.45 C276.55 95.63, 281.21 110.69, 283.3 125.08 C285.38 139.47, 285.46 154.5, 282.96 168.77 C280.47 183.05, 275.34 197.8, 268.32 210.74 C261.3 223.69, 251.74 236.32, 240.85 246.43 C229.96 256.55, 216.56 265.29, 202.98 271.43 C189.4 277.58, 174.04 281.32, 159.37 283.3 C144.71 285.28, 129.35 286.19, 115 283.33 C100.66 280.47, 86.27 273.49, 73.3 266.13 C60.34 258.77, 47.21 249.67, 37.21 239.15 C27.2 228.64, 19.33 216.42, 13.26 203.02 C7.19 189.62, 2.63 173.44, 0.78 158.77 C-1.08 144.1, -0.76 129.14, 2.11 115.01 C4.99 100.89, 10.68 86.72, 18.03 74.01 C25.37 61.3, 35.39 48.74, 46.21 38.75 C57.02 28.76, 69.83 20.22, 82.92 14.05 C96.01 7.89, 118.01 3.53, 124.75 1.74 C131.48 -0.06, 123.06 1.12, 123.33 3.3" stroke="none" stroke-width="0" fill="#ffd8a8"></path><path d="M139.22 -0.03 C153.15 -2.59, 168.75 2.15, 182.77 6.44 C196.78 10.73, 211.08 17.41, 223.31 25.7 C235.53 34, 247.18 44.81, 256.1 56.22 C265.03 67.63, 272.04 80.42, 276.86 94.18 C281.68 107.94, 284.67 123.87, 285.02 138.78 C285.37 153.68, 283.29 169.39, 278.97 183.61 C274.64 197.83, 267.46 212.22, 259.09 224.09 C250.72 235.96, 240.43 246, 228.76 254.84 C217.1 263.68, 202.95 272.25, 189.13 277.13 C175.3 282.01, 160.41 283.96, 145.81 284.14 C131.21 284.31, 115.72 282.24, 101.54 278.18 C87.36 274.11, 72.65 268.03, 60.74 259.77 C48.84 251.5, 39.03 240.17, 30.11 228.59 C21.19 217, 12.37 204.17, 7.22 190.26 C2.07 176.35, -0.52 160.03, -0.8 145.11 C-1.07 130.18, 1.26 114.81, 5.59 100.72 C9.91 86.64, 16.91 72.6, 25.17 60.59 C33.42 48.58, 43.62 37.43, 55.11 28.64 C66.6 19.86, 79.1 12.82, 94.11 7.89 C109.12 2.96, 135.82 -0.07, 145.18 -0.94 C154.55 -1.81, 150.46 -0.03, 150.28 2.65 M87.44 11.07 C99.58 3.82, 117.67 3.15, 132.56 1.84 C147.45 0.54, 162.75 -0.1, 176.76 3.22 C190.76 6.54, 204.34 13.68, 216.58 21.75 C228.82 29.81, 240.74 40.52, 250.17 51.63 C259.6 62.74, 267.61 75.23, 273.16 88.41 C278.72 101.59, 282.33 116.09, 283.48 130.71 C284.64 145.33, 283.24 161.73, 280.09 176.15 C276.94 190.56, 272.32 204.53, 264.56 217.2 C256.81 229.87, 245.14 242.52, 233.58 252.16 C222.03 261.8, 208.79 269.84, 195.24 275.03 C181.7 280.22, 166.62 282.52, 152.29 283.32 C137.96 284.11, 123.39 283.33, 109.26 279.79 C95.14 276.25, 80.35 269.85, 67.55 262.06 C54.76 254.27, 41.84 244, 32.49 233.04 C23.15 222.08, 16.88 209.42, 11.48 196.29 C6.09 183.15, 1.28 168.73, 0.13 154.24 C-1.02 139.74, 0.95 123.68, 4.56 109.32 C8.17 94.95, 14.17 80.74, 21.79 68.04 C29.41 55.33, 39.15 42.69, 50.29 33.08 C61.43 23.47, 82.17 13.53, 88.63 10.39 C95.08 7.24, 88.11 11.98, 89.02 14.22" stroke="#f08c00" stroke-width="2" fill="none"></path></g><g stroke-linecap="round" transform="translate(551.5696350570661 83.29148936170213) rotate(0 58.36092715231791 8.293210428972031)"><path d="M-0.01 2.64 C-0.01 2.64, -0.01 2.64, -0.01 2.64 M-0.01 2.64 C-0.01 2.64, -0.01 2.64, -0.01 2.64 M0.78 13.93 C4.8 9.49, 7.31 5.93, 12.59 0.34 M0.78 13.93 C3.65 10.29, 5.91 7.86, 12.59 0.34 M8.79 16.91 C13.57 12.21, 17.78 6.02, 23.22 0.31 M8.79 16.91 C13.45 11.69, 19.79 5.99, 23.22 0.31 M19.42 16.88 C21.48 13.49, 24.14 10.5, 33.85 0.27 M19.42 16.88 C22.8 11.66, 28.12 8.06, 33.85 0.27 M30.05 16.84 C33.37 11.98, 40.55 4.32, 44.48 0.24 M30.05 16.84 C36.17 9.53, 41.86 3.59, 44.48 0.24 M40.68 16.81 C44.78 12.06, 50.29 6.21, 55.11 0.21 M40.68 16.81 C45.85 11.45, 51.37 4.78, 55.11 0.21 M51.31 16.77 C55.22 13.02, 60.2 4.74, 65.74 0.17 M51.31 16.77 C54.42 13.13, 56.4 9.67, 65.74 0.17 M61.94 16.74 C67.39 12.67, 70.94 8.89, 76.37 0.14 M61.94 16.74 C66.09 11.63, 70.88 6.24, 76.37 0.14 M72.57 16.71 C78.51 10.35, 83.51 6.78, 87 0.1 M72.57 16.71 C78.94 10.74, 83.25 4.13, 87 0.1 M82.54 17.43 C86.34 12.06, 91.39 6.12, 97.63 0.07 M82.54 17.43 C85.59 14.08, 90.34 8.53, 97.63 0.07 M93.17 17.39 C95.45 11.23, 100.05 8.48, 108.26 0.03 M93.17 17.39 C96.69 14.08, 100.55 8.95, 108.26 0.03 M103.8 17.36 C110.42 12.3, 115.38 5.59, 116.92 2.26 M103.8 17.36 C107.91 11.88, 112.14 7.62, 116.92 2.26" stroke="#1e1e1e" stroke-width="1" fill="none"></path><path d="M4.15 0 C25.25 0.65, 49.61 -0.09, 112.58 0 M4.15 0 C34.66 0.56, 64.47 0.16, 112.58 0 M112.58 0 C113.52 0.96, 116.53 2.04, 116.72 4.15 M112.58 0 C116.75 -0.67, 118.9 1.6, 116.72 4.15 M116.72 4.15 C116.77 5.86, 116.65 7.87, 116.72 12.44 M116.72 4.15 C116.72 5.71, 117.07 7.61, 116.72 12.44 M116.72 12.44 C115.52 14.48, 113.62 16.52, 112.58 16.59 M116.72 12.44 C114.76 13.36, 114.02 14.34, 112.58 16.59 M112.58 16.59 C82.97 14.77, 51.03 17.36, 4.15 16.59 M112.58 16.59 C87.9 17.39, 65.01 18.06, 4.15 16.59 M4.15 16.59 C2.38 15.48, -0.66 15.89, 0 12.44 M4.15 16.59 C0.39 18.67, -1.2 15.35, 0 12.44 M0 12.44 C0.13 11.01, 0.12 7.83, 0 4.15 M0 12.44 C-0.12 8.97, 0.25 5.78, 0 4.15 M0 4.15 C0.05 -0.34, -0.31 -1.7, 4.15 0 M0 4.15 C1.3 1.41, 0.97 1.98, 4.15 0" stroke="#1e1e1e" stroke-width="2" fill="none"></path></g><g stroke-linecap="round" transform="translate(550.7914893617021 120.0185641185783) rotate(0 58.36092715231791 8.293210428972031)"><path d="M-0.01 2.64 C-0.01 2.64, -0.01 2.64, -0.01 2.64 M-0.01 2.64 C-0.01 2.64, -0.01 2.64, -0.01 2.64 M0.78 13.93 C2.54 11.26, 4.88 6.72, 12.59 0.34 M0.78 13.93 C2.86 11.24, 6.51 8.76, 12.59 0.34 M8.79 16.91 C10.6 14.26, 16.73 10.85, 23.22 0.31 M8.79 16.91 C14.49 12.26, 17.48 5.75, 23.22 0.31 M19.42 16.88 C23.3 11.61, 29.54 5.97, 33.85 0.27 M19.42 16.88 C23.59 13.49, 27.87 7.6, 33.85 0.27 M30.05 16.84 C34.91 10.87, 41.4 5.06, 44.48 0.24 M30.05 16.84 C36.18 10.21, 41.91 4.14, 44.48 0.24 M40.68 16.81 C45.96 11.38, 52.8 4.06, 55.11 0.21 M40.68 16.81 C46.58 10.31, 52.14 3.3, 55.11 0.21 M51.31 16.77 C54.92 10.67, 57.89 6.25, 65.74 0.17 M51.31 16.77 C54.39 11.9, 58.92 7.83, 65.74 0.17 M61.94 16.74 C68 12.16, 71.32 7.09, 76.37 0.14 M61.94 16.74 C64.65 13.41, 68.23 10.4, 76.37 0.14 M72.57 16.71 C77.74 13.4, 81.75 9.41, 87 0.1 M72.57 16.71 C76.21 12.1, 80.69 7.79, 87 0.1 M82.54 17.43 C85 13.52, 88.2 10.97, 97.63 0.07 M82.54 17.43 C87.78 11.58, 91.38 7.13, 97.63 0.07 M93.17 17.39 C95.25 14.22, 99.32 11.25, 108.26 0.03 M93.17 17.39 C97.12 12.87, 101.51 9.61, 108.26 0.03 M103.8 17.36 C107.74 14.22, 109.61 10.94, 116.92 2.26 M103.8 17.36 C109.06 11.37, 114.42 5.07, 116.92 2.26" stroke="#1e1e1e" stroke-width="1" fill="none"></path><path d="M4.15 0 C36.85 -0.47, 67.7 0.66, 112.58 0 M4.15 0 C38.78 -0.46, 71.89 -0.32, 112.58 0 M112.58 0 C115.14 0.66, 117.95 0.8, 116.72 4.15 M112.58 0 C117.52 0.22, 115.51 0.53, 116.72 4.15 M116.72 4.15 C116.69 6.76, 116.15 10.45, 116.72 12.44 M116.72 4.15 C117.03 7.03, 116.46 10.46, 116.72 12.44 M116.72 12.44 C115 15.14, 113.63 14.98, 112.58 16.59 M116.72 12.44 C115.41 12.96, 114.95 18.43, 112.58 16.59 M112.58 16.59 C90.21 17.97, 66.68 16.46, 4.15 16.59 M112.58 16.59 C75.55 17.86, 37.8 16.34, 4.15 16.59 M4.15 16.59 C0.72 17.27, -0.86 17.02, 0 12.44 M4.15 16.59 C0.18 16.73, -1.07 13.79, 0 12.44 M0 12.44 C0.06 9.79, 0.73 7.38, 0 4.15 M0 12.44 C0.23 9.15, 0.05 5.91, 0 4.15 M0 4.15 C-1.69 -0.32, 2.51 0.02, 4.15 0 M0 4.15 C-0.41 3.36, 2.16 1.13, 4.15 0" stroke="#1e1e1e" stroke-width="2" fill="none"></path></g><g stroke-linecap="round" transform="translate(550.7914893617021 155.56089452845833) rotate(0 58.36092715231791 8.293210428972031)"><path d="M-0.01 2.64 C-0.01 2.64, -0.01 2.64, -0.01 2.64 M-0.01 2.64 C-0.01 2.64, -0.01 2.64, -0.01 2.64 M0.78 13.93 C2.99 8.95, 6.02 6.28, 12.59 0.34 M0.78 13.93 C4.29 11.31, 5.85 7.27, 12.59 0.34 M8.79 16.91 C15.36 12.53, 20.18 3.93, 23.22 0.31 M8.79 16.91 C13.1 10.52, 19.93 3.9, 23.22 0.31 M19.42 16.88 C23.87 12.48, 27.69 5, 33.85 0.27 M19.42 16.88 C23.84 11.85, 27.33 6.9, 33.85 0.27 M30.05 16.84 C37.03 10.02, 42.35 5.8, 44.48 0.24 M30.05 16.84 C33.76 13.43, 37.45 8.75, 44.48 0.24 M40.68 16.81 C46.98 10.72, 52.63 4.96, 55.11 0.21 M40.68 16.81 C46.3 10.06, 51.32 3.93, 55.11 0.21 M51.31 16.77 C55.04 9.71, 62.03 4.24, 65.74 0.17 M51.31 16.77 C55.01 12.52, 59.59 8.54, 65.74 0.17 M61.94 16.74 C66.72 12.36, 68.83 5.54, 76.37 0.14 M61.94 16.74 C66.8 12.03, 70.63 7.01, 76.37 0.14 M72.57 16.71 C77.75 13.85, 79.36 10.14, 87 0.1 M72.57 16.71 C77.69 11.51, 81.44 5.1, 87 0.1 M82.54 17.43 C86.12 13.38, 91.94 5.71, 97.63 0.07 M82.54 17.43 C88 11, 93.27 3.31, 97.63 0.07 M93.17 17.39 C95.66 15.27, 99.24 9.34, 108.26 0.03 M93.17 17.39 C99.82 11.64, 103.7 5.03, 108.26 0.03 M103.8 17.36 C108.45 12.34, 114.49 7.04, 116.92 2.26 M103.8 17.36 C107.29 13.19, 109.32 11.29, 116.92 2.26" stroke="#1e1e1e" stroke-width="1" fill="none"></path><path d="M4.15 0 C39.46 1.06, 76.04 1.08, 112.58 0 M4.15 0 C43.78 0.11, 85.13 -0.04, 112.58 0 M112.58 0 C116.56 -0.58, 118.62 1.57, 116.72 4.15 M112.58 0 C114.13 -0.85, 118.11 1.61, 116.72 4.15 M116.72 4.15 C116.14 6.62, 117.46 8.38, 116.72 12.44 M116.72 4.15 C116.54 5.79, 116.43 7.71, 116.72 12.44 M116.72 12.44 C115.02 13.6, 114.19 14.63, 112.58 16.59 M116.72 12.44 C116.33 17.04, 113.14 17.82, 112.58 16.59 M112.58 16.59 C82.73 17.86, 56.94 16.4, 4.15 16.59 M112.58 16.59 C77.43 17.08, 40.95 17.97, 4.15 16.59 M4.15 16.59 C0.52 18.4, -1.04 15.33, 0 12.44 M4.15 16.59 C0.31 15.17, -0.68 15.42, 0 12.44 M0 12.44 C0.73 8.71, 0.59 5.76, 0 4.15 M0 12.44 C-0.03 10.07, -0.39 8.07, 0 4.15 M0 4.15 C1.13 1.4, 1.02 1.72, 4.15 0 M0 4.15 C0.77 2.51, 2.23 0.81, 4.15 0" stroke="#1e1e1e" stroke-width="2" fill="none"></path></g><g stroke-linecap="round" transform="translate(557.016654924616 198.21169102031445) rotate(0 41.241721854304615 8.293210428972031)"><path d="M1.1 0.96 C1.1 0.96, 1.1 0.96, 1.1 0.96 M1.1 0.96 C1.1 0.96, 1.1 0.96, 1.1 0.96 M0.58 13.76 C2.94 9.54, 7.11 4.19, 12.39 0.17 M0.58 13.76 C3.66 9.14, 8.63 4.29, 12.39 0.17 M8.59 16.74 C14.42 9.86, 20.57 6.15, 23.02 0.14 M8.59 16.74 C14.96 9.71, 20.23 2.98, 23.02 0.14 M19.22 16.7 C23.29 9.53, 28.02 6.14, 33.65 0.1 M19.22 16.7 C25.13 9.16, 31.23 3.51, 33.65 0.1 M29.19 17.43 C35.15 13.54, 35.98 8.85, 44.28 0.07 M29.19 17.43 C34.23 11.97, 38.34 7.25, 44.28 0.07 M39.82 17.39 C46.67 11.35, 51.61 6.03, 54.91 0.03 M39.82 17.39 C44.26 11.75, 49.78 6.6, 54.91 0.03 M50.45 17.36 C53.68 13.53, 57.11 7.51, 64.88 0.75 M50.45 17.36 C54.62 13.68, 58.52 9.07, 64.88 0.75 M61.08 17.32 C63.94 10.87, 70.87 5.6, 75.51 0.72 M61.08 17.32 C65.14 12.75, 69.49 7.73, 75.51 0.72 M71.71 17.29 C75.15 14.38, 80.02 7.84, 82.86 4.46 M71.71 17.29 C74.42 12.88, 78.56 9.01, 82.86 4.46" stroke="#1e1e1e" stroke-width="1" fill="none"></path><path d="M4.15 0 C26.19 0.64, 49.05 0.24, 78.34 0 M4.15 0 C28.83 -0.03, 54.33 -0.65, 78.34 0 M78.34 0 C83 0.19, 81.43 0.64, 82.48 4.15 M78.34 0 C82.49 0.23, 81.55 1.28, 82.48 4.15 M82.48 4.15 C83.17 6.18, 81.73 8.99, 82.48 12.44 M82.48 4.15 C82.08 5.93, 82.08 7.4, 82.48 12.44 M82.48 12.44 C81.34 13.25, 80.76 18.19, 78.34 16.59 M82.48 12.44 C80.29 16.44, 80.2 16.36, 78.34 16.59 M78.34 16.59 C50.32 15.53, 21 17.93, 4.15 16.59 M78.34 16.59 C48.6 16.52, 19.1 17.08, 4.15 16.59 M4.15 16.59 C0.34 16.71, -0.93 13.97, 0 12.44 M4.15 16.59 C0.7 16.81, 1.87 15.4, 0 12.44 M0 12.44 C0.52 10, -0.55 8.65, 0 4.15 M0 12.44 C-0.35 10.01, 0.23 8.29, 0 4.15 M0 4.15 C-0.36 3.1, 2.06 0.98, 4.15 0 M0 4.15 C0.85 2.19, 1.41 -1.05, 4.15 0" stroke="#1e1e1e" stroke-width="2" fill="none"></path></g><g stroke-linecap="round" transform="translate(918 15) rotate(0 142.29148936170213 142.29148936170213)"><path d="M146.36 0.51 C160.53 -1.19, 177.15 3.86, 190.98 8.88 C204.82 13.9, 217.98 21.74, 229.38 30.62 C240.78 39.5, 251.19 50.35, 259.38 62.17 C267.57 73.99, 274.2 87.63, 278.51 101.55 C282.82 115.48, 285.63 130.99, 285.25 145.69 C284.88 160.4, 281.23 175.94, 276.25 189.77 C271.26 203.61, 264.29 216.91, 255.33 228.68 C246.37 240.46, 234.61 251.95, 222.49 260.42 C210.37 268.88, 196.65 275.52, 182.6 279.47 C168.55 283.41, 152.96 284.76, 138.19 284.11 C123.41 283.46, 107.75 280.4, 93.97 275.57 C80.19 270.74, 66.88 263.9, 55.5 255.13 C44.11 246.36, 34.02 234.98, 25.68 222.96 C17.34 210.94, 9.66 197.23, 5.46 183 C1.25 168.78, 0.06 152.42, 0.47 137.62 C0.88 122.81, 3.08 107.84, 7.91 94.19 C12.74 80.55, 20.38 67.2, 29.45 55.74 C38.51 44.29, 50.13 33.87, 62.29 25.48 C74.46 17.1, 87.96 9.8, 102.45 5.43 C116.94 1.07, 140.81 -0.38, 149.22 -0.7 C157.63 -1.03, 152.82 1.11, 152.92 3.5 M145.78 -0.76 C159.77 -2.19, 175.52 4.71, 189.37 9.65 C203.21 14.58, 216.93 20.14, 228.85 28.85 C240.76 37.56, 252.68 49.45, 260.84 61.9 C268.99 74.34, 273.79 89.52, 277.77 103.53 C281.74 117.54, 284.82 131.58, 284.67 145.96 C284.53 160.35, 282.07 176.14, 276.88 189.82 C271.7 203.49, 262.69 216.36, 253.57 228 C244.46 239.63, 234.16 250.97, 222.19 259.63 C210.22 268.3, 195.61 275.72, 181.74 279.97 C167.88 284.21, 153.52 285.64, 138.99 285.11 C124.47 284.58, 108.4 281.82, 94.58 276.76 C80.76 271.7, 67.83 263.97, 56.09 254.75 C44.34 245.53, 32.56 233.39, 24.11 221.44 C15.67 209.5, 9.59 196.83, 5.43 183.06 C1.26 169.3, -1.13 153.66, -0.86 138.86 C-0.58 124.06, 2.07 108.09, 7.06 94.25 C12.06 80.42, 19.97 67.64, 29.11 55.87 C38.24 44.1, 49.5 31.8, 61.89 23.65 C74.27 15.5, 89.41 11.11, 103.43 6.97 C117.44 2.84, 138.87 -0.3, 145.97 -1.14 C153.06 -1.98, 145.8 -0.63, 146 1.95" stroke="none" stroke-width="0" fill="#ffd8a8"></path><path d="M144.73 -0.51 C158.49 -2.42, 174.29 2.93, 188.24 7.91 C202.18 12.89, 216.8 20.59, 228.4 29.37 C240 38.14, 249.43 48.82, 257.84 60.54 C266.25 72.26, 274.38 85.79, 278.86 99.69 C283.34 113.59, 285.05 129.11, 284.7 143.94 C284.35 158.77, 281.6 174.83, 276.76 188.67 C271.92 202.5, 264.43 215.23, 255.65 226.94 C246.87 238.65, 236.08 250.2, 224.1 258.91 C212.12 267.63, 197.8 275, 183.78 279.24 C169.77 283.47, 154.58 284.6, 140 284.32 C125.41 284.03, 110.11 282.2, 96.28 277.53 C82.44 272.85, 68.72 265.04, 56.99 256.26 C45.26 247.48, 34.26 236.99, 25.89 224.85 C17.51 212.7, 11.05 197.46, 6.75 183.38 C2.45 169.3, -0.11 155.04, 0.1 140.37 C0.3 125.71, 3.17 109.52, 7.97 95.41 C12.77 81.29, 20.07 67.15, 28.91 55.69 C37.74 44.22, 48.96 34.83, 60.98 26.63 C73.01 18.44, 84.99 10.95, 101.04 6.51 C117.09 2.06, 145.75 -0.06, 157.28 -0.05 C168.8 -0.04, 170.17 4.11, 170.18 6.57 M179.14 3.49 C193.3 4.47, 206.56 13.4, 218.6 21.36 C230.63 29.32, 241.98 39.86, 251.35 51.23 C260.72 62.59, 269.13 75.64, 274.83 89.56 C280.53 103.48, 284.56 120.18, 285.54 134.72 C286.51 149.27, 284.47 163.01, 280.7 176.85 C276.93 190.68, 270.93 205.25, 262.9 217.74 C254.87 230.24, 243.83 242.44, 232.53 251.82 C221.23 261.19, 208.78 268.55, 195.11 273.99 C181.44 279.43, 165.35 283.22, 150.52 284.48 C135.68 285.74, 120.22 285.12, 106.11 281.55 C91.99 277.99, 78.3 271.01, 65.82 263.09 C53.34 255.18, 40.76 245.27, 31.23 234.06 C21.71 222.86, 13.65 209.79, 8.68 195.86 C3.71 181.94, 2.04 165.19, 1.42 150.51 C0.8 135.83, 1.29 121.99, 4.94 107.8 C8.6 93.61, 15.35 77.71, 23.35 65.37 C31.35 53.04, 41.85 42.91, 52.92 33.8 C63.98 24.68, 76.14 16.34, 89.74 10.68 C103.35 5.02, 120.08 1.02, 134.55 -0.16 C149.01 -1.34, 169.33 2.52, 176.53 3.59 C183.73 4.66, 177.99 4.03, 177.73 6.24" stroke="#f08c00" stroke-width="2" fill="none"></path></g><g stroke-linecap="round" transform="translate(1005.5696350570661 86.29148936170213) rotate(0 58.3609271523178 8.293210428972031)"><path d="M-0.01 2.64 C-0.01 2.64, -0.01 2.64, -0.01 2.64 M-0.01 2.64 C-0.01 2.64, -0.01 2.64, -0.01 2.64 M1.44 13.17 C4.08 11.68, 6.31 8.49, 9.31 4.12 M1.44 13.17 C4.36 9.14, 8.1 5.58, 9.31 4.12 M6.82 19.18 C9.59 14.6, 15.9 10.82, 19.94 4.08 M6.82 19.18 C11.16 13.09, 16.48 8.57, 19.94 4.08 M17.45 19.14 C24.02 14.08, 26.71 6.53, 30.57 4.05 M17.45 19.14 C21.42 15.51, 25.06 10.21, 30.57 4.05 M28.08 19.11 C31.99 17.02, 33.11 11.69, 41.2 4.01 M28.08 19.11 C31.02 14.86, 35.86 11.25, 41.2 4.01 M38.71 19.07 C40.56 17.15, 45.45 11.04, 51.83 3.98 M38.71 19.07 C42.4 13.79, 47.5 8.57, 51.83 3.98 M49.34 19.04 C53.99 14.09, 59.46 7.76, 61.8 4.7 M49.34 19.04 C52.9 14.94, 55.96 11.23, 61.8 4.7 M59.97 19 C63.48 13.4, 68.63 12.49, 72.43 4.66 M59.97 19 C63 15.81, 67.17 11.1, 72.43 4.66 M70.6 18.97 C74.94 13.11, 80.47 8.54, 83.06 4.63 M70.6 18.97 C75.19 14.23, 81.34 7.02, 83.06 4.63 M81.23 18.93 C82.5 14.23, 85.24 12.11, 93.69 4.6 M81.23 18.93 C85.49 14.3, 88.53 9.99, 93.69 4.6 M91.86 18.9 C94.14 14.91, 101.24 9.15, 104.32 4.56 M91.86 18.9 C94.62 16.49, 97.88 12.21, 104.32 4.56 M102.49 18.87 C105.59 12.65, 110.37 10.89, 116.92 2.26 M102.49 18.87 C106.34 14.87, 109.26 9.76, 116.92 2.26" stroke="#1e1e1e" stroke-width="1" fill="none"></path><path d="M4.15 0 C39.75 -0.91, 71.79 -1.1, 112.58 0 M4.15 0 C33.53 -1.53, 61.35 -0.03, 112.58 0 M112.58 0 C113.39 0.28, 115.1 1.23, 116.72 4.15 M112.58 0 C115.51 -0.68, 114.5 1.78, 116.72 4.15 M116.72 4.15 C116.85 6.5, 116.95 9.82, 116.72 12.44 M116.72 4.15 C117.13 7.11, 116.53 9.67, 116.72 12.44 M116.72 12.44 C117.81 15.66, 114.17 17.12, 112.58 16.59 M116.72 12.44 C114.44 15.96, 117.38 17.45, 112.58 16.59 M112.58 16.59 C76.14 17.23, 43.17 15, 4.15 16.59 M112.58 16.59 C75.58 16.64, 36.68 16.77, 4.15 16.59 M4.15 16.59 C0.62 16.12, 0.33 14.76, 0 12.44 M4.15 16.59 C3.28 18.71, 0.89 13.96, 0 12.44 M0 12.44 C-0.01 9.93, -0.28 6.55, 0 4.15 M0 12.44 C-0.02 10.03, -0.35 7.56, 0 4.15 M0 4.15 C-1.76 2.95, 2.9 -0.98, 4.15 0 M0 4.15 C0.73 2.73, 3.24 -1.06, 4.15 0" stroke="#1e1e1e" stroke-width="2" fill="none"></path></g><g stroke-linecap="round" transform="translate(1004.7914893617021 123.0185641185783) rotate(0 58.3609271523178 8.293210428972031)"><path d="M-0.01 2.64 C-0.01 2.64, -0.01 2.64, -0.01 2.64 M-0.01 2.64 C-0.01 2.64, -0.01 2.64, -0.01 2.64 M0.78 13.93 C5.13 10.09, 9.18 5.22, 12.59 0.34 M0.78 13.93 C5.12 9.12, 8.09 5.23, 12.59 0.34 M8.79 16.91 C15.04 11.9, 20.04 5.67, 23.22 0.31 M8.79 16.91 C12.78 12.95, 17.23 8.89, 23.22 0.31 M19.42 16.88 C22.27 11.47, 26.85 7.26, 33.85 0.27 M19.42 16.88 C24.48 10.76, 28.82 4.42, 33.85 0.27 M30.05 16.84 C32.95 11.58, 38.26 4.59, 44.48 0.24 M30.05 16.84 C34.97 12.26, 37.46 8.71, 44.48 0.24 M40.68 16.81 C45.33 11.31, 50.2 6.43, 55.11 0.21 M40.68 16.81 C43.68 13, 47.41 10.59, 55.11 0.21 M51.31 16.77 C56.98 10.72, 60.04 3.8, 65.74 0.17 M51.31 16.77 C55.56 11.51, 58.97 7.43, 65.74 0.17 M61.94 16.74 C68.41 13.04, 70.95 4.48, 76.37 0.14 M61.94 16.74 C66.28 11.99, 71.31 6.88, 76.37 0.14 M72.57 16.71 C76.18 13.5, 81.42 8.85, 87 0.1 M72.57 16.71 C76.59 12.32, 78.1 10.5, 87 0.1 M82.54 17.43 C84.42 13.29, 90.29 9.98, 97.63 0.07 M82.54 17.43 C86.15 12.68, 90.91 8.48, 97.63 0.07 M93.17 17.39 C100.36 10.52, 103.45 2.26, 108.26 0.03 M93.17 17.39 C97.82 12.02, 100.71 8.7, 108.26 0.03 M103.8 17.36 C108.12 13.75, 111.21 7.97, 116.92 2.26 M103.8 17.36 C106.56 12.75, 109.46 8.95, 116.92 2.26" stroke="#1e1e1e" stroke-width="1" fill="none"></path><path d="M4.15 0 C37.02 -0.59, 69.24 0.8, 112.58 0 M4.15 0 C41.9 1.58, 78.91 1.22, 112.58 0 M112.58 0 C113.72 -0.15, 116.87 0.79, 116.72 4.15 M112.58 0 C113.11 0.4, 116.9 1.08, 116.72 4.15 M116.72 4.15 C116.98 7.93, 116.99 10.84, 116.72 12.44 M116.72 4.15 C116.58 6.78, 117.02 9.45, 116.72 12.44 M116.72 12.44 C115.56 15.74, 113.36 17.24, 112.58 16.59 M116.72 12.44 C118.76 16.07, 115.99 14.83, 112.58 16.59 M112.58 16.59 C91.78 16.89, 68.49 16.66, 4.15 16.59 M112.58 16.59 C73.07 15.36, 33.07 15.65, 4.15 16.59 M4.15 16.59 C1.71 16.14, 1.65 17.05, 0 12.44 M4.15 16.59 C2.27 15.34, 0.71 14.01, 0 12.44 M0 12.44 C-0.32 9.81, 0.11 7.54, 0 4.15 M0 12.44 C-0.38 9.45, -0.35 6.2, 0 4.15 M0 4.15 C1.52 0.41, 2.02 1.17, 4.15 0 M0 4.15 C1.85 0.32, 3.43 1.73, 4.15 0" stroke="#1e1e1e" stroke-width="2" fill="none"></path></g><g stroke-linecap="round" transform="translate(1004.7914893617021 158.56089452845845) rotate(0 58.3609271523178 8.293210428972031)"><path d="M-0.01 2.64 C-0.01 2.64, -0.01 2.64, -0.01 2.64 M-0.01 2.64 C-0.01 2.64, -0.01 2.64, -0.01 2.64 M1.44 13.17 C5.45 9.24, 7.39 5.96, 9.31 4.12 M1.44 13.17 C3.11 10.95, 5.13 8.85, 9.31 4.12 M6.82 19.18 C11.87 14.8, 13.75 9.35, 19.94 4.08 M6.82 19.18 C10.74 16.12, 12.58 12.92, 19.94 4.08 M17.45 19.14 C21.68 13.56, 27.37 9.32, 30.57 4.05 M17.45 19.14 C21.8 12.66, 27.36 8.2, 30.57 4.05 M28.08 19.11 C32.36 11.68, 37.67 6.43, 41.2 4.01 M28.08 19.11 C30.86 16.01, 34.71 10.67, 41.2 4.01 M38.71 19.07 C44.6 12.88, 47.12 5.69, 51.83 3.98 M38.71 19.07 C42.99 15.56, 46.07 11.12, 51.83 3.98 M49.34 19.04 C52.37 12.77, 56.98 10.38, 61.8 4.7 M49.34 19.04 C52.06 15.43, 55.49 12.28, 61.8 4.7 M59.97 19 C62.2 14.29, 65.04 11.49, 72.43 4.66 M59.97 19 C65.66 13.31, 69.05 7.59, 72.43 4.66 M70.6 18.97 C75.92 14.93, 75.93 10.17, 83.06 4.63 M70.6 18.97 C74.71 14.38, 79.57 7.2, 83.06 4.63 M81.23 18.93 C84.41 16.58, 86.52 13.29, 93.69 4.6 M81.23 18.93 C85.04 15.33, 88.99 10.17, 93.69 4.6 M91.86 18.9 C94.43 12.59, 99.76 8.96, 104.32 4.56 M91.86 18.9 C95.94 14.26, 100.82 8.4, 104.32 4.56 M102.49 18.87 C104.61 15.3, 107.66 12.11, 116.92 2.26 M102.49 18.87 C106.22 12.94, 111.78 8.75, 116.92 2.26" stroke="#1e1e1e" stroke-width="1" fill="none"></path><path d="M4.15 0 C31.23 0.91, 60.72 2.03, 112.58 0 M4.15 0 C24.93 -0.4, 46.85 -0.62, 112.58 0 M112.58 0 C115.48 -0.59, 114.79 1.73, 116.72 4.15 M112.58 0 C115.52 -0.31, 118.74 1.76, 116.72 4.15 M116.72 4.15 C117 6.69, 116.86 9.48, 116.72 12.44 M116.72 4.15 C116.9 7.17, 116.44 10.11, 116.72 12.44 M116.72 12.44 C114.74 15.86, 117.11 17.34, 112.58 16.59 M116.72 12.44 C117.37 13.45, 113.22 15.59, 112.58 16.59 M112.58 16.59 C72.14 15.46, 30.99 18.24, 4.15 16.59 M112.58 16.59 C86.74 15.79, 61.83 15.8, 4.15 16.59 M4.15 16.59 C3.03 18.43, 0.78 14.12, 0 12.44 M4.15 16.59 C2.09 15.39, -0.73 15.05, 0 12.44 M0 12.44 C0.13 9.27, 0.83 6.86, 0 4.15 M0 12.44 C-0.29 9.92, 0.39 6.54, 0 4.15 M0 4.15 C0.63 2.55, 2.99 -0.92, 4.15 0 M0 4.15 C2.05 3.12, 1.15 1.04, 4.15 0" stroke="#1e1e1e" stroke-width="2" fill="none"></path></g><g stroke-linecap="round" transform="translate(1011.016654924616 201.21169102031445) rotate(0 41.241721854304615 8.293210428972031)"><path d="M1.1 0.96 C1.1 0.96, 1.1 0.96, 1.1 0.96 M1.1 0.96 C1.1 0.96, 1.1 0.96, 1.1 0.96 M0.58 13.76 C4.25 8.99, 6.35 6.73, 12.39 0.17 M0.58 13.76 C3.59 10.27, 5.78 8.35, 12.39 0.17 M8.59 16.74 C12.49 10.41, 16.78 6, 23.02 0.14 M8.59 16.74 C12.83 12.05, 18.18 5.45, 23.02 0.14 M19.22 16.7 C23.88 12.85, 28.18 8.36, 33.65 0.1 M19.22 16.7 C23.37 12.6, 27.96 7.03, 33.65 0.1 M29.19 17.43 C33.27 11.16, 37.64 8.82, 44.28 0.07 M29.19 17.43 C33.57 11.7, 38.79 7.55, 44.28 0.07 M39.82 17.39 C42.05 11.06, 47.58 7.56, 54.91 0.03 M39.82 17.39 C43.84 12.98, 47.51 9.04, 54.91 0.03 M50.45 17.36 C54.09 13.58, 57.42 8.86, 64.88 0.75 M50.45 17.36 C53.94 13.72, 56.06 10.92, 64.88 0.75 M61.08 17.32 C66.36 9.89, 73.79 4.99, 75.51 0.72 M61.08 17.32 C64.92 11.77, 69.94 6.83, 75.51 0.72 M71.71 17.29 C73.82 12.38, 80.56 10.23, 82.86 4.46 M71.71 17.29 C73.82 13.61, 76.17 10.62, 82.86 4.46" stroke="#1e1e1e" stroke-width="1" fill="none"></path><path d="M4.15 0 C23.44 1.33, 38.78 -0.35, 78.34 0 M4.15 0 C29.31 -0.18, 56.17 -0.4, 78.34 0 M78.34 0 C79.17 0.35, 82.64 1.12, 82.48 4.15 M78.34 0 C83.12 0.38, 81.92 2.05, 82.48 4.15 M82.48 4.15 C82.62 7.97, 82.95 9.82, 82.48 12.44 M82.48 4.15 C82.29 6.81, 82.12 9.39, 82.48 12.44 M82.48 12.44 C84.25 15.96, 81.66 15.06, 78.34 16.59 M82.48 12.44 C80.37 14.21, 82.99 18.59, 78.34 16.59 M78.34 16.59 C59.54 18.25, 36.84 16.39, 4.15 16.59 M78.34 16.59 C60.11 16.19, 42.38 17.34, 4.15 16.59 M4.15 16.59 C2.16 15.5, 0.61 14.17, 0 12.44 M4.15 16.59 C0.66 16.44, 0.65 14.29, 0 12.44 M0 12.44 C0.78 10.22, 0.35 7.48, 0 4.15 M0 12.44 C0.39 9.16, 0.2 6.54, 0 4.15 M0 4.15 C1.61 0.46, 3.17 1.51, 4.15 0 M0 4.15 C-0.23 2.42, 3.23 -0.68, 4.15 0" stroke="#1e1e1e" stroke-width="2" fill="none"></path></g><g stroke-linecap="round" transform="translate(301.64295379684813 125.62519819122735) rotate(0 62.51550262847343 21.80000000000001)"><path d="M-1.72 -0.65 L124.88 -0.33 L124.2 45.43 L1.13 43.63" stroke="none" stroke-width="0" fill="#b2f2bb"></path><path d="M0 0 C43.46 2.76, 82.05 -0.24, 125.03 0 M0 0 C40.39 0.05, 79.32 1.63, 125.03 0 M125.03 0 C123.28 15.32, 123.44 28.24, 125.03 43.6 M125.03 0 C124.78 11.74, 125.03 23.59, 125.03 43.6 M125.03 43.6 C75.12 43.93, 27.48 46.68, 0 43.6 M125.03 43.6 C87.02 43.02, 47.49 44.11, 0 43.6 M0 43.6 C2.01 30.4, -1.08 14.35, 0 0 M0 43.6 C0.95 31.34, -0.3 18.38, 0 0" stroke="#1e1e1e" stroke-width="1" fill="none"></path></g><g transform="translate(331.3459564253217 130.62519819122735) rotate(0 32.8125 16.80000000000001)"><text x="32.8125" y="27.0375" font-family="Cascadia, Segoe UI Emoji" font-size="28px" fill="#1e1e1e" text-anchor="middle" style="white-space: pre;" direction="ltr" dominant-baseline="alphabetic">next</text></g><g stroke-linecap="round"><g transform="translate(422.64070081970067 178.0575552344627) rotate(0 18.149662053427733 -32.26606587276052)" fill-rule="evenodd"><path d="M-0.15 -0.33 L35.47 -30.44 L1.13 -64.5 L1.95 -1.85" stroke="none" stroke-width="0" fill="#b2f2bb" fill-rule="evenodd"></path><path d="M0 0 C6.73 -8.72, 16.26 -13.78, 36.3 -32.27 M0 0 C8.12 -6.66, 17.6 -16.37, 36.3 -32.27 M36.3 -32.27 C21.11 -44.18, 7.3 -55.72, 0 -64.53 M36.3 -32.27 C24.46 -42, 13.98 -53.95, 0 -64.53 M0 -64.53 C-1.79 -37.11, -0.43 -15.46, 0 0 M0 -64.53 C-0.67 -43.13, 0.5 -22.77, 0 0 M0 0 C0 0, 0 0, 0 0 M0 0 C0 0, 0 0, 0 0" stroke="#1e1e1e" stroke-width="1" fill="none"></path></g></g><mask></mask><g stroke-linecap="round" transform="translate(755.6429537968481 128.12519819122735) rotate(0 62.51550262847343 21.80000000000001)"><path d="M-0.43 -0.39 L125.52 -0.31 L123.9 44.99 L1.22 45.2" stroke="none" stroke-width="0" fill="#b2f2bb"></path><path d="M0 0 C30.45 -1.63, 57.18 0.1, 125.03 0 M0 0 C43.22 -1.32, 85.83 0.38, 125.03 0 M125.03 0 C123.94 12.43, 124.54 23.69, 125.03 43.6 M125.03 0 C124.61 11.25, 125.59 23.47, 125.03 43.6 M125.03 43.6 C96.86 42.52, 70.71 45.47, 0 43.6 M125.03 43.6 C90.09 44.15, 57.3 42.77, 0 43.6 M0 43.6 C0.26 26.43, -0.09 12.4, 0 0 M0 43.6 C-1.14 27.75, -0.74 11.38, 0 0" stroke="#1e1e1e" stroke-width="1" fill="none"></path></g><g transform="translate(785.3459564253217 133.12519819122735) rotate(0 32.8125 16.80000000000001)"><text x="32.8125" y="27.0375" font-family="Cascadia, Segoe UI Emoji" font-size="28px" fill="#1e1e1e" text-anchor="middle" style="white-space: pre;" direction="ltr" dominant-baseline="alphabetic">next</text></g><g stroke-linecap="round"><g transform="translate(876.6407008197009 180.5575552344626) rotate(0 18.149662053427733 -32.266065872760464)" fill-rule="evenodd"><path d="M-1.13 1.39 L37.52 -30.66 L1.73 -63.98 L0.28 -0.25" stroke="none" stroke-width="0" fill="#b2f2bb" fill-rule="evenodd"></path><path d="M0 0 C9.78 -7.02, 18.12 -15.25, 36.3 -32.27 M0 0 C7.44 -6.95, 14.83 -14.42, 36.3 -32.27 M36.3 -32.27 C23.23 -44.54, 12.59 -54.71, 0 -64.53 M36.3 -32.27 C26.03 -41, 18.36 -48.94, 0 -64.53 M0 -64.53 C-0.35 -52.7, -0.35 -40.61, 0 0 M0 -64.53 C0.84 -38.86, 0.46 -13.86, 0 0 M0 0 C0 0, 0 0, 0 0 M0 0 C0 0, 0 0, 0 0" stroke="#1e1e1e" stroke-width="1" fill="none"></path></g></g><mask></mask></svg>