<svg version="1.1" xmlns="http://www.w3.org/2000/svg" class="railroad-diagram" width="393"
    height="62" viewBox="0 0 393 62">
    <defs>
        <style type="text/css">
            svg.railroad-diagram {
            background-color: hsl(30,20%,95%);
            }
            svg.railroad-diagram path {
            stroke-width: 3;
            stroke: black;
            fill: rgba(0,0,0,0);
            }
            svg.railroad-diagram text {
            font: bold 14px monospace;
            text-anchor: middle;
            }
            svg.railroad-diagram text.label {
            text-anchor: start;
            }
            svg.railroad-diagram text.comment {
            font: italic 12px monospace;
            }
            svg.railroad-diagram rect {
            stroke-width: 3;
            stroke: black;
            fill: hsl(120,100%,90%);
            }

        </style>
    </defs>
    <g transform="translate(.5 .5)">
        <path d="M 20 21 v 20 m 10 -20 v 20 m -10 -10 h 20.5"></path>
        <g>
            <path d="M40 31h0"></path>
            <path d="M352 31h0"></path>
            <path d="M40 31h20"></path>
            <g>
                <path d="M60 31h0"></path>
                <path d="M332 31h0"></path>
                <path d="M60 31h10"></path>
                <g>
                    <path d="M70 31h0"></path>
                    <path d="M122 31h0"></path>
                    <rect x="70" y="20" width="52" height="22" rx="10" ry="10"></rect>
                    <text x="96" y="35">"-&#91;"</text>
                </g>
                <path d="M122 31h10"></path>
                <path d="M132 31h10"></path>
                <g>
                    <path d="M142 31h0"></path>
                    <path d="M242 31h0"></path>
                    <rect x="142" y="20" width="100" height="22"></rect>
                    <text x="192" y="35">Attributes</text>
                </g>
                <path d="M242 31h10"></path>
                <path d="M252 31h10"></path>
                <g>
                    <path d="M262 31h0"></path>
                    <path d="M322 31h0"></path>
                    <rect x="262" y="20" width="60" height="22" rx="10" ry="10"></rect>
                    <text x="292" y="35">"&#93;->"</text>
                </g>
                <path d="M322 31h10"></path>
            </g>
            <path d="M332 31h20"></path>
        </g>
        <path d="M 352 31 h 20 m -10 -10 v 20 m 10 -20 v 20"></path>
    </g>
</svg>