<svg version="1.1" xmlns="http://www.w3.org/2000/svg" class="railroad-diagram" width="297" height="122" viewBox="0 0 297 122">
  <defs>
    <style type="text/css">
      svg.railroad-diagram {
          background-color: hsl(30,20%,95%);
      }
      svg.railroad-diagram path {
          stroke-width: 3;
          stroke: black;
          fill: rgba(0,0,0,0);
      }
      svg.railroad-diagram text {
          font: bold 14px monospace;
          text-anchor: middle;
      }
      svg.railroad-diagram text.label {
          text-anchor: start;
      }
      svg.railroad-diagram text.comment {
          font: italic 12px monospace;
      }
      svg.railroad-diagram rect {
          stroke-width: 3;
          stroke: black;
          fill: hsl(120,100%,90%);
      }
      
      </style>
  </defs>
  <g transform="translate(.5 .5)">
    <path d="M 20 21 v 20 m 10 -20 v 20 m -10 -10 h 20.5"></path>
    <g>
    <path d="M40 31h0"></path>
    <path d="M256 31h0"></path>
    <path d="M40 31h20"></path>
    <g>
    <path d="M60 31h0"></path>
    <path d="M236 31h0"></path>
    <g>
    <path d="M60 31h0"></path>
    <path d="M236 31h0"></path>
    <path d="M60 31h20"></path>
    <g>
    <path d="M80 31h32"></path>
    <path d="M184 31h32"></path>
    <path d="M112 31h10"></path>
    <g>
    <path d="M122 31h0"></path>
    <path d="M174 31h0"></path>
    <rect x="122" y="20" width="52" height="22"></rect>
    <text x="148" y="35">Node</text>
    </g>
    <path d="M174 31h10"></path>
    </g>
    <path d="M216 31h20"></path>
    <path d="M60 31a10 10 0 0 1 10 10v10a10 10 0 0 0 10 10"></path>
    <g>
    <path d="M80 61h0"></path>
    <path d="M216 61h0"></path>
    <path d="M80 61h10"></path>
    <g>
    <path d="M90 61h0"></path>
    <path d="M206 61h0"></path>
    <rect x="90" y="50" width="116" height="22"></rect>
    <text x="148" y="65">Relationship</text>
    </g>
    <path d="M206 61h10"></path>
    </g>
    <path d="M216 61a10 10 0 0 0 10 -10v-10a10 10 0 0 1 10 -10"></path>
    <path d="M60 31a10 10 0 0 1 10 10v40a10 10 0 0 0 10 10"></path>
    <g>
    <path d="M80 91h20"></path>
    <path d="M196 91h20"></path>
    <path d="M100 91h10"></path>
    <g>
    <path d="M110 91h0"></path>
    <path d="M186 91h0"></path>
    <rect x="110" y="80" width="76" height="22"></rect>
    <text x="148" y="95">Subject</text>
    </g>
    <path d="M186 91h10"></path>
    </g>
    <path d="M216 91a10 10 0 0 0 10 -10v-40a10 10 0 0 1 10 -10"></path>
    </g>
    </g>
    <path d="M236 31h20"></path>
    </g>
    <path d="M 256 31 h 20 m -10 -10 v 20 m 10 -20 v 20"></path>
    </g>
  </svg>