<svg version="1.1" xmlns="http://www.w3.org/2000/svg" class="railroad-diagram" width="345"
    height="62" viewBox="0 0 345 62">
    <defs>
        <style type="text/css">
            svg.railroad-diagram {
            background-color: hsl(30,20%,95%);
            }
            svg.railroad-diagram path {
            stroke-width: 3;
            stroke: black;
            fill: rgba(0,0,0,0);
            }
            svg.railroad-diagram text {
            font: bold 14px monospace;
            text-anchor: middle;
            }
            svg.railroad-diagram text.label {
            text-anchor: start;
            }
            svg.railroad-diagram text.comment {
            font: italic 12px monospace;
            }
            svg.railroad-diagram rect {
            stroke-width: 3;
            stroke: black;
            fill: hsl(120,100%,90%);
            }

        </style>
    </defs>
    <g transform="translate(.5 .5)">
        <path d="M 20 21 v 20 m 10 -20 v 20 m -10 -10 h 20.5"></path>
        <g>
            <path d="M40 31h0"></path>
            <path d="M304 31h0"></path>
            <path d="M40 31h20"></path>
            <g>
                <path d="M60 31h0"></path>
                <path d="M284 31h0"></path>
                <path d="M60 31h10"></path>
                <g>
                    <path d="M70 31h0"></path>
                    <path d="M122 31h0"></path>
                    <rect x="70" y="20" width="52" height="22"></rect>
                    <text x="96" y="35">Node</text>
                </g>
                <path d="M122 31h10"></path>
                <path d="M132 31h10"></path>
                <g>
                    <path d="M142 31h0"></path>
                    <path d="M202 31h0"></path>
                    <rect x="142" y="20" width="60" height="22"></rect>
                    <text x="172" y="35">Arrow</text>
                </g>
                <path d="M202 31h10"></path>
                <path d="M212 31h10"></path>
                <g>
                    <path d="M222 31h0"></path>
                    <path d="M274 31h0"></path>
                    <rect x="222" y="20" width="52" height="22"></rect>
                    <text x="248" y="35">Path</text>
                </g>
                <path d="M274 31h10"></path>
            </g>
            <path d="M284 31h20"></path>
        </g>
        <path d="M 304 31 h 20 m -10 -10 v 20 m 10 -20 v 20"></path>
    </g>
</svg>