<?xml version="1.0" encoding="UTF-8"?>
<svg width="128px" height="128px" viewBox="0 0 1640 1640" version="1.1" xmlns="http://www.w3.org/2000/svg" xmlns:xlink="http://www.w3.org/1999/xlink">
    <!-- Generator: Sketch 59.1 (86144) - https://sketch.com -->
    <title>GraphRAG Triangle</title>
    <desc>Created with Sketch.</desc>
    <g id="Page-1" stroke="none" stroke-width="1" fill="none" fill-rule="evenodd">
        <g id="Artboard" transform="translate(0.000000, -580.000000)">
            <g id="GraphRAG-Triangle" transform="translate(0.000000, 579.851681)">
                <rect id="Rectangle" fill="#000000" x="0.457565621" y="0.148318938" width="1640" height="1640"></rect>
                <path d="M142.636906,1264.55831 C191.232947,1330.71055 269.58093,1373.64832 357.957566,1373.64832 L357.957566,1373.64832 L376.685463,1373.6565 C325.497272,1377.20579 272.73646,1366.066 224.957566,1338.48084 C191.754492,1319.31103 164.226402,1294.08666 142.96271,1265.00745 Z M953.957566,75.8157996 C1081.6617,149.545814 1125.41636,312.840452 1051.68635,440.544582 L821.262783,839.648 L357.957566,839.648319 C266.342021,839.648319 185.503678,885.791003 137.414783,956.104126 L589.228783,173.544582 C662.958797,45.8404519 826.253435,2.08578548 953.957566,75.8157996 Z" id="Combined-Shape" fill="#F8E71C"></path>
                <path d="M819.650566,839.648 L1051.22878,1240.75206 C1097.37364,1320.67729 1178.60131,1367.71919 1264.22967,1373.6565 L358.957566,1373.64832 C211.497537,1373.64832 91.9575656,1254.10835 91.9575656,1106.64832 C91.9575656,959.188291 211.497537,839.648319 358.957566,839.648319 L819.650566,839.648 Z M1549.95757,1106.64832 C1549.95757,1165.74693 1530.75678,1220.36096 1498.25311,1264.59248 C1558.50457,1181.86351 1568.1556,1068.09556 1513.68635,973.752055 L1513.68635,973.752055 L1503.5058,956.112094 C1532.81518,998.970091 1549.95757,1050.8073 1549.95757,1106.64832 Z" id="Combined-Shape" fill="#E3122B"></path>
                <path d="M1061.7983,192.779293 L1512.68635,973.752055 C1586.41636,1101.45619 1542.6617,1264.75082 1414.95757,1338.48084 C1287.25344,1412.21085 1123.9588,1368.45619 1050.22878,1240.75206 L819.956779,841.91 L1051.68635,440.544582 C1097.20459,361.70468 1097.94495,269.299883 1061.7983,192.779293 Z M819.957561,40.0010525 L816.275662,40.0368043 C725.566752,41.5435167 637.890592,89.2598563 589.228783,173.544582 L589.228783,173.544582 L578.117779,192.777296 C600.521217,145.351392 637.094023,104.027179 685.957566,75.8157996 C728.237075,51.4057134 774.417659,39.8731175 819.957561,40.0010525 Z" id="Combined-Shape" fill="#4A90E2"></path>
                <circle id="Oval" stroke="#7ED321" fill="#7ED321" cx="819.957566" cy="306.648319" r="266.5"></circle>
                <circle id="Oval-Copy-2" stroke="#ED9A12" fill="#ED9A12" cx="357.5" cy="1107.64832" r="266.5"></circle>
                <circle id="Oval" fill="#6E29AA" cx="1282.41513" cy="1107.64832" r="266.5"></circle>
                <circle id="Oval-Copy-5" fill="#4A90E2" cx="819.457566" cy="307.148319" r="89"></circle>
                <circle id="Oval-Copy-6" fill="#E3122B" cx="1282.45757" cy="1108.14832" r="89"></circle>
                <circle id="Oval-Copy-7" fill="#F8E71C" cx="357.457566" cy="1108.14832" r="89"></circle>
            </g>
        </g>
    </g>
</svg>